<svg xmlns="http://www.w3.org/2000/svg" viewBox="0 0 1529.69 284.34"><defs><style>.cls-1,.cls-2{fill:#101820;}.cls-2{font-size:68.31px;font-family:NexaText-Light, Nexa Text;font-weight:300;}.cls-3{letter-spacing:-0.03em;}.cls-4{letter-spacing:0em;}.cls-5{letter-spacing:0em;}.cls-6{letter-spacing:-0.03em;}.cls-7{letter-spacing:-0.01em;}</style></defs><g id="Layer_2" data-name="Layer 2"><g id="Layer_2-2" data-name="Layer 2"><path class="cls-1" d="M489,181.89H448.84L386,116.57v65.32H356.35V25.67H386V87.61l57.8-61.94h38.56l-71.46,75.7Zm-38.45-4h29l-74.15-76.48,67.72-71.74H445.56L382,97.76V29.67H360.35V177.89H382V106.64Z"/><path class="cls-1" d="M608.05,181.89H498.36V25.67h29.45V154.19h80.24Zm-105.69-4H604.05v-19.7H523.81V29.67H502.36Z"/><path class="cls-1" d="M688.48,184.94c-20.2,0-37.16-6.36-49.05-18.4s-18.19-29.24-18.19-49.71V25.67h29.22v90.72c0,25.33,14.57,41.06,38,41.06s38-15.73,38-41.06V25.67h29.23v91.16c0,20.47-6.29,37.67-18.2,49.71S708.67,184.94,688.48,184.94ZM625.24,29.67v87.16c0,39.54,24.23,64.11,63.24,64.11s63.24-24.57,63.24-64.11V29.67H730.49v86.72c0,27.38-16.49,45.06-42,45.06s-42-17.68-42-45.06V29.67Z"/><path class="cls-1" d="M921.65,181.89h-26L816.42,77.16l.19,42.49v62.24H787.17V25.67h26L892.39,130.4,892.2,91V25.67h29.45Zm-24.06-4h20.06V29.67H896.2V91l.25,51.45L811.22,29.67H791.17V177.89h21.44V119.66l-.24-54.5Z"/><path class="cls-1" d="M1015.33,181.89H955.05V25.67h60.28c47.12,0,78.77,31.39,78.77,78.11S1062.45,181.89,1015.33,181.89Zm-56.28-4h56.28c44.72,0,74.77-29.78,74.77-74.11s-30-74.11-74.77-74.11H959.05Zm56.28-19.48H980.5V49.15h34.83c31.27,0,53.11,22.47,53.11,54.63,0,15.9-5.08,29.54-14.7,39.45S1030.82,158.41,1015.33,158.41Zm-30.83-4h30.83c29.38,0,49.11-20.35,49.11-50.63s-19.73-50.63-49.11-50.63H984.5Z"/><path class="cls-1" d="M1235.67,181.89h-117.3V25.67h116V52.72H1147.6V89.38h83.07V116H1147.6v38.62h88.07Zm-113.3-4h109.3V158.62H1143.6V112h83.07V93.38H1143.6V48.72h86.77v-19h-108Z"/><path class="cls-1" d="M1400.93,181.89h-37l-44.15-52h-28v52h-29.44V25.67h73.33c33.45,0,55.93,21,55.93,52.23,0,25-14,43.33-37.7,49.67Zm-35.2-4h26.45l-45.67-52.74,3.31-.71c23.65-5.07,37.78-22.47,37.78-46.54,0-29.3-20.39-48.23-51.93-48.23h-69.33V177.89h21.44v-52h33.81Zm-30.28-71.24h-47.89V49.15h47.89c19.07,0,30.92,11,30.92,28.75S1354.52,106.65,1335.45,106.65Zm-43.89-4h43.89c16.86,0,26.92-9.25,26.92-24.75s-10.06-24.75-26.92-24.75h-43.89Z"/><path class="cls-1" d="M1480.33,181.89h-29.45V53.15h-49.36V25.67h128.17V53.15h-49.36Zm-25.45-4h21.45V49.15h49.36V29.67H1405.52V49.15h49.36Z"/><text class="cls-2" transform="translate(647.4 267.19)">PH<tspan class="cls-3" x="97.62" y="0">OT</tspan><tspan class="cls-4" x="189.77" y="0">OG</tspan><tspan class="cls-5" x="297.43" y="0">R</tspan><tspan class="cls-4" x="343.74" y="0">APH</tspan><tspan class="cls-6" x="492.46" y="0">Y</tspan><tspan x="535.22" y="0" xml:space="preserve"> &amp; D</tspan><tspan class="cls-7" x="668.29" y="0">E</tspan><tspan x="711.19" y="0">SIGN</tspan></text><path class="cls-1" d="M236.2,281.43H167.61L112,223.58l33.42-35.81Zm-66.89-4h57.44l-81.3-83.86-28,30Z"/><path class="cls-1" d="M3.36,281.43H0v-95.2l46.41-49.74L0,88.23V0H4.5L50.77,48.1v67.33L82.65,81.25l32.74,34-19.86,21,22,22.72-33.31,35.7L50.77,160v70.67ZM4,187.81v87.07l42.77-45.83V150L84.2,188.93,112,159.1,90,136.37l19.87-21.05L82.7,87.07,46.77,125.58V49.71L4,5.25V86.62l47.92,49.83Z"/><path class="cls-1" d="M143.85,85.14,111,50.93,158.47,0h65.75ZM116.46,50.89l27.37,28.45L214.94,4H160.21Z"/></g></g></svg>