<svg xmlns="http://www.w3.org/2000/svg" viewBox="0 0 685.88 152.73"><defs><style>.cls-1{fill:#ff1c3b;}.cls-2{fill:#fff;}</style></defs><g id="Layer_2" data-name="Layer 2"><g id="Layer_1-2" data-name="Layer 1"><path class="cls-1" d="M9.13,127.85A9.13,9.13,0,0,1,0,118.72V33.29a9.13,9.13,0,0,1,18.25,0v85.43A9.12,9.12,0,0,1,9.13,127.85Z"/><path class="cls-1" d="M48.07,102.72a9.13,9.13,0,0,1-9.13-9.13V33.29a9.13,9.13,0,0,1,18.26,0v60.3A9.13,9.13,0,0,1,48.07,102.72Z"/><path class="cls-1" d="M87,127.85a9.12,9.12,0,0,1-9.12-9.13V33.29a9.13,9.13,0,0,1,18.25,0v85.43A9.13,9.13,0,0,1,87,127.85Z"/><path class="cls-2" d="M296.83,66.65v52.07H271.39V68.86c0-8.48-4.07-13.91-12.21-13.91C250.7,55,246,60.89,246,70.89v47.83H220.51V68.86c0-8.48-4.07-13.91-12.21-13.91-8.48,0-13.23,5.94-13.23,15.94v47.83H169.63V33.92h25.44v7.8C199,36,206.43,31.55,217.8,31.55c10,0,17.46,4.07,22.21,11.19,4.75-6.78,12.55-11.19,24.6-11.19C284.11,31.55,296.83,45.45,296.83,66.65Z"/><path class="cls-2" d="M393.16,33.92l-29,82.26c-9.5,27-24.59,37.65-48.34,36.46V128.9c11.87,0,17.47-3.73,21.2-14.08l-33.75-80.9h28l18.83,51.9L366,33.92Z"/><path class="cls-2" d="M483.89,66.65v52.07H458.45V70.38c0-10.51-6.61-15.43-14.75-15.43-9.33,0-15.78,5.43-15.78,17.47v46.3H402.49V33.92h25.43v8c4.58-6.27,13.06-10.34,24.26-10.34C469.31,31.55,483.89,43.76,483.89,66.65Z"/><path class="cls-2" d="M582.77,66.65v52.07H557.33V70.38c0-10.51-6.62-15.43-14.76-15.43-9.33,0-15.77,5.43-15.77,17.47v46.3H501.36V0H526.8V41.89c4.58-6.27,13.06-10.34,24.25-10.34C568.18,31.55,582.77,43.76,582.77,66.65Z"/><path class="cls-2" d="M596,76.32c0-25.27,20-44.77,45-44.77s44.94,19.5,44.94,44.77a44.45,44.45,0,0,1-44.94,44.78C616,121.1,596,101.59,596,76.32Zm64.45,0c0-12-8.48-20-19.5-20s-19.51,8-19.51,20,8.48,20,19.51,20S660.44,88.36,660.44,76.32Z"/></g></g></svg>