<svg xmlns="http://www.w3.org/2000/svg" xmlns:xlink="http://www.w3.org/1999/xlink" width="176" height="176" viewBox="0 0 176 176">
  <defs>
    <style>
      .cls-1 {
        fill: #fff;
      }

      .cls-2 {
        fill: #53a6f1;
      }

      .cls-3 {
        filter: url(#Rectangle_332);
      }
    </style>
    <filter id="Rectangle_332" x="0" y="0" width="176" height="176" filterUnits="userSpaceOnUse">
      <feOffset dy="3" input="SourceAlpha"/>
      <feGaussianBlur stdDeviation="6" result="blur"/>
      <feFlood flood-opacity="0.161"/>
      <feComposite operator="in" in2="blur"/>
      <feComposite in="SourceGraphic"/>
    </filter>
  </defs>
  <g id="Group_249" data-name="Group 249" transform="translate(-973 -3876)">
    <g class="cls-3" transform="matrix(1, 0, 0, 1, 973, 3876)">
      <rect id="Rectangle_332-2" data-name="Rectangle 332" class="cls-1" width="140" height="140" rx="10" transform="translate(18 15)"/>
    </g>
    <g id="Group_231" data-name="Group 231" transform="translate(85.296 231)">
      <path id="lightbulb" class="cls-2" d="M52.911,15.245a1.226,1.226,0,1,0-2.183,1.119A25.554,25.554,0,0,1,48.38,43.35a10.917,10.917,0,0,0-2.163,6.545v.156a6.065,6.065,0,0,1-6.057,6.058H29.213V40.579a9.088,9.088,0,0,0,7.849-8.99,1.227,1.227,0,1,0-2.453,0,6.623,6.623,0,1,1-13.245,0,1.227,1.227,0,1,0-2.453,0,9.088,9.088,0,0,0,7.849,8.99V56.109H15.813a6.065,6.065,0,0,1-6.057-6.058v-.158a11.036,11.036,0,0,0-2.24-6.644,25.561,25.561,0,0,1,20.423-40.8h.048A25.356,25.356,0,0,1,48.3,12.518a1.226,1.226,0,0,0,1.951-1.487,28.237,28.237,0,0,0-9.666-8.04A27.942,27.942,0,0,0,8.108,8.328,27.931,27.931,0,0,0,5.551,44.717,8.6,8.6,0,0,1,7.3,49.893v.158a8.5,8.5,0,0,0,3.049,6.521,5.184,5.184,0,0,0,.766,9.723A5.183,5.183,0,0,0,15.4,74.4h3.481A9.143,9.143,0,0,0,37,74.4h3.481a5.184,5.184,0,0,0,4.285-8.1,5.184,5.184,0,0,0,.822-9.7,8.5,8.5,0,0,0,3.079-6.546V49.9a8.453,8.453,0,0,1,1.667-5.068,28.009,28.009,0,0,0,2.573-29.583ZM27.943,79.866A6.7,6.7,0,0,1,21.365,74.4H34.52A6.7,6.7,0,0,1,27.943,79.866ZM43.4,58.563a2.733,2.733,0,1,1,0,5.466H22.047a1.226,1.226,0,1,0,0,2.452H40.484a2.733,2.733,0,1,1,0,5.466H15.4a2.733,2.733,0,0,1,0-5.466h1.74a1.226,1.226,0,0,0,0-2.452H12.488a2.733,2.733,0,0,1,0-5.466Zm0,0" transform="translate(947.704 3689)"/>
    </g>
  </g>
</svg>
