<svg xmlns="http://www.w3.org/2000/svg" xmlns:xlink="http://www.w3.org/1999/xlink" width="176" height="176" viewBox="0 0 176 176">
  <defs>
    <style>
      .cls-1 {
        fill: #fff;
      }

      .cls-2 {
        fill: #53a6f1;
      }

      .cls-3 {
        filter: url(#Rectangle_332);
      }
    </style>
    <filter id="Rectangle_332" x="0" y="0" width="176" height="176" filterUnits="userSpaceOnUse">
      <feOffset dy="3" input="SourceAlpha"/>
      <feGaussianBlur stdDeviation="6" result="blur"/>
      <feFlood flood-opacity="0.161"/>
      <feComposite operator="in" in2="blur"/>
      <feComposite in="SourceGraphic"/>
    </filter>
  </defs>
  <g id="Group_246" data-name="Group 246" transform="translate(-313 -4072)">
    <g class="cls-3" transform="matrix(1, 0, 0, 1, 313, 4072)">
      <rect id="Rectangle_332-2" data-name="Rectangle 332" class="cls-1" width="140" height="140" rx="10" transform="translate(18 15)"/>
    </g>
    <path id="XMLID_1127_" class="cls-2" d="M101.348,150.218a1.518,1.518,0,0,0-2.236.012c-3.09,3.4-11.105,12.217-11.6,12.753A8.8,8.8,0,0,0,90.9,177.667a9.025,9.025,0,0,0,1.239.307,8.848,8.848,0,0,0,4.28-.314,9.928,9.928,0,0,1-1.761,2.768,1.519,1.519,0,0,0,1.058,2.608h9.367a1.516,1.516,0,0,0,1.058-2.608,9.945,9.945,0,0,1-1.761-2.756,8.806,8.806,0,0,0,8.826-14.708C112.73,162.467,104.512,153.624,101.348,150.218Zm6.724,24.753a5.841,5.841,0,0,1-2.81-.2,5.909,5.909,0,0,1-1.818-.975,1.831,1.831,0,0,0-2.924,1.828A16.3,16.3,0,0,0,102.145,180h-3.5a16.331,16.331,0,0,0,1.622-4.435,1.831,1.831,0,0,0-2.943-1.806,5.839,5.839,0,0,1-4.672,1.225,5.96,5.96,0,0,1-.815-.2,5.767,5.767,0,0,1-2.2-9.638l0,0c.237-.244,1.5-1.632,10.6-11.646,9.347,10.06,10.607,11.41,10.83,11.637h0a5.767,5.767,0,0,1-3,9.837Z" transform="translate(290.156 3991.003)"/>
    <path id="XMLID_1128_" class="cls-2" d="M335.578,249.7a1.518,1.518,0,0,0-1.518,1.518v.088a1.518,1.518,0,1,0,3.037,0v-.088A1.518,1.518,0,0,0,335.578,249.7Z" transform="translate(78.776 3906.214)"/>
    <path id="XMLID_1133_" class="cls-2" d="M381.512,108.452l-2.541-.681a1.518,1.518,0,1,0-.786,2.934l1.074.288-1.247,4.652a1.112,1.112,0,0,1-2.149-.576,1.518,1.518,0,0,0-2.933-.786,4.149,4.149,0,1,0,8.015,2.148l1.64-6.119A1.518,1.518,0,0,0,381.512,108.452Z" transform="translate(45.93 4026.637)"/>
    <path id="XMLID_1136_" class="cls-2" d="M246.95,77.571a1.519,1.519,0,0,0-2.859,0l-3.264,9.106a1.518,1.518,0,1,0,2.859,1.025l.24-.668h3.191l.24.668a1.518,1.518,0,1,0,2.859-1.025ZM245.014,84l.507-1.414L246.027,84Z" transform="translate(157.929 4053.061)"/>
    <path id="XMLID_39_" class="cls-2" d="M87.5,10.893,47.458.163a4.708,4.708,0,0,0-5.766,3.329l-.416,1.552L23.735,5.038h0a4.708,4.708,0,0,0-4.708,4.708V69.39A4.713,4.713,0,0,0,23.733,74.1H56.62l13.013,3.487A4.705,4.705,0,0,0,75.4,74.256l15.433-57.6A4.713,4.713,0,0,0,87.5,10.893ZM44.626,4.278A1.671,1.671,0,0,1,46.672,3.1l7.286,1.952-9.538,0ZM87.9,15.873,72.465,73.47a1.673,1.673,0,0,1-2.047,1.182L67,73.736a4.715,4.715,0,0,0,2.9-4.346V46.041a1.518,1.518,0,1,0-3.037,0V69.39a1.673,1.673,0,0,1-1.671,1.671H29.352V61.475a1.518,1.518,0,1,0-3.037,0v9.587H23.733a1.673,1.673,0,0,1-1.671-1.671V9.746a1.671,1.671,0,0,1,1.671-1.671h0l18.557.006a1.507,1.507,0,0,0,.3,0l22.6.008a1.675,1.675,0,0,1,.2.014c.028,0,.056.01.085.013a1.656,1.656,0,0,1,.346.1l.034.014a1.673,1.673,0,0,1,1,1.531V33.095a1.518,1.518,0,0,0,3.037,0V9.76c0-.151-.008-.3-.022-.446l16.84,4.512A1.673,1.673,0,0,1,87.9,15.873Z" transform="translate(345.975 4118)"/>
    <path id="XMLID_536_" class="cls-2" d="M68.552,357.886a1.519,1.519,0,1,1,1.074-.445A1.529,1.529,0,0,1,68.552,357.886Z" transform="translate(305.256 3817.033)"/>
  </g>
</svg>
