<svg xmlns="http://www.w3.org/2000/svg" xmlns:xlink="http://www.w3.org/1999/xlink" width="176" height="176" viewBox="0 0 176 176">
  <defs>
    <style>
      .cls-1 {
        fill: #fff;
      }

      .cls-2 {
        fill: #53a6f1;
      }

      .cls-3 {
        filter: url(#Rectangle_332);
      }
    </style>
    <filter id="Rectangle_332" x="0" y="0" width="176" height="176" filterUnits="userSpaceOnUse">
      <feOffset dy="3" input="SourceAlpha"/>
      <feGaussianBlur stdDeviation="6" result="blur"/>
      <feFlood flood-opacity="0.161"/>
      <feComposite operator="in" in2="blur"/>
      <feComposite in="SourceGraphic"/>
    </filter>
  </defs>
  <g id="Group_248" data-name="Group 248" transform="translate(-313 -3876)">
    <g class="cls-3" transform="matrix(1, 0, 0, 1, 313, 3876)">
      <rect id="Rectangle_332-2" data-name="Rectangle 332" class="cls-1" width="140" height="140" rx="10" transform="translate(18 15)"/>
    </g>
    <path id="Path_6" data-name="Path 6" class="cls-2" d="M72.949,71.01H66.006l-2.638-4.716V53.43a6.854,6.854,0,0,0-4.845-6.576L47.45,43.417V31.694a5.418,5.418,0,0,0-.886-2.976,8.008,8.008,0,0,0-1.89-15.55V7.225A7.233,7.233,0,0,0,37.448,0,1.443,1.443,0,0,0,36,1.443v11.52h-.02A4.7,4.7,0,0,0,31.2,17.574a4.7,4.7,0,0,0,4.612,4.783l.084,0a19.338,19.338,0,0,1-2.063,6.84,5.444,5.444,0,0,0-.607,2.5V44.107l-3.477,6.265L11.124,62.083A6.018,6.018,0,0,0,8.294,67.2v3.8H1.943a1.443,1.443,0,0,0,0,2.887H72.949a1.443,1.443,0,1,0,0-2.887ZM49.084,21.144a5.131,5.131,0,0,1-4.41,5.074V16.07A5.131,5.131,0,0,1,49.084,21.144ZM38.892,3.134a4.346,4.346,0,0,1,2.9,4.092V27.9a1.442,1.442,0,0,0,1.007,1.376,2.531,2.531,0,0,1,1.77,2.421V43.038H36.115V31.694a2.515,2.515,0,0,1,.282-1.166A22.078,22.078,0,0,0,38.892,20.41ZM34.6,18.916a1.811,1.811,0,0,1,1.3-3.069h.061l.045,0v3.627l-.138,0A1.8,1.8,0,0,1,34.6,18.916ZM22.333,64.733a1.443,1.443,0,0,0-1.932-.659l-6.394,3.141a1.447,1.447,0,0,0-.268.171L11.18,69.442V67.2a3.147,3.147,0,0,1,1.48-2.679L31.6,52.618A1.444,1.444,0,0,0,32.1,52.1l3.426-6.173h7.789l-4.169,6.258a17.821,17.821,0,0,1-6.967,6.107l-2.988,1.468a1.443,1.443,0,1,0,1.273,2.591l2.988-1.468a20.713,20.713,0,0,0,8.1-7.1l1.133-1.7,11.8,4.347V69.771a4.11,4.11,0,0,0,.19,1.239H13.836l1.586-1.275,6.251-3.07A1.443,1.443,0,0,0,22.333,64.733ZM58.6,71.01a1.241,1.241,0,0,1-1.239-1.239V55.422a1.443,1.443,0,0,0-.944-1.354l-12.1-4.457,1.57-2.357.717-1.075L57.667,49.61a3.981,3.981,0,0,1,2.814,3.82V66.671a1.447,1.447,0,0,0,.183.7L62.7,71.01Zm0,0" transform="translate(363.5 3924)"/>
  </g>
</svg>
