<svg xmlns="http://www.w3.org/2000/svg" xmlns:xlink="http://www.w3.org/1999/xlink" width="176" height="176" viewBox="0 0 176 176">
  <defs>
    <style>
      .cls-1 {
        fill: #fff;
      }

      .cls-2 {
        fill: #53a6f1;
      }

      .cls-3 {
        filter: url(#Rectangle_332);
      }
    </style>
    <filter id="Rectangle_332" x="0" y="0" width="176" height="176" filterUnits="userSpaceOnUse">
      <feOffset dy="3" input="SourceAlpha"/>
      <feGaussianBlur stdDeviation="6" result="blur"/>
      <feFlood flood-opacity="0.161"/>
      <feComposite operator="in" in2="blur"/>
      <feComposite in="SourceGraphic"/>
    </filter>
  </defs>
  <g id="Group_250" data-name="Group 250" transform="translate(-973 -4072)">
    <g class="cls-3" transform="matrix(1, 0, 0, 1, 973, 4072)">
      <rect id="Rectangle_332-2" data-name="Rectangle 332" class="cls-1" width="140" height="140" rx="10" transform="translate(18 15)"/>
    </g>
    <g id="Group_232" data-name="Group 232" transform="translate(-69.819 443)">
      <g id="Group_227" data-name="Group 227" transform="translate(1094.819 3678)">
        <path id="Path_12" data-name="Path 12" class="cls-2" d="M65.863,6.736H56.132V2.245a2.245,2.245,0,1,0-4.491,0V6.736H38.17V2.245a2.245,2.245,0,1,0-4.491,0V6.736H20.208V2.245a2.245,2.245,0,1,0-4.491,0V6.736H5.988A5.986,5.986,0,0,0,0,12.722V65.861a5.988,5.988,0,0,0,5.988,5.988H65.863a5.986,5.986,0,0,0,5.986-5.988V12.722A5.984,5.984,0,0,0,65.863,6.736Zm1.5,59.125a1.5,1.5,0,0,1-1.5,1.5H5.988a1.5,1.5,0,0,1-1.5-1.5V12.722a1.5,1.5,0,0,1,1.5-1.5h9.729v4.491a2.245,2.245,0,1,0,4.491,0V11.226H33.679v4.491a2.245,2.245,0,1,0,4.491,0V11.226H51.642v4.491a2.245,2.245,0,1,0,4.491,0V11.226h9.731a1.5,1.5,0,0,1,1.5,1.5Z" transform="translate(0 0)"/>
        <rect id="Rectangle_323" data-name="Rectangle 323" class="cls-2" width="8.981" height="6.736" transform="translate(15.717 26.943)"/>
        <rect id="Rectangle_324" data-name="Rectangle 324" class="cls-2" width="8.981" height="6.736" transform="translate(15.717 38.17)"/>
        <rect id="Rectangle_325" data-name="Rectangle 325" class="cls-2" width="8.981" height="6.736" transform="translate(15.717 49.396)"/>
        <rect id="Rectangle_326" data-name="Rectangle 326" class="cls-2" width="8.981" height="6.736" transform="translate(31.434 49.396)"/>
        <rect id="Rectangle_327" data-name="Rectangle 327" class="cls-2" width="8.981" height="6.736" transform="translate(31.434 38.17)"/>
        <rect id="Rectangle_328" data-name="Rectangle 328" class="cls-2" width="8.981" height="6.736" transform="translate(31.434 26.943)"/>
        <rect id="Rectangle_329" data-name="Rectangle 329" class="cls-2" width="8.981" height="6.736" transform="translate(47.151 49.396)"/>
        <rect id="Rectangle_330" data-name="Rectangle 330" class="cls-2" width="8.981" height="6.736" transform="translate(47.151 38.17)"/>
        <rect id="Rectangle_331" data-name="Rectangle 331" class="cls-2" width="8.981" height="6.736" transform="translate(47.151 26.943)"/>
      </g>
    </g>
  </g>
</svg>
