<svg xmlns="http://www.w3.org/2000/svg" xmlns:xlink="http://www.w3.org/1999/xlink" width="176" height="176" viewBox="0 0 176 176">
  <defs>
    <style>
      .cls-1 {
        fill: #fff;
      }

      .cls-2 {
        fill: #53a6f1;
      }

      .cls-3 {
        filter: url(#Rectangle_332);
      }
    </style>
    <filter id="Rectangle_332" x="0" y="0" width="176" height="176" filterUnits="userSpaceOnUse">
      <feOffset dy="3" input="SourceAlpha"/>
      <feGaussianBlur stdDeviation="6" result="blur"/>
      <feFlood flood-opacity="0.161"/>
      <feComposite operator="in" in2="blur"/>
      <feComposite in="SourceGraphic"/>
    </filter>
  </defs>
  <g id="Group_247" data-name="Group 247" transform="translate(-973 -3680)">
    <g class="cls-3" transform="matrix(1, 0, 0, 1, 973, 3680)">
      <rect id="Rectangle_332-2" data-name="Rectangle 332" class="cls-1" width="140" height="140" rx="10" transform="translate(18 15)"/>
    </g>
    <g id="Group_239" data-name="Group 239" transform="translate(81.181 -44)">
      <g id="Group_226" data-name="Group 226" transform="translate(939.819 3766)">
        <path id="Path_7" data-name="Path 7" class="cls-2" d="M82.9,268.65H72.729a12.157,12.157,0,0,0-6,1.579,12.377,12.377,0,0,0-3.949,3.549,12.2,12.2,0,0,0-2.106-.182H50.49a12.177,12.177,0,0,0-2.106.182,12.364,12.364,0,0,0-3.949-3.549,12.157,12.157,0,0,0-6-1.579H28.259A12.282,12.282,0,0,0,16.005,280.9v6.908a1.316,1.316,0,0,0,1.316,1.307H38.2v3.631a1.316,1.316,0,0,0,1.316,1.316h32.1a1.316,1.316,0,0,0,1.316-1.316V289.12H93.807a1.316,1.316,0,0,0,1.316-1.316v-6.9A12.282,12.282,0,0,0,82.9,268.65Zm-44.57,16.022v1.815h-19.7V280.9a9.649,9.649,0,0,1,9.622-9.622H38.435a9.529,9.529,0,0,1,4.7,1.234,9.776,9.776,0,0,1,2.551,2.079A12.318,12.318,0,0,0,38.335,284.672Zm31.934,1.18v5.592h-29.4v-7.652l.054-.218.091-.327.064-.218a9.676,9.676,0,0,1,9.15-6.645l.263-.145H60.675a9.658,9.658,0,0,1,9.54,8.4,2.233,2.233,0,0,0,.054.6Q70.269,285.543,70.269,285.852Zm22.258.645H72.92v-3.813l-.064-.227v-.445l-.127-.354a12.354,12.354,0,0,0-6.681-7,9.777,9.777,0,0,1,1.97-2.142,9.529,9.529,0,0,1,4.7-1.234H82.9a9.649,9.649,0,0,1,9.622,9.622Z" transform="translate(-16.005 -207.685)"/>
        <circle id="Ellipse_1" data-name="Ellipse 1" class="cls-2" cx="1.489" cy="1.489" r="1.489" transform="translate(38.143 16.178)"/>
        <path id="Path_8" data-name="Path 8" class="cls-2" d="M67.359,179.893a9.268,9.268,0,1,0,2.706,6.553A9.232,9.232,0,0,0,67.359,179.893ZM65.5,191.122a6.636,6.636,0,1,1,1.943-4.693A6.636,6.636,0,0,1,65.5,191.122Z" transform="translate(-43.467 -136.964)"/>
        <circle id="Ellipse_2" data-name="Ellipse 2" class="cls-2" cx="1.489" cy="1.489" r="1.489" transform="translate(47.765 16.178)"/>
        <path id="Path_9" data-name="Path 9" class="cls-2" d="M130.674,5.158a25.889,25.889,0,0,0-31.008,0A16.4,16.4,0,0,0,93.085,17.93a15.086,15.086,0,0,0,1.879,7.262,18.337,18.337,0,0,0,4.62,5.446L98.54,37.582a1.307,1.307,0,0,0,1.952,1.325l7.1-4.139a25.942,25.942,0,0,0,3.431.772,27.244,27.244,0,0,0,4.157.318,24.881,24.881,0,0,0,15.5-5.156,16.433,16.433,0,0,0,6.572-12.772A16.4,16.4,0,0,0,130.674,5.158Zm-1.634,23.51a22.248,22.248,0,0,1-13.87,4.539,24.624,24.624,0,0,1-3.749-.281,23.321,23.321,0,0,1-3.631-.844,1.307,1.307,0,0,0-1.053.118l-5.183,3.059.753-4.993A1.316,1.316,0,0,0,101.772,29a15.932,15.932,0,0,1-4.539-5.083A12.473,12.473,0,0,1,95.69,17.93,13.822,13.822,0,0,1,101.273,7.2a23.463,23.463,0,0,1,27.74,0A13.767,13.767,0,0,1,134.6,17.93,13.823,13.823,0,0,1,129.04,28.668Z" transform="translate(-75.593 0)"/>
        <path id="Path_10" data-name="Path 10" class="cls-2" d="M256.838,177.13a9.268,9.268,0,1,0,9.26,9.276A9.268,9.268,0,0,0,256.838,177.13Zm4.685,13.957a6.636,6.636,0,1,1,0-9.384A6.636,6.636,0,0,1,261.524,191.087Z" transform="translate(-195.014 -136.933)"/>
        <circle id="Ellipse_3" data-name="Ellipse 3" class="cls-2" cx="1.489" cy="1.489" r="1.489" transform="translate(28.521 16.178)"/>
        <path id="Path_11" data-name="Path 11" class="cls-2" d="M165.419,201.631a9.259,9.259,0,1,0,.023,13.094A9.259,9.259,0,0,0,165.419,201.631Zm-6.542,13.21a6.636,6.636,0,1,1,6.637-6.634A6.636,6.636,0,0,1,158.877,214.841Z" transform="translate(-119.302 -153.786)"/>
      </g>
    </g>
  </g>
</svg>
