<svg xmlns="http://www.w3.org/2000/svg" xmlns:xlink="http://www.w3.org/1999/xlink" width="176" height="176" viewBox="0 0 176 176">
  <defs>
    <style>
      .cls-1 {
        fill: #fff;
      }

      .cls-2 {
        fill: #53a6f1;
      }

      .cls-3 {
        filter: url(#Rectangle_332);
      }
    </style>
    <filter id="Rectangle_332" x="0" y="0" width="176" height="176" filterUnits="userSpaceOnUse">
      <feOffset dy="3" input="SourceAlpha"/>
      <feGaussianBlur stdDeviation="6" result="blur"/>
      <feFlood flood-opacity="0.161"/>
      <feComposite operator="in" in2="blur"/>
      <feComposite in="SourceGraphic"/>
    </filter>
  </defs>
  <g id="Group_245" data-name="Group 245" transform="translate(-313 -3680)">
    <g class="cls-3" transform="matrix(1, 0, 0, 1, 313, 3680)">
      <rect id="Rectangle_332-2" data-name="Rectangle 332" class="cls-1" width="140" height="140" rx="10" transform="translate(18 15)"/>
    </g>
    <path id="Path_1" data-name="Path 1" class="cls-2" d="M58.432,12.064A16.2,16.2,0,0,0,42.775,0,16.337,16.337,0,0,0,28.65,8.119L18.4,25.867l0,0,0,.005L8.151,43.625A16.262,16.262,0,0,0,35.52,61.131q.042-.059.078-.122L56.815,24.383A16.113,16.113,0,0,0,58.432,12.064Zm-25.6,47.258A13.023,13.023,0,0,1,10.955,45.244L20.4,28.893l3.5,2.023h0L42.925,41.9ZM54.013,22.76,44.548,39.1,26.923,28.923l4.53-7.846a1.619,1.619,0,1,0-2.8-1.619L24.118,27.3l-2.1-1.214,9.44-16.35a13.09,13.09,0,0,1,11.32-6.5A13.029,13.029,0,0,1,54.013,22.76Z" transform="translate(355.024 3724)"/>
    <path id="Path_2" data-name="Path 2" class="cls-2" d="M273.585,333.753a62.4,62.4,0,0,0-29.363,0c-4.7,1.342-7.082,3.232-7.087,5.616,0,0,0,.005,0,.008V353.77c0,2.393,2.381,4.286,7.076,5.628a62.6,62.6,0,0,0,29.386,0c4.7-1.341,7.076-3.235,7.076-5.628V339.387s0-.007,0-.01C280.673,336.989,278.288,335.1,273.585,333.753Zm-28.473,3.114a59.268,59.268,0,0,1,27.584,0c3.9,1.115,4.734,2.313,4.739,2.509v0c-.007.2-.839,1.394-4.738,2.508a59.266,59.266,0,0,1-27.584,0c-3.915-1.119-4.739-2.32-4.739-2.511S241.2,337.985,245.112,336.867Zm32.323,16.9c0,.231-.842,1.4-4.728,2.514a59.478,59.478,0,0,1-27.607,0c-3.886-1.11-4.727-2.283-4.727-2.514V343.518A19.91,19.91,0,0,0,244.222,345a62.4,62.4,0,0,0,29.363,0,19.919,19.919,0,0,0,3.849-1.484v4.041a33.975,33.975,0,0,1-8.453,2.709,1.619,1.619,0,1,0,.618,3.179,39.472,39.472,0,0,0,7.835-2.328v2.651Z" transform="translate(161.295 3445.756)"/>
  </g>
</svg>
