<?xml version="1.0" standalone="no"?>
<!DOCTYPE svg PUBLIC "-//W3C//DTD SVG 20010904//EN"
 "http://www.w3.org/TR/2001/REC-SVG-20010904/DTD/svg10.dtd">
<svg version="1.0" xmlns="http://www.w3.org/2000/svg"
 width="2084.000000pt" height="2084.000000pt" viewBox="0 0 2084.000000 2084.000000"
 preserveAspectRatio="xMidYMid meet">
<metadata>
Created by potrace 1.11, written by Peter Selinger 2001-2013
</metadata>
<g transform="translate(0.000000,2084.000000) scale(0.100000,-0.100000)"
fill="#000000" stroke="none">
<path d="M19790 20834 c-493 -60 -1018 -241 -1705 -589 -1262 -640 -2913
-1778 -4770 -3291 -622 -506 -1033 -853 -1617 -1366 -2747 -2407 -5440 -5119
-7703 -7758 -1626 -1896 -2914 -3610 -3790 -5044 -170 -280 -205 -347 -205
-398 0 -106 -64 -35 1129 -1231 751 -752 1119 -1114 1147 -1127 56 -27 142
-27 197 1 71 36 429 254 662 402 3385 2155 8073 6362 11981 10752 954 1072
1778 2057 2520 3010 1727 2218 2818 4030 3107 5160 71 274 82 356 81 600 0
256 -11 313 -90 475 -39 78 -62 110 -128 176 -112 112 -221 170 -396 210 -63
14 -348 27 -420 18z m281 -428 c77 -17 142 -46 188 -84 l33 -28 -2737 -2709
c-1506 -1491 -2740 -2711 -2744 -2713 -3 -1 -343 335 -754 746 l-749 749 239
194 c2577 2106 4758 3497 5958 3800 224 57 432 73 566 45z m-4014 -7456 c-22
-31 -490 -580 -733 -860 -851 -977 -1839 -2053 -2752 -2993 l-153 -158 -279
274 c-160 157 -295 282 -317 292 -99 47 -183 29 -285 -62 -264 -233 -510 -350
-842 -399 -135 -20 -332 -14 -477 15 -605 121 -1065 585 -1185 1196 -25 123
-25 404 -1 532 21 117 68 264 119 373 52 112 169 286 261 386 111 122 131 199
78 302 -11 20 -141 158 -290 307 -149 148 -271 273 -271 276 0 7 430 420 810
780 970 916 2062 1895 3004 2693 l210 177 1557 -1557 c1349 -1349 1556 -1560
1546 -1574z m-7256 -1036 l186 -186 -54 -76 c-250 -349 -376 -768 -360 -1202
17 -452 175 -850 481 -1215 l40 -46 -180 -179 c-98 -98 -1612 -1599 -3364
-3334 l-3184 -3157 -543 543 c-299 299 -543 547 -543 552 0 12 305 448 528
756 1388 1910 3267 4108 5441 6360 293 303 1352 1370 1360 1370 3 0 90 -84
192 -186z m-7092 -10048 l-331 -329 -434 434 c-239 239 -434 438 -434 443 0
12 176 298 323 526 66 102 134 207 150 233 l31 48 513 -513 514 -513 -332
-329z"/>
<path d="M13694 14036 c-629 -204 -2124 -1546 -2974 -2671 -130 -171 -308
-437 -317 -473 -5 -21 20 -50 193 -223 109 -109 206 -199 215 -199 9 0 70 34
135 76 1215 776 3045 2794 3044 3356 0 74 -13 104 -59 135 -46 31 -140 31
-237 -1z m191 -72 c0 -5 -208 -216 -463 -469 l-463 -459 -125 125 c-68 68
-124 127 -124 131 0 10 206 174 368 292 379 277 669 424 782 396 14 -4 25 -11
25 -16z m-725 -1259 c0 -21 -599 -685 -619 -685 -4 0 -27 20 -51 45 -47 48
-86 58 -111 29 -43 -52 -165 -77 -246 -50 -108 36 -173 126 -173 238 0 66 30
149 63 177 28 23 20 54 -28 101 -25 25 -44 50 -43 56 5 20 364 352 597 552
l85 73 263 -263 c145 -145 263 -267 263 -273z m-1244 -261 c-42 -80 -52 -152
-32 -232 9 -37 30 -89 47 -116 l30 -49 -88 -89 c-48 -49 -308 -306 -576 -570
l-488 -482 -90 90 c-49 49 -89 93 -89 99 0 11 220 308 320 430 214 265 495
578 759 848 l175 178 28 -29 29 -28 -25 -50z m-1248 -1517 l82 -83 -53 -52
-53 -52 -73 74 c-69 69 -72 75 -60 97 21 41 61 99 68 99 4 0 43 -37 89 -83z"/>
<path d="M12771 12915 c-80 -37 -211 -143 -351 -285 -116 -116 -260 -291 -260
-315 0 -6 18 -28 40 -50 l40 -39 67 47 c258 175 607 587 553 652 -17 20 -26
19 -89 -10z m69 -3 c0 -5 -40 -45 -89 -90 l-88 -81 -22 23 -22 23 55 42 c55
41 141 91 157 91 5 0 9 -4 9 -8z m-191 -191 c23 -27 41 -52 41 -56 0 -5 -24
-33 -52 -64 -46 -48 -58 -55 -93 -57 -64 -2 -75 8 -72 68 3 49 7 55 62 105 32
29 62 53 66 53 4 0 26 -22 48 -49z m-194 -141 l0 -50 -106 -105 c-102 -103
-106 -105 -123 -86 -16 18 -15 21 30 77 65 80 185 214 193 214 3 0 6 -23 6
-50z m-235 -282 c0 -6 -7 -5 -15 2 -8 7 -15 17 -15 22 0 6 7 5 15 -2 8 -7 15
-17 15 -22z"/>
<path d="M12609 12703 c-1 -5 -1 -12 0 -16 1 -5 -3 -6 -8 -3 -11 7 -71 -41
-71 -56 0 -6 8 -4 18 3 15 13 16 12 3 -3 -7 -10 -17 -16 -21 -13 -13 8 -24
-15 -13 -26 13 -13 76 38 66 53 -3 6 -1 8 5 4 9 -5 52 42 52 58 0 9 -30 7 -31
-1z"/>
</g>
</svg>
