<?xml version="1.0" encoding="UTF-8" standalone="no"?>
<!-- Created with Inkscape (http://www.inkscape.org/) -->

<svg
   version="1.1"
   id="svg2"
   width="3333.3333"
   height="3333.3333"
   viewBox="0 0 3333.3333 3333.3333"
   sodipodi:docname="DeSigaar-blank.ai"
   xmlns:inkscape="http://www.inkscape.org/namespaces/inkscape"
   xmlns:sodipodi="http://sodipodi.sourceforge.net/DTD/sodipodi-0.dtd"
   xmlns="http://www.w3.org/2000/svg"
   xmlns:svg="http://www.w3.org/2000/svg">
  <defs
     id="defs6">
    <clipPath
       clipPathUnits="userSpaceOnUse"
       id="clipPath16">
      <path
         d="M 0,2500 H 2500 V 0 H 0 Z"
         id="path14" />
    </clipPath>
  </defs>
  <sodipodi:namedview
     id="namedview4"
     pagecolor="#ffffff"
     bordercolor="#000000"
     borderopacity="0.25"
     inkscape:showpageshadow="2"
     inkscape:pageopacity="0.0"
     inkscape:pagecheckerboard="0"
     inkscape:deskcolor="#d1d1d1" />
  <g
     id="g8"
     inkscape:groupmode="layer"
     inkscape:label="DeSigaar-blank"
     transform="matrix(1.3333333,0,0,-1.3333333,0,3333.3333)">
    <g
       id="g10">
      <g
         id="g12"
         clip-path="url(#clipPath16)">
        <g
           id="g18"
           transform="translate(296.6758,49.7295)">
          <path
             d="m 0,0 c 29.445,17.512 61.803,37.937 98.927,62.333 l 13.522,9.021 -289.631,287.264 -8.491,-13.804 c -24.396,-37.124 -44.821,-69.482 -62.332,-98.926 l -5.314,-8.756 L -9.55,-6.619 Z"
             style="fill:#d65226;fill-opacity:1;fill-rule:nonzero;stroke:none"
             id="path20" />
        </g>
        <g
           id="g22"
           transform="translate(1128.7266,1407.2363)">
          <path
             d="m 0,0 c 0.036,-3.583 -1.395,-7.026 -3.972,-9.55 -36.576,-36.259 -57.195,-85.617 -57.301,-137.128 -0.318,-51.211 19.948,-100.445 56.242,-136.597 75.378,-75.308 197.536,-75.308 272.931,0 5.596,5.224 14.282,5.224 19.895,0 l 73.736,-71.883 9.268,9.55 c 159.158,164.189 308.484,327.302 440.298,484.589 l 7.697,9.286 -392.018,391.752 -9.285,-7.679 C 260.204,399.714 97.091,252.242 -67.099,92.042 L -76.648,82.757 -3.707,9.815 C -1.165,7.185 0.159,3.636 0,0"
             style="fill:#faa21a;fill-opacity:1;fill-rule:nonzero;stroke:none"
             id="path24" />
        </g>
        <g
           id="g26"
           transform="translate(1587.0664,1973.5229)">
          <path
             d="m 0,0 -11.14,-9.286 388.029,-388.045 9.285,11.139 C 751.959,55.959 936.026,392.547 858.054,471.067 780.062,549.569 442.151,364.973 0,0"
             style="fill:#856240;fill-opacity:1;fill-rule:nonzero;stroke:none"
             id="path28" />
        </g>
        <g
           id="g30"
           transform="translate(439.3643,140.9775)">
          <path
             d="m 0,0 c 280.098,191.233 636.581,495.463 974.492,834.717 l 37.142,37.388 19.63,19.895 -63.921,63.921 -9.286,-7.414 c -94.285,-76.049 -232.4,-61.256 -308.449,33.063 -64.874,80.48 -64.803,195.33 0.247,275.668 l 7.415,9.285 -63.657,63.657 -11.933,-11.669 -45.615,-45.103 C 196.812,934.173 -107.153,579.015 -298.651,298.916 l -6.108,-9.02 L -10.08,-6.108 Z"
             style="fill:#856240;fill-opacity:1;fill-rule:nonzero;stroke:none"
             id="path32" />
        </g>
        <g
           id="g34"
           transform="translate(119.4941,408.3477)">
          <path
             d="m 0,0 -8.491,-13.804 c -24.397,-37.124 -44.821,-69.482 -62.333,-98.926 l -5.313,-8.756 112.467,-112.467 99.473,98.68 z"
             style="fill:#f26621;fill-opacity:1;fill-rule:nonzero;stroke:none"
             id="path36" />
        </g>
        <g
           id="g38"
           transform="translate(1555.5029,1947.2554)">
          <path
             d="m 0,0 -9.285,-7.679 c -157.287,-132.626 -320.401,-280.098 -484.59,-440.298 l -9.55,-9.285 72.942,-72.942 c 5.207,-5.155 5.225,-13.558 0.088,-18.748 -0.035,-0.035 -0.053,-0.052 -0.088,-0.088 -36.577,-36.259 -57.196,-85.616 -57.284,-137.127 -0.3,-48.705 18.006,-95.644 51.176,-131.302 l 629.413,624.647 z"
             style="fill:#fece09;fill-opacity:1;fill-rule:nonzero;stroke:none"
             id="path40" />
        </g>
        <g
           id="g42"
           transform="translate(1587.0664,1973.5229)">
          <path
             d="M 0,0 -11.14,-9.286 180.095,-199.725 858.054,471.332 C 778.474,549.569 441.887,364.708 0,0"
             style="fill:#b28354;fill-opacity:1;fill-rule:nonzero;stroke:none"
             id="path44" />
        </g>
        <g
           id="g46"
           transform="translate(1089.2021,1398.2158)">
          <path
             d="M 0,0 7.432,9.285 -56.225,72.941 -68.158,61.273 -113.773,16.17 c -339.253,-339.235 -643.218,-694.394 -834.716,-974.492 l -6.108,-9.021 138.981,-139.246 826.225,819.059 C -64.292,-207.81 -68.829,-85.017 0,0"
             style="fill:#b28354;fill-opacity:1;fill-rule:nonzero;stroke:none"
             id="path48" />
        </g>
        <g
           id="g50"
           transform="translate(1404.5703,985.2441)">
          <path
             d="m 0,0 c -344.796,-344.813 -694.128,-642.953 -972.621,-833.128 l -280.098,280.099 c 189.91,278.492 489.621,628.883 833.111,972.638 l 48.015,47.469 46.145,-46.145 c -79.756,-100.71 -62.774,-247.017 37.936,-326.773 84.61,-67.027 204.243,-67.027 288.854,0 L 47.486,47.998 Z m -1115.856,-925.435 -229.169,228.64 c 18.57,31.299 39.525,64.451 62.067,98.415 l 265.234,-265.252 c -33.681,-22.013 -66.833,-42.967 -98.132,-61.803 M 85.688,85.935 21.219,149.326 c -10.785,10.45 -27.927,10.45 -38.713,0 -70.452,-69.87 -184.243,-69.393 -254.095,1.059 -69.87,70.453 -69.394,184.243 1.059,254.095 10.398,10.327 10.468,27.115 0.159,37.513 l -0.159,0.159 -63.391,63.656 C -163.642,670.509 -0.529,817.734 150.138,944.252 L 524.396,569.729 C 398.126,419.08 250.918,255.949 85.688,85.935 M 1029.94,1450.061 C 1099.687,1380.296 923.846,1052.2 558.078,610.578 L 191.781,978.199 c 441.358,364.973 769.189,541.608 838.689,471.862 z M 579.032,552.482 c 0.583,0.777 1.113,1.571 1.589,2.401 360.719,433.396 598.115,822.236 487.237,932.584 -110.86,110.33 -499.171,-126.271 -932.584,-486.725 l -2.382,-1.589 C -39.524,854.329 -218.56,691.746 -390.164,523.32 l -66.851,-66.057 c -417.208,-417.226 -769.189,-845.062 -943.97,-1144.507 -6.055,-10.433 -4.307,-23.602 4.236,-32.093 l 258.085,-258.085 c 8.474,-8.544 21.661,-10.292 32.094,-4.237 299.445,173.987 727.28,526.762 1144.242,943.988 l 66.039,66.568 c 167.632,172.134 331.027,351.169 474.263,523.056 z"
             style="fill:#202020;fill-opacity:1;fill-rule:nonzero;stroke:none"
             id="path52" />
        </g>
      </g>
    </g>
  </g>
</svg>
