<?xml version="1.0" encoding="utf-8"?>
<!-- Generator: Adobe Illustrator 23.0.3, SVG Export Plug-In . SVG Version: 6.00 Build 0)  -->
<svg version="1.1" id="Layer_1" xmlns="http://www.w3.org/2000/svg" xmlns:xlink="http://www.w3.org/1999/xlink" x="0px" y="0px"
	 viewBox="0 0 500 500" style="enable-background:new 0 0 500 500;" xml:space="preserve">
<style type="text/css">
	.st0{fill:#D65127;}
	.st1{fill:#FAA31B;}
	.st2{fill:#866340;}
	.st3{fill:#F26622;}
	.st4{fill:#FECF0A;}
	.st5{display:none;fill:#B28354;}
	.st6{display:none;fill:#866340;}
	.st7{fill:#B28354;}
	.st8{fill:#202020;}
</style>
<g>
	<path class="st0" d="M59.3,490.1c5.9-3.5,12.4-7.6,19.8-12.5l2.7-1.8l-57.9-57.5l-1.7,2.8c-4.9,7.4-9,13.9-12.5,19.8l-1.1,1.8
		l48.8,48.8L59.3,490.1z"/>
	<path class="st1" d="M225.8,218.6c0,0.7-0.3,1.4-0.8,1.9c-7.3,7.3-11.4,17.1-11.5,27.4c-0.1,10.2,4,20.1,11.2,27.3
		c15.1,15.1,39.5,15.1,54.6,0c1.1-1,2.9-1,4,0l14.7,14.4l1.9-1.9c31.8-32.8,61.7-65.5,88.1-96.9l1.5-1.9l-78.4-78.4l-1.9,1.5
		c-31.5,26.5-64.1,56-96.9,88.1l-1.9,1.9l14.6,14.6C225.5,217.1,225.8,217.8,225.8,218.6z"/>
	<path class="st2" d="M317.4,105.3l-2.2,1.9l77.6,77.6l1.9-2.2c73.2-88.4,110-155.7,94.4-171.5C473.4-4.6,405.9,32.3,317.4,105.3z"
		/>
	<path class="st2" d="M87.9,471.8c56-38.2,127.3-99.1,194.9-166.9l7.4-7.5l3.9-4l-12.8-12.8l-1.9,1.5c-18.9,15.2-46.5,12.3-61.7-6.6
		c-13-16.1-13-39.1,0-55.1l1.5-1.9l-12.7-12.7l-2.4,2.3l-9.1,9C127.2,285,66.4,356,28.1,412l-1.2,1.8L85.9,473L87.9,471.8z"/>
	<path class="st3" d="M23.9,418.3l-1.7,2.8c-4.9,7.4-9,13.9-12.5,19.8l-1.1,1.8l22.5,22.5l19.9-19.7L23.9,418.3z"/>
	<path class="st4" d="M311.1,110.5l-1.9,1.5c-31.5,26.5-64.1,56-96.9,88.1l-1.9,1.9l14.6,14.6c1,1,1,2.7,0,3.7c0,0,0,0,0,0
		c-7.3,7.3-11.4,17.1-11.5,27.4c-0.1,9.7,3.6,19.1,10.2,26.3l125.9-124.9L311.1,110.5z"/>
	<path class="st5" d="M312.4,178.6c0.6-0.8,0.8-1.7,1.2-2.3c0.9-1.5,2.4-2.6,4-2.7c1.3,0,2.6-0.1,3.8,0.4c0.5,0.5,1.6,1.6,1.6,1.6
		l-51.2,50.8c0,0-1.8-1.8-2.7-2.7c-0.6-0.7-1.1-1.5-1.8-2.2c-0.7-0.7-1.2-1.4-1.4-2.4c0-0.1-0.2-0.3-0.3-0.4
		c-1.7-1.3-2.2-3.3-3.1-5.1c-0.8-1.7-0.9-3.5-1.5-5.3c0.3-0.8-0.3-1.6,0-2.4c0.2-0.8,0.2-1.6,0.9-2.2c0.1-1.5,1.2-2.5,1.9-3.7
		c0.5-1,2.6-3.7,2.6-4.4c0.8-0.6,1.7-1.4,2.7-2.1c-0.5-0.5-1-1-1.6-1.5c0-0.8,0.1-1.6,0.1-2.5c0.5-0.6,1.4-1.2,1.6-2.4
		c0.1-0.6,0.9-1.1,1.5-1.8c-1.3-0.8-1.4-2.4-2-3.6c0.4-2,1.2-3.8,3.6-4.3c-0.1-1-0.2-2.1-0.3-3c0.4-0.7,0.8-1.3,1.2-1.9l0.8-0.8
		c0.6-0.4,1.1-0.8,1.8-1.2c-1-1.9-0.5-3.5,1-5c1.5-1.5,3.1-1.7,5.1-1.1c0.5-1.4,1.7-2.3,2.6-3.3c0.9,0.3,1.8-0.7,2.7,0
		c1.1-0.3,1.6,0.9,2.6,0.9c1.5-1.1,3.2-1.7,5.3-0.9c0.8,1,2.3,1.6,2.4,3.4c1.2-1,2.4-0.3,3.6-0.4c2.9,2,3.5,3.5,2.4,6.4
		c0.5,0.2,1,0.3,1.6,0.6c1.2,1,2.1,2.3,2.1,4.1c0.5,0,0.9,0.7,1.5,0.2c0.4,0.3,0.9,0.2,1.3,0.6C310.9,176.8,311.6,177.5,312.4,178.6
		 M280.4,212.7c0.2-1.2,0.7-2.3,1.6-3.1c0.9-0.8,2.1-1.3,3.5-1.1c-0.5-1.5,0.4-2.6,1.1-3.6c0.8-1.1,2.2-1.4,3.6-1.5
		c-0.1-0.6-0.1-1.1-0.2-1.5c1.8-3,2.9-3.6,4.3-3.6c0.2-0.8,0.4-1.6,0.6-2.4c1-1,1.9-1.9,3.1-3.1c0.5,0,1.2,0,2,0
		c-0.1-1.7,1.1-2.7,2.3-3.8c0.8-0.2,1.7-0.4,2.6-0.7c-0.1-1.6,0.8-2.8,1.7-3.9c-2.5-0.6-3.4-2.4-3.6-4.6c-1.3-0.2-2.6-0.3-3.4-1.4
		c-0.2,0.1-0.2,0.2-0.3,0.2c-1,0.6-2,1.3-3.2,1c-0.7-0.2-1.4-0.1-2-0.2c-0.4,1.4-0.4,1.4-1.9,2.9c-0.6,0.2-1,0.3-1.5,0.5
		c0,0.3-0.1,0.6,0.1,0.8c0.4,0.8,0.3,1.6,0.2,2.3c-0.2,0.8-0.7,1.6-1.2,2.3c-0.3,0.5-1,0.7-1.5,1c-0.2,0.1-0.5,0.2-0.9,0.3
		c0.5,0.5,0.7,0.9,1.1,1.1c1.4,1,1.3,3.6,0,5.2c-0.8,1-1.9,1.5-3,1.9c1.1,1.5,0.5,3,0,4.5c-0.3,0.3-0.6,0.7-1,1
		c-0.7,0.4-1.4,0.8-2.1,1.1c0.1,0.4,0.1,0.7,0.3,1c0.5,1.3,0.3,2.5-0.7,3.5c-0.6,0.6-1.1,1.1-1.6,1.6c-0.6,0.2-1.1,0.3-1.5,0.5
		c-0.3,0.8,0.2,1.2,0.7,1.6C279.9,212.7,280.1,212.7,280.4,212.7z M277.8,183.7c-0.6,0.6-1.1,1.2-1.7,1.6c-0.5,0.4-1.1,0.8-1.8,1.3
		c1.2,0.8,1.7,1.8,1.9,3c0.3,1.1-0.2,2.2-0.7,3.2c-0.5,1.1-1.8,1.2-2.9,2c0.3,0.1,0.5,0.1,0.5,0.1c1.5,1.5,1.6,3.2,1.4,5
		c-1.5,2.2-1.6,2.3-2.6,2.7c0.1,0.5,0.2,1,0.2,1.5c0.3,0.3,0.6,0.6,1,0.9c0.2,0,0.4,0,0.7,0c0.2-0.5,0.9-0.6,1-1.3
		c0-0.2,0.4-0.4,0.7-0.6c0.6-0.5,1.6-0.5,2-1.3c-0.5-1.4-0.3-2.6,0.1-4c0.9-0.9,1.7-2.1,3-2.2c-0.1-1.3-0.1-2.5-0.2-3.6
		c0.7-0.6,0.7-1.5,1.4-1.9c0.7-0.4,1.3-1,1.9-1.5c-0.5-0.5-0.9-0.9-1.3-1.3c-0.4-1.4-0.4-2.8,0-4.2c0.5-0.5,1-1.1,1.6-1.5
		c0.5-0.4,1.1-0.8,1.7-1.2c-0.4-0.9-0.5-1.6-0.4-2.5c0.4-2.4,3.3-4.9,5.9-3.5c0.2,0.1,0.5,0.1,0.8,0.1c0.3-1.4,0.3-1.4,2.5-3.4
		c0.4-0.1,0.8-0.1,1.3-0.2c-0.3-0.5-0.5-0.9-0.7-1.3c-2,0.8-2.9,0.7-5.2-0.8c-0.8,0.4-1.6,0.8-2.7,1.3c-0.7-0.1-1.7-0.3-2.7-0.5
		c-0.1,0.5-0.3,1-0.4,1.4c-0.9,1.1-1.8,1.9-3.1,2.1c0.8,3.6-0.1,5.6-3,6.6C277.9,181.1,277.9,182.4,277.8,183.7z"/>
	<path class="st6" d="M319.1,185.5c1.2,0.5,2,1.5,2.8,2.3c0.2,0.8,0.4,1.6,0.6,2.3c0.8,0.3,1.7,0.6,2.7,1c0.9,0.7,1.9,1.7,2.1,3.1
		c2-1,3.8-0.7,5.2,0.7c1.4,1.3,1.9,3.1,1.2,5.1c0.6,0.3,1.1,0.6,1.6,1c0.5,0.4,0.9,0.9,1.3,1.3c0.9,2,0.9,3.9-0.7,5.7
		c0.9,0.5,1,1.5,1.3,2.3c0.2,0.9,0,1.9,0,2.7c-0.6,0.6-1.1,1.1-1.6,1.6c-0.5,0.4-1,0.8-1.7,1.3c0,1.3,0.4,2.8-0.5,4.4
		c-0.3,0.3-0.9,0.9-1.4,1.4c-1.4,0.5-2.7,0.9-4.2,0.3c-0.9,1.1-1.8,2.2-2.5,3.1c-1.5,0.5-2.8,0.5-4.3,0.2c-0.1,0.2-0.3,0.4-0.4,0.7
		c-0.3,0.6-0.5,1.2-1,1.7c-0.4,0.4-1,0.7-1.5,1c-0.8,0.3-1.7,0.6-2.6,0.2c-0.3-0.1-0.7-0.1-1.1-0.1c-0.2-0.2-0.5-0.5-0.8-0.8
		c-0.2-0.2-0.5-0.5-0.8-0.8c-0.4,0.6-0.7,1.2-1.1,1.7c-0.4,0.5-0.9,0.9-1.3,1.4c-3.1,1.1-3.5,0.6-6-0.9c-0.1,0.3-0.2,0.5-0.3,0.9
		c-1.1,1.4-3,2.1-4.1,3.6c-1.1,0.2-1.6,1.3-2.6,1.7c-0.9,0.3-1.6,1.1-2.5,1.4c-1.4,0.5-2.9,0.7-4.5,0.6c-0.6-0.6-1.3-0.3-2.1-0.4
		c-1.9-0.1-3.6-1.1-5.3-1.8c-0.8-0.3-1.4-1-2.2-1.4c-0.8-0.4-1.6-0.7-2.2-1.5c-1.4-0.3-2.1-1.8-3.3-2.4c-1.3-0.7-2.2-2-3.2-3.1
		c-0.1-0.1-0.2-0.2-0.4-0.4l51.2-50.8c0,0,0,0.1,0.1,0.1c1.1,1.3,1.6,2.9,1.2,4.6c-0.4,1.6-1.2,3-2.5,4c-0.5,0.4-1.3,0.6-1.9,0.8
		C319.6,185.2,319.3,185.3,319.1,185.5c-0.2,0-0.3,0-0.5,0 M287.5,217.8c1.5-1.6,2.8-3.4,5.6-2.4c-0.1-0.1,0.1,0.1,0.4,0.4
		c0.8-1.3,0.9-3,2.7-3.4c1.3-1.1,2.7-0.4,4.1-0.3c-0.1-0.9,0.3-1.6,0.8-2.2c0.6-0.8,1.6-1.2,2.5-1.4c1.8-0.3,3.3,0.4,4.7,1.5
		c1.2-2.4,3.2-4,6.6-2.8c0.1-1.7,1.6-2.3,2.2-3.2c0.6-0.3,0.9-0.5,1.2-0.7c-0.4-2-0.6-3.8,1.1-5.1c-0.4-0.4-0.7-0.7-1-1
		c-0.1-0.8-0.3-1.6-0.4-2.4c-0.4-0.1-0.9-0.2-1.4-0.3c-1.2-0.4-2.3-0.7-2.7-2.1c-0.2-0.5-0.5-0.9-0.8-1.5c-1.1,1.3-2.3,2.1-4,1.8
		c0,0.7,0,1.3,0,1.6c-0.8,1.8-2,3-3.6,3.6c-0.3-0.1-0.4-0.2-0.6-0.3c-0.2,1-0.3,2-0.5,3c-0.4,0.4-0.8,0.7-1.2,1.2
		c-0.6,0.9-1.6,1.1-2.5,1.5c-0.3,0.1-0.8,0.1-1.1,0.1c-0.2,0.8-0.4,1.5-0.7,2.2c-0.5,0.5-1.1,1.1-1.5,1.6c-1.1,0.3-2,0.7-3,1
		c-0.1,1.9-1.3,2.9-2.4,3.9c-0.7,0.2-1.2,0.4-1.7,0.5c-0.3-0.1-0.5-0.2-0.8-0.3c-0.2,2-1,3.6-2.5,4.6c-0.7,0.2-1.4,0.5-2,0.7
		c0.2,0.5,0.4,0.9,0.5,1.2c0.5,0.1,0.9,0.3,1.3,0.4C287.2,218.8,287.4,218.3,287.5,217.8z M323.6,210.4c-0.5,0.5-1.1,1.1-1.5,1.5
		c-1.3,0.5-2.5,0.8-3.8,0.6c-0.2-0.1-0.4-0.3-0.8-0.6c-0.2,0.7-0.4,1.2-0.5,1.6c-1.5,2-3.3,3-6.1,2c-0.3-0.3-0.9-0.9-1.6-1.6
		c-0.5,1.2-0.9,2.4-2.1,3.1c-2.5,0.6-2.5,0.6-4.4,0c-0.5,1.7-1.4,2.9-3.4,3.7c-0.9-0.1-2.1-0.1-3.3-0.2c-0.1,1.8-1.8,2.4-2.7,3.7
		c-0.1,1.3,1,1.5,2,1.9c0.5-0.5,1.1-1,1.6-1.6c0.6-0.8,1.4-1,2.3-1.2c0.6-0.1,1.2-0.1,1.8-0.2c0.8,0.5,1.4,1,2.2,1.5
		c0.1,0,0.4,0,0.6,0c0.1-0.2,0.3-0.4,0.4-0.7c0.7-1.6,2.5-2.4,4.2-2.3c0.9,0,1.5,0.9,2.4,0.5c0.4,0.4,0.7,0.7,1.1,1.1
		c1-2.5,2.6-3.7,6.6-3c0.2-0.5,0.3-1,0.4-1.5c1.6-2.1,3.7-2.4,6-1.7c0.5-1.5,0.5-1.5,2.1-3.1c0.6-0.2,1.1-0.4,1.7-0.6
		c-1.2-2-0.4-3.7,0.6-5.3c-1.2-1.7-1.8-3.4-0.7-5.3c-0.5-0.2-0.9-0.3-1.4-0.5c-0.5,2-1.7,3.2-3.6,3.8
		C324.4,207.5,324.1,208.9,323.6,210.4z"/>
	<path class="st7" d="M317.4,105.3l-2.2,1.9l38.2,38.1L489,11C473.1-4.6,405.8,32.4,317.4,105.3z"/>
	<path class="st7" d="M217.9,220.4l1.5-1.9l-12.7-12.7l-2.4,2.3l-9.1,9C127.2,285,66.4,356,28.1,412l-1.2,1.8l27.8,27.8L220,277.9
		C205,261.9,204.1,237.4,217.9,220.4z"/>
	<path class="st8" d="M396.7,192.5c0.1-0.2,0.2-0.3,0.3-0.5c72.1-86.7,119.6-164.4,97.5-186.5c-22.2-22.1-99.8,25.3-186.5,97.3
		l-0.5,0.3c-34.5,29-70.3,61.5-104.6,95.2l-13.4,13.2c-83.4,83.4-153.8,169-188.8,228.9c-1.2,2.1-0.9,4.7,0.8,6.4l51.6,51.6
		c1.7,1.7,4.3,2.1,6.4,0.8c59.9-34.8,145.5-105.4,228.9-188.8l13.2-13.3c33.5-34.4,66.2-70.2,94.9-104.6L396.7,192.5z M486.9,12.9
		c13.9,14-21.2,79.6-94.4,167.9l-73.3-73.5C407.6,34.3,473.1-1,487,12.9H486.9z M298.1,285.8l-12.9-12.7c-2.2-2.1-5.6-2.1-7.7,0
		c-14.1,14-36.9,13.9-50.8-0.2c-14-14.1-13.9-36.8,0.2-50.8c2.1-2.1,2.1-5.4,0-7.5c0,0,0,0,0,0l-12.7-12.7
		c34.1-32.9,66.7-62.4,96.8-87.7l74.9,74.9C360.6,219.1,331.1,251.8,298.1,285.8z M57.7,488l-45.8-45.7c3.7-6.3,7.9-12.9,12.4-19.7
		l53,53.1C70.6,480.1,64,484.3,57.7,488z M280.9,303c-69,69-138.8,128.6-194.5,166.6l-56-56c38-55.7,97.9-125.8,166.6-194.5l9.6-9.5
		l9.2,9.2c-16,20.1-12.6,49.4,7.6,65.4c16.9,13.4,40.9,13.4,57.8,0l9.2,9.2L280.9,303z"/>
</g>
<g>
	<g id="hphjPG_1_">
		<g>
			<path d="M277.5,171.2l-1.1-1.1c-2.5,0.7-4.9,1.3-7.4,2c0,0,0-0.1-0.1-0.1l14.4-14.4l-6.3-6.3L250.5,178l6.3,6.3l12-12
				c0,0.2,0,0.4-0.1,0.6c-1.6,6-3.1,12-4.7,18c-0.1,0.4-0.1,0.6,0.2,0.9c2,2,4,4,5.9,5.9c0.1,0.1,0.2,0.2,0.4,0.4
				C272.9,189.1,275.2,180.2,277.5,171.2z"/>
			<path d="M289.7,183.4c2.1,2.1,4.2,4.2,6.3,6.3c-5.6,5.6-11.2,11.2-16.9,16.9c-2.1-2.1-4.2-4.2-6.3-6.3
				C278.4,194.7,284,189.1,289.7,183.4z"/>
			<path d="M336.8,230.6c-5.6,5.6-11.2,11.2-16.9,16.9c-2.1-2.1-4.2-4.2-6.3-6.3c5.6-5.6,11.2-11.2,16.9-16.9
				C332.6,226.4,334.7,228.5,336.8,230.6z"/>
			<path d="M290.3,219c3-8.7,5.9-17.4,8.9-26.2c0.2,0.2,0.3,0.3,0.4,0.4c1.8,1.8,3.6,3.6,5.5,5.5c0.3,0.3,0.3,0.5,0.2,0.8
				c-1.7,5.2-3.3,10.4-5,15.7c-0.1,0.2-0.3,0.5-0.5,0.6c-3.1,1.1-6.1,2.1-9.2,3.1C290.5,219,290.4,219,290.3,219z"/>
			<path d="M309.5,203.2c1.9,1.9,3.6,3.7,5.5,5.4c0.6,0.6,0.7,1,0.4,1.8c-1.6,5-3.2,10-4.8,15c-0.1,0.4-0.3,0.6-0.7,0.8
				c-2.9,1-5.9,2-8.8,3c-0.1,0-0.3,0.1-0.5,0.2C303.6,220.7,306.6,212,309.5,203.2z"/>
			<path d="M324.7,217.6c1.7,1.7,1.7,4.5,0,6.2c-1.7,1.6-4.5,1.6-6.1-0.1c-1.7-1.7-1.7-4.5,0.1-6.2
				C320.3,215.8,323.1,215.9,324.7,217.6z"/>
			<path d="M296.6,182.7c-1.7-1.8-1.7-4.5,0.1-6.2c1.7-1.6,4.4-1.6,6.1,0.1c1.7,1.7,1.6,4.5-0.1,6.2
				C301,184.4,298.2,184.4,296.6,182.7z"/>
			<path d="M337.5,217.5c1.7-1.7,4.4-1.7,6.1,0c1.7,1.7,1.7,4.4,0,6.2c-1.6,1.6-4.4,1.6-6,0C335.8,221.9,335.8,219.2,337.5,217.5z"
				/>
		</g>
	</g>
	<polygon points="276.5,170.2 268.8,172.3 274.8,178.3 282.6,176.3 	"/>
</g>
</svg>
