<?xml version="1.0" encoding="utf-8"?>
<!-- Generator: Adobe Illustrator 25.0.1, SVG Export Plug-In . SVG Version: 6.00 Build 0)  -->
<svg version="1.1" id="Layer_1" xmlns="http://www.w3.org/2000/svg" xmlns:xlink="http://www.w3.org/1999/xlink" x="0px" y="0px"
	 viewBox="0 0 375 95" style="enable-background:new 0 0 375 95;" xml:space="preserve">
<style type="text/css">
	.st0{fill:#03AAF9;}
</style>
<g id="Layer_4">
	<path class="st0" d="M9.8,87.3v-6.7l9-1.3L26.7,22l-10.3-1.5v-6.3h32.2l13.7,46.2l1.8,8.8l1.5-8.8l12.7-46.2h32.3v6.5l-11,1.5
		l8.7,57.2l8.8,1.3v6.7H83.2v-6.7l8.5-1.3L87,37.2l-2.2-17.8l-3.2,14.3L66.7,88H55.8L39.2,36.5l-4.8-17l-0.8,17.7l-4.3,42.3
		l10.2,1.3v6.7L9.8,87.3z"/>
	<path class="st0" d="M180.7,88.3c-4.7,0.2-9.3-0.8-13.7-2.7c-3.5-1.7-6.5-4.2-8.7-7.3c-1.2,1.5-2.5,2.8-3.8,4
		c-1.5,1.2-3.2,2.3-4.8,3.2c-1.8,0.8-3.7,1.7-5.7,2.2c-2.2,0.5-4.3,0.8-6.5,0.8s-4.5-0.3-6.5-1c-2-0.5-3.8-1.5-5.5-2.8
		c-1.7-1.3-3-3-3.8-4.8c-1-2.2-1.5-4.5-1.5-6.8c-0.2-3.2,0.8-6.2,2.8-8.7c2-2.5,4.7-4.5,7.5-5.8c3.3-1.5,7-2.7,10.7-3.2
		c4.2-0.7,8.2-1.2,12.3-1.2v-2.8c0-1.7-0.2-3.2-0.5-4.8c-0.3-1.2-0.8-2.2-1.8-3c-1-0.8-2-1.3-3.2-1.5c-1.7-0.3-3.2-0.5-4.8-0.5
		s-3.3,0.2-5,0.3c-1.7,0.3-3.3,0.7-4.8,1c-1.5,0.3-3,0.8-4.3,1.3c-1.3,0.5-2.7,1-3.8,1.5l-3-7c1.3-1,2.7-1.8,4.2-2.3
		c2-1,4-1.7,6.2-2.3c2.5-0.8,5-1.5,7.5-1.8c2.7-0.5,5.2-0.8,7.8-0.8c3.3,0,6.7,0.3,9.8,1.2c2.5,0.7,4.8,2,6.5,3.8
		c2.3-1.7,5-3,7.8-3.8c3.2-0.8,6.3-1.3,9.7-1.3c14,0,21.5,6.5,22,19.5c0,2.2,0,4.2,0,6c0,1.5-0.2,3-0.5,4.5h-33.3
		c0.2,2.8,0.7,5.5,1.5,8.2c0.7,2,1.7,3.8,3.2,5.5c1.3,1.3,2.8,2.5,4.7,3c2,0.7,4,1,6,1c1.7,0,3.2-0.2,4.8-0.3c1.3-0.2,2.8-0.5,4.2-1
		c2.2-0.7,4.2-1.5,6.2-2.7l2.7,5.8c-1,1-2.2,1.8-3.5,2.7c-1.7,1-3.3,1.8-5.2,2.5c-2,0.8-4.2,1.5-6.3,2
		C185.3,88.2,183,88.3,180.7,88.3z M144.2,79.2c1.2,0,2.2-0.2,3.2-0.5c1-0.3,2.2-0.7,3.2-1.2s2-1,2.8-1.7c0.8-0.7,1.7-1.3,2.5-2.2
		c-0.8-2-1.5-4.2-1.8-6.5s-0.7-4.8-0.5-7.2l0,0c-2.7,0-5.5,0.2-8.2,0.8c-1.8,0.5-3.7,1.2-5.3,2.3c-1.2,0.8-2.2,2-2.8,3.3
		c-0.7,1.2-0.8,2.5-0.8,4c-0.2,2.3,0.5,4.5,2,6.3C139.7,78.5,142,79.3,144.2,79.2z M179.3,37.7c-1.3,0-2.5,0.2-3.7,0.7
		c-1.2,0.5-2.3,1.3-3,2.5c-1,1.7-1.7,3.3-2.2,5.2c-0.7,2.8-1,5.7-1,8.7h18.3c0-0.2,0-0.3,0-0.7c0-0.3,0-0.5,0-0.8c0-0.3,0-0.7,0-1
		v-0.7c0-1.7-0.2-3.3-0.3-5c-0.2-1.5-0.7-3-1.3-4.5c-0.7-1.3-1.5-2.3-2.7-3.2C182.3,38,180.8,37.7,179.3,37.7L179.3,37.7z"/>
	<path class="st0" d="M208,87.3v-5.7l6.2-1.2l16-21l-15.3-19.7l-5.7-1.3v-6.2h30.5v6.2l-6.7,1.3l7.3,9.8l3.3,5l2.2-4.7l7.7-10
		l-6.7-1.3v-6.2h22.3v6.2l-6,1.3l-14.8,19.3l16.5,21.2l5.3,1.2v5.7h-30.5v-5.7l6.2-1.2l-8-11.3l-3-4.7l-2.3,5l-7.7,11.2l7.2,1.2v5.7
		L208,87.3z"/>
	<path class="st0" d="M273.8,72.7c0-2.2,0.5-4.3,1.3-6.3c0.8-1.8,2.2-3.5,3.7-4.8c1.7-1.5,3.5-2.7,5.5-3.5c2.2-1,4.5-1.8,7-2.3
		c2.5-0.7,5.2-1.2,7.7-1.3c2.7-0.3,5.3-0.5,8-0.5v-2.3c0-3.7-0.8-6.3-2.3-7.8c-1.5-1.5-4.2-2.3-7.8-2.3c-1.8,0-3.7,0.2-5.5,0.3
		c-1.8,0.3-3.7,0.7-5.3,1c-1.7,0.3-3.2,0.8-4.7,1.3c-1.5,0.5-2.7,1-3.7,1.3l0,0l-3-6.5c1.2-0.8,2.3-1.5,3.7-2.2c2-1,4-1.8,6.2-2.7
		c2.7-0.8,5.2-1.7,7.8-2.2c3-0.7,6-1,9-0.8c3.2,0,6.5,0.3,9.7,1.2c2.3,0.7,4.7,1.8,6.5,3.5c1.7,1.7,3,3.8,3.7,6.2
		c0.8,2.8,1.2,5.7,1.2,8.7v30h6.3v5.8l-2.3,0.5c-1,0.2-2,0.3-3.2,0.5s-2.3,0.3-3.7,0.5s-2.7,0.2-4,0.2c-1,0-2.2,0-3.2-0.2
		c-0.7,0-1.5-0.3-2-0.7s-1-0.8-1.2-1.5c-0.3-0.8-0.3-1.8-0.3-2.7v-2.8c-0.7,0.8-1.5,1.7-2.3,2.5c-1.2,1-2.3,1.8-3.7,2.5
		c-1.7,0.8-3.3,1.5-5,2c-2,0.5-4,0.8-6,0.8c-2.3,0-4.5-0.3-6.8-1c-2-0.5-3.8-1.5-5.5-2.8c-1.7-1.3-2.8-3-3.7-4.8
		C274.2,77.5,273.8,75.2,273.8,72.7z M298,79.2c0.7,0,1.3-0.2,2-0.2c0.8-0.2,1.7-0.3,2.5-0.7c0.8-0.3,1.7-0.7,2.5-1
		c0.8-0.3,1.5-0.8,2.2-1.3V60.2c-2.8,0-5.7,0.2-8.3,0.8c-1.8,0.5-3.7,1.2-5.3,2.3c-1.2,0.8-2.2,2-2.8,3.3c-0.5,1.3-0.8,2.7-0.8,4
		c-0.2,2.3,0.5,4.7,2,6.5C293.7,78.5,295.8,79.3,298,79.2z"/>
	<path class="st0" d="M333.2,87.3v-6.5l7.3-1V15.7l-7.7-1.2V8.8l20-2.3h0.2l3.2,2.3v71l7.7,1v6.5C363.8,87.3,333.2,87.3,333.2,87.3z
		"/>
</g>
</svg>
