<?xml version="1.0" encoding="utf-8"?>
<!-- Generator: Adobe Illustrator 25.0.1, SVG Export Plug-In . SVG Version: 6.00 Build 0)  -->
<svg version="1.1" id="Layer_1" xmlns="http://www.w3.org/2000/svg" xmlns:xlink="http://www.w3.org/1999/xlink" x="0px" y="0px"
	 viewBox="0 0 375 95" style="enable-background:new 0 0 375 95;" xml:space="preserve">
<style type="text/css">
	.st0{fill:none;stroke:#03AAF9;stroke-width:0.75;stroke-miterlimit:10;}
</style>
<g id="Layer_4">
	<polygon class="st0" points="10.5,87.2 10.5,80.7 19.3,79.3 27.2,22 17,20.5 17,14 49.2,14 62.7,60.2 64.5,69.2 66,60.2 78.5,14 
		111,14 111,20.5 99.8,22 108.8,79.2 117.5,80.7 117.5,87.2 83.8,87.2 83.8,80.7 92.3,79.3 87.7,37.2 85.5,19.2 82.2,33.5 
		67.2,87.8 56.5,87.8 39.7,36.5 35,19.3 34,37.2 29.8,79.3 40,80.7 40,87.2 	"/>
	<path class="st0" d="M181.3,88.3c-4.7,0.2-9.3-0.8-13.7-2.7c-3.5-1.7-6.5-4.2-8.7-7.3c-1.2,1.5-2.5,2.8-3.8,4
		c-1.5,1.2-3.2,2.3-4.8,3.2c-1.8,0.8-3.7,1.7-5.7,2.2c-2.2,0.5-4.3,0.8-6.5,0.8s-4.5-0.3-6.5-1c-2-0.5-3.8-1.5-5.5-2.8
		c-1.7-1.3-3-3-3.8-4.8c-1-2.2-1.5-4.5-1.5-6.8c0-3.2,1-6.2,2.8-8.7c2-2.5,4.7-4.3,7.5-5.7c3.3-1.5,7-2.7,10.7-3.2
		c4.2-0.7,8.2-1.2,12.3-1.2v-2.8c0-1.7-0.2-3.2-0.5-4.8c-0.3-1.2-0.8-2.2-1.8-3c-1-0.8-2-1.3-3.2-1.5c-1.7-0.3-3.3-0.5-5-0.5
		c-1.7,0-3.3,0.2-5,0.3c-1.7,0.3-3.3,0.7-4.8,1c-1.5,0.3-3,0.8-4.5,1.3c-1.5,0.5-2.7,1-3.8,1.5l-3-7c1.3-0.8,2.7-1.7,4.2-2.3
		c2-1,4-1.8,6.2-2.5c2.5-0.8,5-1.5,7.5-2c2.7-0.5,5.2-0.8,7.8-0.8c3.3,0,6.7,0.3,9.8,1.2c2.5,0.7,4.8,2,6.5,4c2.3-1.7,5-3,7.8-3.8
		c3.2-0.8,6.3-1.3,9.7-1.3c14,0,21.5,6.5,22,19.5c0,2.2,0,4.2,0,6c0,1.5-0.2,3-0.5,4.5h-33.3c0.2,2.8,0.7,5.5,1.5,8.2
		c0.7,2,1.8,3.8,3.2,5.5c1.3,1.3,2.8,2.5,4.7,3c2,0.7,4,1,6,1c1.7,0,3.2-0.2,4.8-0.3c1.3-0.2,2.8-0.5,4.2-1c2.2-0.7,4.2-1.5,6.2-2.7
		l2.7,5.8c-1.2,1-2.3,1.8-3.5,2.5c-1.7,1-3.3,1.8-5.2,2.5c-2,0.8-4.2,1.5-6.3,2C186,88,183.7,88.2,181.3,88.3z"/>
	<path class="st0" d="M144.8,79c1.2,0,2.2-0.2,3.2-0.5c1-0.3,2.2-0.7,3-1.2c1-0.5,2-1,2.8-1.7c0.8-0.7,1.7-1.3,2.3-2
		c-0.8-2-1.5-4.2-1.8-6.5s-0.7-4.8-0.5-7.2l0,0c-2.7,0-5.5,0.2-8.2,0.8c-1.8,0.3-3.7,1.2-5.3,2.2c-1.2,0.8-2.2,2-2.8,3.3
		c-0.7,1.2-0.8,2.5-0.8,4c-0.2,2.3,0.5,4.7,2,6.5C140.3,78.3,142.5,79.2,144.8,79z"/>
	<path class="st0" d="M180,37.5c-1.3,0-2.5,0.2-3.7,0.7c-1.2,0.5-2.3,1.3-3,2.5c-1,1.7-1.7,3.3-2.2,5.2c-0.7,2.8-1,5.8-1,8.7h18.3
		c0-0.2,0-0.3,0-0.7c0-0.3,0-0.7,0-1c0-0.3,0-0.7,0-1v-0.7c0-1.7-0.2-3.3-0.3-5c-0.2-1.5-0.7-3.2-1.3-4.5c-0.7-1.3-1.5-2.3-2.7-3.2
		C183,37.8,181.5,37.5,180,37.5z"/>
	<polygon class="st0" points="208.7,87.2 208.7,81.5 214.8,80.3 230.8,59.3 215.3,39.5 209.8,38.3 209.8,32.2 240.3,32.2 
		240.3,38.2 233.7,39.5 240.8,49.3 244.2,54.3 246.5,49.5 254.2,39.5 247.5,38.2 247.5,32.2 269.8,32.2 269.8,38.2 263.8,39.5 
		249,59.2 265.5,80.3 271,81.5 271,87.2 240.5,87.2 240.5,81.5 246.8,80.3 238.7,68.8 235.7,64.2 233.3,69.2 225.7,80.3 232.8,81.5 
		232.8,87.2 	"/>
	<path class="st0" d="M274.5,72.5c0-2.2,0.5-4.3,1.3-6.2c0.8-1.8,2.2-3.5,3.7-4.8c1.7-1.5,3.5-2.7,5.7-3.5c2.2-1,4.5-1.8,7-2.3
		c2.5-0.7,5.2-1.2,7.7-1.3c2.7-0.3,5.3-0.5,8-0.5v-2.3c0-3.7-0.8-6.3-2.3-7.8c-1.5-1.5-4.2-2.3-7.8-2.3c-1.8,0-3.7,0.2-5.5,0.3
		c-1.8,0.3-3.7,0.7-5.3,1c-1.7,0.3-3.2,0.8-4.7,1.3c-1.5,0.5-2.7,1-3.7,1.3l0,0l-3-6.5c1.2-0.8,2.3-1.5,3.7-2.2c2-1,4-1.8,6-2.5
		c2.7-0.8,5.2-1.7,7.8-2.2c3-0.7,6-1,9-1c3.2,0,6.5,0.3,9.7,1.2c2.3,0.7,4.7,1.8,6.5,3.5c1.7,1.7,3,3.8,3.7,6
		c0.8,2.8,1.2,5.7,1.2,8.7v30h6.3v6l-2.3,0.5c-1,0.2-2,0.3-3.2,0.5s-2.3,0.3-3.7,0.5s-2.7,0.2-4,0.2c-1,0-2.2,0-3.2-0.2
		c-0.7,0-1.5-0.3-2-0.7s-1-0.8-1.2-1.5c-0.3-0.8-0.3-1.8-0.3-2.7v-2.5c-0.7,0.8-1.5,1.7-2.5,2.5c-1.2,1-2.3,1.8-3.7,2.5
		c-1.5,0.8-3.2,1.5-4.8,2c-2,0.5-4,0.8-6,0.8c-2.3,0-4.5-0.3-6.8-1c-2-0.5-3.8-1.5-5.5-2.8c-1.7-1.3-2.8-3-3.7-5
		C274.8,77.5,274.5,75,274.5,72.5z"/>
	<path class="st0" d="M298.7,79c0.7,0,1.3,0,2-0.2c0.8-0.2,1.7-0.3,2.5-0.7c0.8-0.3,1.7-0.7,2.5-1c0.8-0.3,1.5-0.8,2.2-1.3V60
		c-2.8,0-5.7,0.2-8.3,0.8c-1.8,0.5-3.7,1.3-5.3,2.3c-1.2,0.8-2.2,2-2.8,3.3c-0.5,1.3-0.8,2.7-0.8,4c-0.2,2.3,0.5,4.7,2,6.5
		C294.3,78.3,296.5,79.2,298.7,79z"/>
	<polygon class="st0" points="333.7,87.2 333.7,80.7 341.2,79.8 341.2,15.7 333.5,14.3 333.5,8.8 353.5,6.5 353.7,6.5 356.8,8.7 
		356.8,79.8 364.5,80.7 364.5,87.2 	"/>
</g>
</svg>
