<?xml version="1.0" encoding="utf-8"?>
<!-- Generator: Adobe Illustrator 23.0.3, SVG Export Plug-In . SVG Version: 6.00 Build 0)  -->
<svg version="1.1" id="Layer_1" xmlns="http://www.w3.org/2000/svg" xmlns:xlink="http://www.w3.org/1999/xlink" x="0px" y="0px"
	 viewBox="0 0 500 500" style="enable-background:new 0 0 500 500;" xml:space="preserve">
<style type="text/css">
	.st0{fill:#D65127;}
	.st1{fill:#FAA31B;}
	.st2{fill:#866340;}
	.st3{fill:#F26622;}
	.st4{fill:#FECF0A;}
	.st5{display:none;fill:#B28354;}
	.st6{display:none;fill:#866340;}
	.st7{fill:#B28354;}
	.st8{fill:#202020;}
</style>
<g>
	<path class="st0" d="M59.3,490.1c5.9-3.5,12.4-7.6,19.8-12.5l2.7-1.8l-57.9-57.5l-1.7,2.8c-4.9,7.4-9,13.9-12.5,19.8l-1.1,1.8
		l48.8,48.8L59.3,490.1z"/>
	<path class="st1" d="M225.8,218.6c0,0.7-0.3,1.4-0.8,1.9c-7.3,7.3-11.4,17.1-11.5,27.4c-0.1,10.2,4,20.1,11.2,27.3
		c15.1,15.1,39.5,15.1,54.6,0c1.1-1,2.9-1,4,0l14.7,14.4l1.9-1.9c31.8-32.8,61.7-65.5,88.1-96.9l1.5-1.9l-78.4-78.4l-1.9,1.5
		c-31.5,26.5-64.1,56-96.9,88.1l-1.9,1.9l14.6,14.6C225.5,217.1,225.8,217.8,225.8,218.6z"/>
	<path class="st2" d="M317.4,105.3l-2.2,1.9l77.6,77.6l1.9-2.2c73.2-88.4,110-155.7,94.4-171.5C473.4-4.6,405.9,32.3,317.4,105.3z"
		/>
	<path class="st2" d="M87.9,471.8c56-38.2,127.3-99.1,194.9-166.9l7.4-7.5l3.9-4l-12.8-12.8l-1.9,1.5c-18.9,15.2-46.5,12.3-61.7-6.6
		c-13-16.1-13-39.1,0-55.1l1.5-1.9l-12.7-12.7l-2.4,2.3l-9.1,9C127.2,285,66.4,356,28.1,412l-1.2,1.8L85.9,473L87.9,471.8z"/>
	<path class="st3" d="M23.9,418.3l-1.7,2.8c-4.9,7.4-9,13.9-12.5,19.8l-1.1,1.8l22.5,22.5l19.9-19.7L23.9,418.3z"/>
	<path class="st4" d="M311.1,110.5l-1.9,1.5c-31.5,26.5-64.1,56-96.9,88.1l-1.9,1.9l14.6,14.6c1,1,1,2.7,0,3.7c0,0,0,0,0,0
		c-7.3,7.3-11.4,17.1-11.5,27.4c-0.1,9.7,3.6,19.1,10.2,26.3l125.9-124.9L311.1,110.5z"/>
	<path class="st5" d="M312.4,178.6c0.6-0.8,0.8-1.7,1.2-2.3c0.9-1.5,2.4-2.6,4-2.7c1.3,0,2.6-0.1,3.8,0.4c0.5,0.5,1.6,1.6,1.6,1.6
		l-51.2,50.8c0,0-1.8-1.8-2.7-2.7c-0.6-0.7-1.1-1.5-1.8-2.2c-0.7-0.7-1.2-1.4-1.4-2.4c0-0.1-0.2-0.3-0.3-0.4
		c-1.7-1.3-2.2-3.3-3.1-5.1c-0.8-1.7-0.9-3.5-1.5-5.3c0.3-0.8-0.3-1.6,0-2.4c0.2-0.8,0.2-1.6,0.9-2.2c0.1-1.5,1.2-2.5,1.9-3.7
		c0.5-1,2.6-3.7,2.6-4.4c0.8-0.6,1.7-1.4,2.7-2.1c-0.5-0.5-1-1-1.6-1.5c0-0.8,0.1-1.6,0.1-2.5c0.5-0.6,1.4-1.2,1.6-2.4
		c0.1-0.6,0.9-1.1,1.5-1.8c-1.3-0.8-1.4-2.4-2-3.6c0.4-2,1.2-3.8,3.6-4.3c-0.1-1-0.2-2.1-0.3-3c0.4-0.7,0.8-1.3,1.2-1.9l0.8-0.8
		c0.6-0.4,1.1-0.8,1.8-1.2c-1-1.9-0.5-3.5,1-5c1.5-1.5,3.1-1.7,5.1-1.1c0.5-1.4,1.7-2.3,2.6-3.3c0.9,0.3,1.8-0.7,2.7,0
		c1.1-0.3,1.6,0.9,2.6,0.9c1.5-1.1,3.2-1.7,5.3-0.9c0.8,1,2.3,1.6,2.4,3.4c1.2-1,2.4-0.3,3.6-0.4c2.9,2,3.5,3.5,2.4,6.4
		c0.5,0.2,1,0.3,1.6,0.6c1.2,1,2.1,2.3,2.1,4.1c0.5,0,0.9,0.7,1.5,0.2c0.4,0.3,0.9,0.2,1.3,0.6C310.9,176.8,311.6,177.5,312.4,178.6
		 M280.4,212.7c0.2-1.2,0.7-2.3,1.6-3.1c0.9-0.8,2.1-1.3,3.5-1.1c-0.5-1.5,0.4-2.6,1.1-3.6c0.8-1.1,2.2-1.4,3.6-1.5
		c-0.1-0.6-0.1-1.1-0.2-1.5c1.8-3,2.9-3.6,4.3-3.6c0.2-0.8,0.4-1.6,0.6-2.4c1-1,1.9-1.9,3.1-3.1c0.5,0,1.2,0,2,0
		c-0.1-1.7,1.1-2.7,2.3-3.8c0.8-0.2,1.7-0.4,2.6-0.7c-0.1-1.6,0.8-2.8,1.7-3.9c-2.5-0.6-3.4-2.4-3.6-4.6c-1.3-0.2-2.6-0.3-3.4-1.4
		c-0.2,0.1-0.2,0.2-0.3,0.2c-1,0.6-2,1.3-3.2,1c-0.7-0.2-1.4-0.1-2-0.2c-0.4,1.4-0.4,1.4-1.9,2.9c-0.6,0.2-1,0.3-1.5,0.5
		c0,0.3-0.1,0.6,0.1,0.8c0.4,0.8,0.3,1.6,0.2,2.3c-0.2,0.8-0.7,1.6-1.2,2.3c-0.3,0.5-1,0.7-1.5,1c-0.2,0.1-0.5,0.2-0.9,0.3
		c0.5,0.5,0.7,0.9,1.1,1.1c1.4,1,1.3,3.6,0,5.2c-0.8,1-1.9,1.5-3,1.9c1.1,1.5,0.5,3,0,4.5c-0.3,0.3-0.6,0.7-1,1
		c-0.7,0.4-1.4,0.8-2.1,1.1c0.1,0.4,0.1,0.7,0.3,1c0.5,1.3,0.3,2.5-0.7,3.5c-0.6,0.6-1.1,1.1-1.6,1.6c-0.6,0.2-1.1,0.3-1.5,0.5
		c-0.3,0.8,0.2,1.2,0.7,1.6C279.9,212.7,280.1,212.7,280.4,212.7z M277.8,183.7c-0.6,0.6-1.1,1.2-1.7,1.6c-0.5,0.4-1.1,0.8-1.8,1.3
		c1.2,0.8,1.7,1.8,1.9,3c0.3,1.1-0.2,2.2-0.7,3.2c-0.5,1.1-1.8,1.2-2.9,2c0.3,0.1,0.5,0.1,0.5,0.1c1.5,1.5,1.6,3.2,1.4,5
		c-1.5,2.2-1.6,2.3-2.6,2.7c0.1,0.5,0.2,1,0.2,1.5c0.3,0.3,0.6,0.6,1,0.9c0.2,0,0.4,0,0.7,0c0.2-0.5,0.9-0.6,1-1.3
		c0-0.2,0.4-0.4,0.7-0.6c0.6-0.5,1.6-0.5,2-1.3c-0.5-1.4-0.3-2.6,0.1-4c0.9-0.9,1.7-2.1,3-2.2c-0.1-1.3-0.1-2.5-0.2-3.6
		c0.7-0.6,0.7-1.5,1.4-1.9c0.7-0.4,1.3-1,1.9-1.5c-0.5-0.5-0.9-0.9-1.3-1.3c-0.4-1.4-0.4-2.8,0-4.2c0.5-0.5,1-1.1,1.6-1.5
		c0.5-0.4,1.1-0.8,1.7-1.2c-0.4-0.9-0.5-1.6-0.4-2.5c0.4-2.4,3.3-4.9,5.9-3.5c0.2,0.1,0.5,0.1,0.8,0.1c0.3-1.4,0.3-1.4,2.5-3.4
		c0.4-0.1,0.8-0.1,1.3-0.2c-0.3-0.5-0.5-0.9-0.7-1.3c-2,0.8-2.9,0.7-5.2-0.8c-0.8,0.4-1.6,0.8-2.7,1.3c-0.7-0.1-1.7-0.3-2.7-0.5
		c-0.1,0.5-0.3,1-0.4,1.4c-0.9,1.1-1.8,1.9-3.1,2.1c0.8,3.6-0.1,5.6-3,6.6C277.9,181.1,277.9,182.4,277.8,183.7z"/>
	<path class="st6" d="M319.1,185.5c1.2,0.5,2,1.5,2.8,2.3c0.2,0.8,0.4,1.6,0.6,2.3c0.8,0.3,1.7,0.6,2.7,1c0.9,0.7,1.9,1.7,2.1,3.1
		c2-1,3.8-0.7,5.2,0.7c1.4,1.3,1.9,3.1,1.2,5.1c0.6,0.3,1.1,0.6,1.6,1c0.5,0.4,0.9,0.9,1.3,1.3c0.9,2,0.9,3.9-0.7,5.7
		c0.9,0.5,1,1.5,1.3,2.3c0.2,0.9,0,1.9,0,2.7c-0.6,0.6-1.1,1.1-1.6,1.6c-0.5,0.4-1,0.8-1.7,1.3c0,1.3,0.4,2.8-0.5,4.4
		c-0.3,0.3-0.9,0.9-1.4,1.4c-1.4,0.5-2.7,0.9-4.2,0.3c-0.9,1.1-1.8,2.2-2.5,3.1c-1.5,0.5-2.8,0.5-4.3,0.2c-0.1,0.2-0.3,0.4-0.4,0.7
		c-0.3,0.6-0.5,1.2-1,1.7c-0.4,0.4-1,0.7-1.5,1c-0.8,0.3-1.7,0.6-2.6,0.2c-0.3-0.1-0.7-0.1-1.1-0.1c-0.2-0.2-0.5-0.5-0.8-0.8
		c-0.2-0.2-0.5-0.5-0.8-0.8c-0.4,0.6-0.7,1.2-1.1,1.7c-0.4,0.5-0.9,0.9-1.3,1.4c-3.1,1.1-3.5,0.6-6-0.9c-0.1,0.3-0.2,0.5-0.3,0.9
		c-1.1,1.4-3,2.1-4.1,3.6c-1.1,0.2-1.6,1.3-2.6,1.7c-0.9,0.3-1.6,1.1-2.5,1.4c-1.4,0.5-2.9,0.7-4.5,0.6c-0.6-0.6-1.3-0.3-2.1-0.4
		c-1.9-0.1-3.6-1.1-5.3-1.8c-0.8-0.3-1.4-1-2.2-1.4c-0.8-0.4-1.6-0.7-2.2-1.5c-1.4-0.3-2.1-1.8-3.3-2.4c-1.3-0.7-2.2-2-3.2-3.1
		c-0.1-0.1-0.2-0.2-0.4-0.4l51.2-50.8c0,0,0,0.1,0.1,0.1c1.1,1.3,1.6,2.9,1.2,4.6c-0.4,1.6-1.2,3-2.5,4c-0.5,0.4-1.3,0.6-1.9,0.8
		C319.6,185.2,319.3,185.3,319.1,185.5c-0.2,0-0.3,0-0.5,0 M287.5,217.8c1.5-1.6,2.8-3.4,5.6-2.4c-0.1-0.1,0.1,0.1,0.4,0.4
		c0.8-1.3,0.9-3,2.7-3.4c1.3-1.1,2.7-0.4,4.1-0.3c-0.1-0.9,0.3-1.6,0.8-2.2c0.6-0.8,1.6-1.2,2.5-1.4c1.8-0.3,3.3,0.4,4.7,1.5
		c1.2-2.4,3.2-4,6.6-2.8c0.1-1.7,1.6-2.3,2.2-3.2c0.6-0.3,0.9-0.5,1.2-0.7c-0.4-2-0.6-3.8,1.1-5.1c-0.4-0.4-0.7-0.7-1-1
		c-0.1-0.8-0.3-1.6-0.4-2.4c-0.4-0.1-0.9-0.2-1.4-0.3c-1.2-0.4-2.3-0.7-2.7-2.1c-0.2-0.5-0.5-0.9-0.8-1.5c-1.1,1.3-2.3,2.1-4,1.8
		c0,0.7,0,1.3,0,1.6c-0.8,1.8-2,3-3.6,3.6c-0.3-0.1-0.4-0.2-0.6-0.3c-0.2,1-0.3,2-0.5,3c-0.4,0.4-0.8,0.7-1.2,1.2
		c-0.6,0.9-1.6,1.1-2.5,1.5c-0.3,0.1-0.8,0.1-1.1,0.1c-0.2,0.8-0.4,1.5-0.7,2.2c-0.5,0.5-1.1,1.1-1.5,1.6c-1.1,0.3-2,0.7-3,1
		c-0.1,1.9-1.3,2.9-2.4,3.9c-0.7,0.2-1.2,0.4-1.7,0.5c-0.3-0.1-0.5-0.2-0.8-0.3c-0.2,2-1,3.6-2.5,4.6c-0.7,0.2-1.4,0.5-2,0.7
		c0.2,0.5,0.4,0.9,0.5,1.2c0.5,0.1,0.9,0.3,1.3,0.4C287.2,218.8,287.4,218.3,287.5,217.8z M323.6,210.4c-0.5,0.5-1.1,1.1-1.5,1.5
		c-1.3,0.5-2.5,0.8-3.8,0.6c-0.2-0.1-0.4-0.3-0.8-0.6c-0.2,0.7-0.4,1.2-0.5,1.6c-1.5,2-3.3,3-6.1,2c-0.3-0.3-0.9-0.9-1.6-1.6
		c-0.5,1.2-0.9,2.4-2.1,3.1c-2.5,0.6-2.5,0.6-4.4,0c-0.5,1.7-1.4,2.9-3.4,3.7c-0.9-0.1-2.1-0.1-3.3-0.2c-0.1,1.8-1.8,2.4-2.7,3.7
		c-0.1,1.3,1,1.5,2,1.9c0.5-0.5,1.1-1,1.6-1.6c0.6-0.8,1.4-1,2.3-1.2c0.6-0.1,1.2-0.1,1.8-0.2c0.8,0.5,1.4,1,2.2,1.5
		c0.1,0,0.4,0,0.6,0c0.1-0.2,0.3-0.4,0.4-0.7c0.7-1.6,2.5-2.4,4.2-2.3c0.9,0,1.5,0.9,2.4,0.5c0.4,0.4,0.7,0.7,1.1,1.1
		c1-2.5,2.6-3.7,6.6-3c0.2-0.5,0.3-1,0.4-1.5c1.6-2.1,3.7-2.4,6-1.7c0.5-1.5,0.5-1.5,2.1-3.1c0.6-0.2,1.1-0.4,1.7-0.6
		c-1.2-2-0.4-3.7,0.6-5.3c-1.2-1.7-1.8-3.4-0.7-5.3c-0.5-0.2-0.9-0.3-1.4-0.5c-0.5,2-1.7,3.2-3.6,3.8
		C324.4,207.5,324.1,208.9,323.6,210.4z"/>
	<path class="st7" d="M317.4,105.3l-2.2,1.9l38.2,38.1L489,11C473.1-4.6,405.8,32.4,317.4,105.3z"/>
	<path class="st7" d="M217.9,220.4l1.5-1.9l-12.7-12.7l-2.4,2.3l-9.1,9C127.2,285,66.4,356,28.1,412l-1.2,1.8l27.8,27.8L220,277.9
		C205,261.9,204.1,237.4,217.9,220.4z"/>
	<path class="st8" d="M396.7,192.5c0.1-0.2,0.2-0.3,0.3-0.5c72.1-86.7,119.6-164.4,97.5-186.5c-22.2-22.1-99.8,25.3-186.5,97.3
		l-0.5,0.3c-34.5,29-70.3,61.5-104.6,95.2l-13.4,13.2c-83.4,83.4-153.8,169-188.8,228.9c-1.2,2.1-0.9,4.7,0.8,6.4l51.6,51.6
		c1.7,1.7,4.3,2.1,6.4,0.8c59.9-34.8,145.5-105.4,228.9-188.8l13.2-13.3c33.5-34.4,66.2-70.2,94.9-104.6L396.7,192.5z M486.9,12.9
		c13.9,14-21.2,79.6-94.4,167.9l-73.3-73.5C407.6,34.3,473.1-1,487,12.9H486.9z M298.1,285.8l-12.9-12.7c-2.2-2.1-5.6-2.1-7.7,0
		c-14.1,14-36.9,13.9-50.8-0.2c-14-14.1-13.9-36.8,0.2-50.8c2.1-2.1,2.1-5.4,0-7.5c0,0,0,0,0,0l-12.7-12.7
		c34.1-32.9,66.7-62.4,96.8-87.7l74.9,74.9C360.6,219.1,331.1,251.8,298.1,285.8z M57.7,488l-45.8-45.7c3.7-6.3,7.9-12.9,12.4-19.7
		l53,53.1C70.6,480.1,64,484.3,57.7,488z M280.9,303c-69,69-138.8,128.6-194.5,166.6l-56-56c38-55.7,97.9-125.8,166.6-194.5l9.6-9.5
		l9.2,9.2c-16,20.1-12.6,49.4,7.6,65.4c16.9,13.4,40.9,13.4,57.8,0l9.2,9.2L280.9,303z"/>
</g>
<g>
	<path class="st0" d="M259.8,247.1c1-0.6,2.1-1.3,3.4-2.1l0.5-0.3l-10-9.9l-0.3,0.5c-0.8,1.3-1.5,2.4-2.1,3.4l-0.2,0.3l8.4,8.4
		L259.8,247.1z"/>
	<path class="st1" d="M288.5,200.3c0,0.1,0,0.2-0.1,0.3c-1.3,1.2-2,3-2,4.7c0,1.8,0.7,3.5,1.9,4.7c2.6,2.6,6.8,2.6,9.4,0
		c0.2-0.2,0.5-0.2,0.7,0l2.5,2.5l0.3-0.3c5.5-5.7,10.6-11.3,15.2-16.7l0.3-0.3l-13.5-13.5l-0.3,0.3c-5.4,4.6-11,9.7-16.7,15.2
		l-0.3,0.3l2.5,2.5C288.5,200.1,288.5,200.2,288.5,200.3z"/>
	<path class="st2" d="M304.3,180.8l-0.4,0.3l13.4,13.4l0.3-0.4c12.6-15.2,18.9-26.8,16.3-29.5C331.2,161.9,319.5,168.2,304.3,180.8z
		"/>
	<path class="st2" d="M264.8,244c9.7-6.6,21.9-17.1,33.6-28.8l1.3-1.3l0.7-0.7l-2.2-2.2l-0.3,0.3c-3.2,2.6-8,2.1-10.6-1.1
		c-2.2-2.8-2.2-6.7,0-9.5l0.3-0.3l-2.2-2.2l-0.4,0.4l-1.6,1.6c-11.7,11.7-22.2,23.9-28.8,33.6l-0.2,0.3l10.2,10.2L264.8,244z"/>
	<path class="st3" d="M253.7,234.8l-0.3,0.5c-0.8,1.3-1.5,2.4-2.1,3.4l-0.2,0.3l3.9,3.9l3.4-3.4L253.7,234.8z"/>
	<path class="st4" d="M303.2,181.7l-0.3,0.3c-5.4,4.6-11,9.7-16.7,15.2l-0.3,0.3l2.5,2.5c0.2,0.2,0.2,0.5,0,0.6c0,0,0,0,0,0
		c-1.3,1.2-2,3-2,4.7c0,1.7,0.6,3.3,1.8,4.5l21.7-21.5L303.2,181.7z"/>
	<path class="st5" d="M307.7,189.4c0.1-0.1,0.1-0.3,0.2-0.3c0.1-0.2,0.4-0.4,0.6-0.4c0.2,0,0.4,0,0.6,0.1c0.1,0.1,0.2,0.2,0.2,0.2
		l-7.7,7.6c0,0-0.3-0.3-0.4-0.4c-0.1-0.1-0.2-0.2-0.3-0.3c-0.1-0.1-0.2-0.2-0.2-0.4c0,0,0,0,0-0.1c-0.2-0.2-0.3-0.5-0.5-0.8
		c-0.1-0.2-0.1-0.5-0.2-0.8c0.1-0.1,0-0.2,0-0.4c0-0.1,0-0.2,0.1-0.3c0-0.2,0.2-0.4,0.3-0.6c0.1-0.2,0.4-0.5,0.4-0.7
		c0.1-0.1,0.3-0.2,0.4-0.3c-0.1-0.1-0.2-0.2-0.2-0.2c0-0.1,0-0.2,0-0.4c0.1-0.1,0.2-0.2,0.2-0.4c0-0.1,0.1-0.2,0.2-0.3
		c-0.2-0.1-0.2-0.4-0.3-0.5c0.1-0.3,0.2-0.6,0.5-0.6c0-0.2,0-0.3,0-0.5c0.1-0.1,0.1-0.2,0.2-0.3l0.1-0.1c0.1-0.1,0.2-0.1,0.3-0.2
		c-0.2-0.3-0.1-0.5,0.1-0.7c0.2-0.2,0.5-0.3,0.8-0.2c0.1-0.2,0.2-0.3,0.4-0.5c0.1,0,0.3-0.1,0.4,0c0.2,0,0.2,0.1,0.4,0.1
		c0.2-0.2,0.5-0.2,0.8-0.1c0.1,0.1,0.3,0.2,0.4,0.5c0.2-0.2,0.4,0,0.5-0.1c0.4,0.3,0.5,0.5,0.4,1c0.1,0,0.1,0.1,0.2,0.1
		c0.2,0.2,0.3,0.3,0.3,0.6c0.1,0,0.1,0.1,0.2,0c0.1,0,0.1,0,0.2,0.1C307.4,189.2,307.5,189.3,307.7,189.4 M302.9,194.6
		c0-0.2,0.1-0.3,0.2-0.5c0.1-0.1,0.3-0.2,0.5-0.2c-0.1-0.2,0.1-0.4,0.2-0.5c0.1-0.2,0.3-0.2,0.5-0.2c0-0.1,0-0.2,0-0.2
		c0.3-0.4,0.4-0.5,0.7-0.5c0-0.1,0.1-0.2,0.1-0.4c0.1-0.1,0.3-0.3,0.5-0.5c0.1,0,0.2,0,0.3,0c0-0.3,0.2-0.4,0.3-0.6
		c0.1,0,0.3-0.1,0.4-0.1c0-0.2,0.1-0.4,0.3-0.6c-0.4-0.1-0.5-0.4-0.5-0.7c-0.2,0-0.4,0-0.5-0.2c0,0,0,0-0.1,0
		c-0.1,0.1-0.3,0.2-0.5,0.2c-0.1,0-0.2,0-0.3,0c-0.1,0.2-0.1,0.2-0.3,0.4c-0.1,0-0.2,0-0.2,0.1c0,0,0,0.1,0,0.1c0.1,0.1,0,0.2,0,0.3
		c0,0.1-0.1,0.2-0.2,0.3c-0.1,0.1-0.1,0.1-0.2,0.2c0,0-0.1,0-0.1,0.1c0.1,0.1,0.1,0.1,0.2,0.2c0.2,0.1,0.2,0.5,0,0.8
		c-0.1,0.1-0.3,0.2-0.4,0.3c0.2,0.2,0.1,0.4,0,0.7c0,0-0.1,0.1-0.2,0.1c-0.1,0.1-0.2,0.1-0.3,0.2c0,0.1,0,0.1,0,0.1
		c0.1,0.2,0,0.4-0.1,0.5c-0.1,0.1-0.2,0.2-0.2,0.2c-0.1,0-0.2,0.1-0.2,0.1c-0.1,0.1,0,0.2,0.1,0.2
		C302.8,194.6,302.8,194.6,302.9,194.6z M302.5,190.2c-0.1,0.1-0.2,0.2-0.2,0.2c-0.1,0.1-0.2,0.1-0.3,0.2c0.2,0.1,0.2,0.3,0.3,0.4
		c0,0.2,0,0.3-0.1,0.5c-0.1,0.2-0.3,0.2-0.4,0.3c0.1,0,0.1,0,0.1,0c0.2,0.2,0.2,0.5,0.2,0.7c-0.2,0.3-0.2,0.3-0.4,0.4
		c0,0.1,0,0.1,0,0.2c0,0,0.1,0.1,0.1,0.1c0,0,0.1,0,0.1,0c0-0.1,0.1-0.1,0.2-0.2c0,0,0.1-0.1,0.1-0.1c0.1-0.1,0.2-0.1,0.3-0.2
		c-0.1-0.2-0.1-0.4,0-0.6c0.1-0.1,0.2-0.3,0.4-0.3c0-0.2,0-0.4,0-0.5c0.1-0.1,0.1-0.2,0.2-0.3c0.1-0.1,0.2-0.1,0.3-0.2
		c-0.1-0.1-0.1-0.1-0.2-0.2c-0.1-0.2-0.1-0.4,0-0.6c0.1-0.1,0.1-0.2,0.2-0.2c0.1-0.1,0.2-0.1,0.3-0.2c-0.1-0.1-0.1-0.2-0.1-0.4
		c0.1-0.4,0.5-0.7,0.9-0.5c0,0,0.1,0,0.1,0c0.1-0.2,0.1-0.2,0.4-0.5c0.1,0,0.1,0,0.2,0c0-0.1-0.1-0.1-0.1-0.2
		c-0.3,0.1-0.4,0.1-0.8-0.1c-0.1,0.1-0.2,0.1-0.4,0.2c-0.1,0-0.3,0-0.4-0.1c0,0.1,0,0.1-0.1,0.2c-0.1,0.2-0.3,0.3-0.5,0.3
		c0.1,0.5,0,0.8-0.4,1C302.5,189.8,302.5,190,302.5,190.2z"/>
	<path class="st6" d="M308.7,190.5c0.2,0.1,0.3,0.2,0.4,0.3c0,0.1,0.1,0.2,0.1,0.3c0.1,0,0.3,0.1,0.4,0.1c0.1,0.1,0.3,0.2,0.3,0.5
		c0.3-0.1,0.6-0.1,0.8,0.1c0.2,0.2,0.3,0.5,0.2,0.8c0.1,0.1,0.2,0.1,0.2,0.2c0.1,0.1,0.1,0.1,0.2,0.2c0.1,0.3,0.1,0.6-0.1,0.9
		c0.1,0.1,0.2,0.2,0.2,0.3c0,0.1,0,0.3,0,0.4c-0.1,0.1-0.2,0.2-0.2,0.2c-0.1,0.1-0.2,0.1-0.3,0.2c0,0.2,0.1,0.4-0.1,0.7
		c-0.1,0.1-0.1,0.1-0.2,0.2c-0.2,0.1-0.4,0.1-0.6,0c-0.1,0.2-0.3,0.3-0.4,0.5c-0.2,0.1-0.4,0.1-0.6,0c0,0,0,0.1-0.1,0.1
		c0,0.1-0.1,0.2-0.1,0.2c-0.1,0.1-0.1,0.1-0.2,0.1c-0.1,0.1-0.3,0.1-0.4,0c0,0-0.1,0-0.2,0c0,0-0.1-0.1-0.1-0.1c0,0-0.1-0.1-0.1-0.1
		c-0.1,0.1-0.1,0.2-0.2,0.3c-0.1,0.1-0.1,0.1-0.2,0.2c-0.5,0.2-0.5,0.1-0.9-0.1c0,0,0,0.1,0,0.1c-0.2,0.2-0.4,0.3-0.6,0.5
		c-0.2,0-0.2,0.2-0.4,0.3c-0.1,0-0.2,0.2-0.4,0.2c-0.2,0.1-0.4,0.1-0.7,0.1c-0.1-0.1-0.2-0.1-0.3-0.1c-0.3,0-0.5-0.2-0.8-0.3
		c-0.1-0.1-0.2-0.1-0.3-0.2c-0.1-0.1-0.2-0.1-0.3-0.2c-0.2-0.1-0.3-0.3-0.5-0.4c-0.2-0.1-0.3-0.3-0.5-0.5c0,0,0,0-0.1-0.1l7.7-7.6
		c0,0,0,0,0,0c0.2,0.2,0.2,0.4,0.2,0.7c-0.1,0.2-0.2,0.4-0.4,0.6c-0.1,0.1-0.2,0.1-0.3,0.1C308.7,190.4,308.7,190.5,308.7,190.5
		C308.6,190.5,308.6,190.5,308.7,190.5 M303.9,195.3c0.2-0.2,0.4-0.5,0.8-0.4c0,0,0,0,0.1,0.1c0.1-0.2,0.1-0.5,0.4-0.5
		c0.2-0.2,0.4-0.1,0.6,0c0-0.1,0.1-0.2,0.1-0.3c0.1-0.1,0.2-0.2,0.4-0.2c0.3-0.1,0.5,0.1,0.7,0.2c0.2-0.4,0.5-0.6,1-0.4
		c0-0.3,0.2-0.4,0.3-0.5c0.1-0.1,0.1-0.1,0.2-0.1c-0.1-0.3-0.1-0.6,0.2-0.8c-0.1-0.1-0.1-0.1-0.2-0.2c0-0.1,0-0.2-0.1-0.4
		c-0.1,0-0.1,0-0.2,0c-0.2-0.1-0.3-0.1-0.4-0.3c0-0.1-0.1-0.1-0.1-0.2c-0.2,0.2-0.3,0.3-0.6,0.3c0,0.1,0,0.2,0,0.2
		c-0.1,0.3-0.3,0.4-0.5,0.5c0,0-0.1,0-0.1,0c0,0.2,0,0.3-0.1,0.4c-0.1,0.1-0.1,0.1-0.2,0.2c-0.1,0.1-0.2,0.2-0.4,0.2
		c-0.1,0-0.1,0-0.2,0c0,0.1-0.1,0.2-0.1,0.3c-0.1,0.1-0.2,0.2-0.2,0.2c-0.2,0.1-0.3,0.1-0.5,0.1c0,0.3-0.2,0.4-0.4,0.6
		c-0.1,0-0.2,0.1-0.2,0.1c0,0-0.1,0-0.1,0c0,0.3-0.1,0.5-0.4,0.7c-0.1,0-0.2,0.1-0.3,0.1c0,0.1,0.1,0.1,0.1,0.2c0.1,0,0.1,0,0.2,0.1
		C303.9,195.5,303.9,195.4,303.9,195.3z M309.3,194.2c-0.1,0.1-0.2,0.2-0.2,0.2c-0.2,0.1-0.4,0.1-0.6,0.1c0,0-0.1,0-0.1-0.1
		c0,0.1-0.1,0.2-0.1,0.2c-0.2,0.3-0.5,0.5-0.9,0.3c-0.1-0.1-0.1-0.1-0.2-0.2c-0.1,0.2-0.1,0.4-0.3,0.5c-0.4,0.1-0.4,0.1-0.7,0
		c-0.1,0.3-0.2,0.4-0.5,0.6c-0.1,0-0.3,0-0.5,0c0,0.3-0.3,0.4-0.4,0.6c0,0.2,0.2,0.2,0.3,0.3c0.1-0.1,0.2-0.2,0.2-0.2
		c0.1-0.1,0.2-0.2,0.3-0.2c0.1,0,0.2,0,0.3,0c0.1,0.1,0.2,0.1,0.3,0.2c0,0,0.1,0,0.1,0c0,0,0-0.1,0.1-0.1c0.1-0.2,0.4-0.4,0.6-0.4
		c0.1,0,0.2,0.1,0.4,0.1c0.1,0.1,0.1,0.1,0.2,0.2c0.2-0.4,0.4-0.6,1-0.5c0-0.1,0-0.2,0.1-0.2c0.2-0.3,0.6-0.4,0.9-0.3
		c0.1-0.2,0.1-0.2,0.3-0.5c0.1,0,0.2-0.1,0.2-0.1c-0.2-0.3-0.1-0.6,0.1-0.8c-0.2-0.3-0.3-0.5-0.1-0.8c-0.1,0-0.1,0-0.2-0.1
		c-0.1,0.3-0.3,0.5-0.5,0.6C309.5,193.8,309.4,194,309.3,194.2z"/>
	<path class="st7" d="M304.3,180.8l-0.4,0.3l6.6,6.6l23.4-23.1C331.1,161.9,319.5,168.3,304.3,180.8z"/>
	<path class="st7" d="M287.2,200.6l0.3-0.3l-2.2-2.2l-0.4,0.4l-1.6,1.6c-11.7,11.7-22.2,23.9-28.8,33.6l-0.2,0.3l4.8,4.8l28.5-28.2
		C284.9,207.8,284.8,203.6,287.2,200.6z"/>
	<path class="st8" d="M318,195.8C318,195.8,318,195.8,318,195.8c12.5-15,20.7-28.4,16.8-32.2c-3.8-3.8-17.2,4.4-32.1,16.8l-0.1,0.1
		c-5.9,5-12.1,10.6-18,16.4l-2.3,2.3c-14.4,14.4-26.5,29.1-32.5,39.4c-0.2,0.4-0.1,0.8,0.1,1.1l8.9,8.9c0.3,0.3,0.7,0.4,1.1,0.1
		c10.3-6,25.1-18.2,39.4-32.5l2.3-2.3C307.4,208,313,201.8,318,195.8L318,195.8z M333.5,164.9c2.4,2.4-3.7,13.7-16.3,28.9
		l-12.6-12.7C319.8,168.6,331.1,162.5,333.5,164.9L333.5,164.9z M301,211.9l-2.2-2.2c-0.4-0.4-1-0.4-1.3,0c-2.4,2.4-6.3,2.4-8.8,0
		c-2.4-2.4-2.4-6.3,0-8.8c0.4-0.4,0.4-0.9,0-1.3c0,0,0,0,0,0l-2.2-2.2c5.9-5.7,11.5-10.7,16.7-15.1l12.9,12.9
		C311.7,200.4,306.7,206.1,301,211.9z M259.6,246.8l-7.9-7.9c0.6-1.1,1.4-2.2,2.1-3.4l9.1,9.1C261.8,245.4,260.7,246.1,259.6,246.8z
		 M298,214.9c-11.9,11.9-23.9,22.2-33.5,28.7l-9.7-9.7c6.5-9.6,16.9-21.7,28.7-33.5l1.7-1.6l1.6,1.6c-2.7,3.5-2.2,8.5,1.3,11.3
		c2.9,2.3,7,2.3,10,0l1.6,1.6L298,214.9z"/>
</g>
<g>
	<path class="st0" d="M293.9,206.2c0.2-0.1,0.4-0.3,0.7-0.4l0.1-0.1l-1.9-1.9l-0.1,0.1c-0.2,0.2-0.3,0.5-0.4,0.7l0,0.1L293.9,206.2
		L293.9,206.2z"/>
	<path class="st1" d="M299.5,197.1C299.5,197.1,299.5,197.1,299.5,197.1c-0.3,0.3-0.4,0.6-0.4,1c0,0.3,0.1,0.7,0.4,0.9
		c0.5,0.5,1.3,0.5,1.8,0c0,0,0.1,0,0.1,0l0.5,0.5l0.1-0.1c1.1-1.1,2.1-2.2,3-3.3l0.1-0.1l-2.6-2.6l-0.1,0.1c-1.1,0.9-2.2,1.9-3.3,3
		l-0.1,0.1L299.5,197.1C299.5,197,299.5,197.1,299.5,197.1z"/>
	<path class="st2" d="M302.6,193.3L302.6,193.3l2.5,2.7l0.1-0.1c2.5-3,3.7-5.2,3.2-5.8C307.8,189.6,305.5,190.8,302.6,193.3z"/>
	<path class="st2" d="M294.8,205.6c1.9-1.3,4.3-3.3,6.6-5.6l0.3-0.3l0.1-0.1l-0.4-0.4l-0.1,0c-0.6,0.5-1.6,0.4-2.1-0.2
		c-0.4-0.5-0.4-1.3,0-1.9l0-0.1l-0.4-0.4l-0.1,0.1l-0.3,0.3c-2.3,2.3-4.3,4.7-5.6,6.6l0,0.1L294.8,205.6L294.8,205.6z"/>
	<path class="st3" d="M292.7,203.8L292.7,203.8c-0.2,0.3-0.4,0.6-0.5,0.8l0,0.1l0.8,0.8l0.7-0.7L292.7,203.8z"/>
	<path class="st4" d="M302.4,193.4L302.4,193.4c-1.1,0.9-2.2,1.9-3.3,3l-0.1,0.1l0.5,0.5c0,0,0,0.1,0,0.1c0,0,0,0,0,0
		c-0.2,0.2-0.4,0.6-0.4,0.9c0,0.3,0.1,0.6,0.3,0.9l4.2-4.2L302.4,193.4z"/>
	<path class="st5" d="M302.4,195.7C302.4,195.7,302.4,195.7,302.4,195.7c0.1-0.1,0.1-0.2,0.2-0.2c0,0,0.1,0,0.1,0
		c0,0,0.1,0.1,0.1,0.1l-1.7,1.7c0,0-0.1-0.1-0.1-0.1c0,0,0-0.1-0.1-0.1c0,0,0,0,0-0.1c0,0,0,0,0,0c-0.1,0-0.1-0.1-0.1-0.2
		c0-0.1,0-0.1,0-0.2c0,0,0-0.1,0-0.1c0,0,0-0.1,0-0.1c0,0,0-0.1,0.1-0.1c0,0,0.1-0.1,0.1-0.1c0,0,0.1,0,0.1-0.1c0,0,0,0-0.1-0.1
		c0,0,0-0.1,0-0.1c0,0,0,0,0.1-0.1c0,0,0,0,0-0.1c0,0,0-0.1-0.1-0.1c0-0.1,0-0.1,0.1-0.1c0,0,0-0.1,0-0.1c0,0,0,0,0-0.1l0,0
		c0,0,0,0,0.1,0c0-0.1,0-0.1,0-0.2c0,0,0.1-0.1,0.2,0c0,0,0.1-0.1,0.1-0.1c0,0,0.1,0,0.1,0c0,0,0.1,0,0.1,0c0.1,0,0.1-0.1,0.2,0
		c0,0,0.1,0.1,0.1,0.1c0,0,0.1,0,0.1,0c0.1,0.1,0.1,0.1,0.1,0.2c0,0,0,0,0.1,0c0,0,0.1,0.1,0.1,0.1c0,0,0,0,0,0
		C302.3,195.6,302.3,195.6,302.4,195.7C302.3,195.7,302.4,195.7,302.4,195.7 M301.3,196.9c0,0,0-0.1,0.1-0.1c0,0,0.1,0,0.1,0
		c0-0.1,0-0.1,0-0.1c0,0,0.1,0,0.1-0.1c0,0,0,0,0,0c0.1-0.1,0.1-0.1,0.1-0.1c0,0,0-0.1,0-0.1c0,0,0.1-0.1,0.1-0.1c0,0,0,0,0.1,0
		c0-0.1,0-0.1,0.1-0.1c0,0,0.1,0,0.1,0c0-0.1,0-0.1,0.1-0.1c-0.1,0-0.1-0.1-0.1-0.2c0,0-0.1,0-0.1,0c0,0,0,0,0,0c0,0-0.1,0-0.1,0
		c0,0,0,0-0.1,0c0,0,0,0-0.1,0.1c0,0,0,0-0.1,0c0,0,0,0,0,0c0,0,0,0.1,0,0.1c0,0,0,0.1,0,0.1c0,0,0,0,0,0c0,0,0,0,0,0c0,0,0,0,0,0
		c0,0,0,0.1,0,0.2c0,0-0.1,0-0.1,0.1c0,0.1,0,0.1,0,0.2c0,0,0,0,0,0c0,0,0,0-0.1,0c0,0,0,0,0,0c0,0,0,0.1,0,0.1
		C301.4,196.8,301.3,196.8,301.3,196.9C301.3,196.8,301.3,196.8,301.3,196.9C301.3,196.9,301.3,196.9,301.3,196.9
		C301.3,196.9,301.3,196.9,301.3,196.9z M301.2,195.9C301.2,195.9,301.2,195.9,301.2,195.9c-0.1,0.1-0.1,0.1-0.1,0.1
		c0,0,0.1,0.1,0.1,0.1c0,0,0,0.1,0,0.1c0,0-0.1,0-0.1,0.1c0,0,0,0,0,0c0.1,0,0.1,0.1,0,0.2c-0.1,0.1-0.1,0.1-0.1,0.1c0,0,0,0,0,0
		c0,0,0,0,0,0c0,0,0,0,0,0c0,0,0,0,0,0c0,0,0,0,0,0c0,0,0.1,0,0.1,0c0,0,0-0.1,0-0.1c0,0,0.1-0.1,0.1-0.1c0,0,0-0.1,0-0.1
		c0,0,0,0,0-0.1c0,0,0,0,0.1,0c0,0,0,0,0,0c0,0,0-0.1,0-0.1c0,0,0,0,0.1-0.1c0,0,0,0,0.1,0c0,0,0-0.1,0-0.1c0-0.1,0.1-0.2,0.2-0.1
		c0,0,0,0,0,0c0,0,0,0,0.1-0.1c0,0,0,0,0,0c0,0,0,0,0,0c-0.1,0-0.1,0-0.2,0c0,0-0.1,0-0.1,0c0,0-0.1,0-0.1,0c0,0,0,0,0,0
		c0,0-0.1,0.1-0.1,0.1c0,0.1,0,0.2-0.1,0.2C301.2,195.8,301.2,195.9,301.2,195.9z"/>
	<path class="st6" d="M302.6,196C302.7,196,302.7,196,302.6,196c0.1,0.1,0.1,0.1,0.1,0.2c0,0,0.1,0,0.1,0c0,0,0.1,0.1,0.1,0.1
		c0.1,0,0.1,0,0.2,0c0,0,0.1,0.1,0,0.2c0,0,0,0,0.1,0c0,0,0,0,0,0c0,0.1,0,0.1,0,0.2c0,0,0,0,0,0.1c0,0,0,0.1,0,0.1c0,0,0,0-0.1,0.1
		c0,0,0,0-0.1,0c0,0,0,0.1,0,0.1c0,0,0,0,0,0c0,0-0.1,0-0.1,0c0,0-0.1,0.1-0.1,0.1c-0.1,0-0.1,0-0.1,0c0,0,0,0,0,0c0,0,0,0,0,0.1
		c0,0,0,0-0.1,0c0,0-0.1,0-0.1,0c0,0,0,0,0,0c0,0,0,0,0,0c0,0,0,0,0,0c0,0,0,0,0,0.1c0,0,0,0,0,0c-0.1,0-0.1,0-0.2,0c0,0,0,0,0,0
		c0,0-0.1,0.1-0.1,0.1c0,0-0.1,0-0.1,0.1c0,0-0.1,0-0.1,0c0,0-0.1,0-0.1,0c0,0,0,0-0.1,0c-0.1,0-0.1,0-0.2-0.1c0,0,0,0-0.1,0
		c0,0-0.1,0-0.1,0c0,0-0.1-0.1-0.1-0.1c0,0-0.1-0.1-0.1-0.1c0,0,0,0,0,0l1.7-1.7c0,0,0,0,0,0c0,0,0.1,0.1,0,0.2
		C302.8,195.8,302.8,195.9,302.6,196C302.7,195.9,302.7,195.9,302.6,196C302.6,196,302.6,196,302.6,196
		C302.6,196,302.6,196,302.6,196 M301.6,197.1c0-0.1,0.1-0.1,0.2-0.1c0,0,0,0,0,0c0,0,0-0.1,0.1-0.1c0,0,0.1,0,0.1,0
		c0,0,0-0.1,0-0.1c0,0,0.1,0,0.1,0c0.1,0,0.1,0,0.2,0.1c0-0.1,0.1-0.1,0.2-0.1c0-0.1,0.1-0.1,0.1-0.1c0,0,0,0,0,0c0-0.1,0-0.1,0-0.2
		c0,0,0,0,0,0c0,0,0-0.1,0-0.1c0,0,0,0,0,0c0,0-0.1,0-0.1-0.1c0,0,0,0,0,0c0,0-0.1,0.1-0.1,0.1c0,0,0,0,0,0.1c0,0.1-0.1,0.1-0.1,0.1
		c0,0,0,0,0,0c0,0,0,0.1,0,0.1c0,0,0,0,0,0c0,0-0.1,0-0.1,0c0,0,0,0,0,0c0,0,0,0,0,0.1c0,0,0,0-0.1,0.1c0,0-0.1,0-0.1,0
		c0,0.1,0,0.1-0.1,0.1c0,0,0,0-0.1,0c0,0,0,0,0,0C301.6,196.9,301.6,197,301.6,197.1C301.5,197,301.5,197,301.6,197.1
		C301.5,197.1,301.5,197.1,301.6,197.1C301.5,197.1,301.5,197.1,301.6,197.1C301.6,197.1,301.6,197.1,301.6,197.1z M302.8,196.8
		C302.8,196.8,302.7,196.8,302.8,196.8c-0.1,0.1-0.1,0.1-0.2,0.1c0,0,0,0,0,0c0,0,0,0,0,0.1c-0.1,0.1-0.1,0.1-0.2,0.1
		c0,0,0,0-0.1-0.1c0,0,0,0.1-0.1,0.1c-0.1,0-0.1,0-0.1,0c0,0.1,0,0.1-0.1,0.1c0,0-0.1,0-0.1,0c0,0.1-0.1,0.1-0.1,0.1
		c0,0,0,0.1,0.1,0.1c0,0,0,0,0.1-0.1c0,0,0,0,0.1,0c0,0,0,0,0.1,0c0,0,0,0,0.1,0.1c0,0,0,0,0,0c0,0,0,0,0,0c0-0.1,0.1-0.1,0.1-0.1
		c0,0,0.1,0,0.1,0c0,0,0,0,0,0c0-0.1,0.1-0.1,0.2-0.1c0,0,0,0,0,0c0.1-0.1,0.1-0.1,0.2-0.1c0-0.1,0-0.1,0.1-0.1c0,0,0,0,0.1,0
		c0-0.1,0-0.1,0-0.2c0-0.1-0.1-0.1,0-0.2c0,0,0,0,0,0c0,0.1-0.1,0.1-0.1,0.1C302.8,196.7,302.8,196.8,302.8,196.8z"/>
	<path class="st7" d="M302.6,193.3L302.6,193.3l1.2,1.3l4.6-4.5C307.8,189.6,305.5,190.8,302.6,193.3z"/>
	<path class="st7" d="M299.2,197.1L299.2,197.1l-0.4-0.5l-0.1,0.1l-0.3,0.3c-2.3,2.3-4.3,4.7-5.6,6.6l0,0.1l0.9,0.9l5.6-5.5
		C298.8,198.5,298.8,197.7,299.2,197.1z"/>
	<path class="st8" d="M305.2,196.2C305.2,196.2,305.2,196.2,305.2,196.2c2.4-2.9,4-5.6,3.3-6.3c-0.7-0.7-3.4,0.9-6.3,3.3l0,0
		c-1.2,1-2.4,2.1-3.5,3.2l-0.5,0.4c-2.8,2.8-5.2,5.7-6.4,7.7c0,0.1,0,0.2,0,0.2l1.7,1.7c0.1,0.1,0.1,0.1,0.2,0
		c2-1.2,4.9-3.5,7.7-6.4l0.4-0.4C303.2,198.6,304.3,197.4,305.2,196.2L305.2,196.2z M308.3,190.2c0.5,0.5-0.7,2.7-3.2,5.7l-2.5-2.5
		C305.6,190.9,307.8,189.7,308.3,190.2L308.3,190.2z M301.9,199.3l-0.4-0.4c-0.1-0.1-0.2-0.1-0.3,0c-0.5,0.5-1.2,0.5-1.7,0
		c-0.5-0.5-0.5-1.2,0-1.7c0.1-0.1,0.1-0.2,0-0.3c0,0,0,0,0,0l-0.4-0.4c1.1-1.1,2.2-2.1,3.3-3l2.5,2.5
		C304,197.1,303,198.2,301.9,199.3z M293.8,206.1l-1.5-1.5c0.1-0.2,0.3-0.4,0.4-0.7l1.8,1.8C294.3,205.9,294,206,293.8,206.1z
		 M301.3,199.9c-2.3,2.3-4.7,4.3-6.5,5.6l-1.9-1.9c1.3-1.9,3.3-4.2,5.6-6.5l0.3-0.3l0.3,0.3c-0.5,0.7-0.4,1.7,0.3,2.2
		c0.6,0.5,1.4,0.5,1.9,0l0.3,0.3L301.3,199.9z"/>
</g>
<g>
	<path class="st0" d="M300.6,198c0,0,0.1,0,0.1-0.1l0,0l-0.3-0.3l0,0c0,0-0.1,0.1-0.1,0.1l0,0L300.6,198L300.6,198z"/>
	<path class="st1" d="M301.6,196.5C301.6,196.5,301.6,196.5,301.6,196.5c0,0.1-0.1,0.1-0.1,0.2c0,0.1,0,0.1,0.1,0.2
		c0.1,0.1,0.2,0.1,0.3,0c0,0,0,0,0,0l0.1,0.1l0,0c0.2-0.2,0.4-0.4,0.5-0.6l0,0l-0.5-0.5l0,0c-0.2,0.2-0.4,0.3-0.6,0.5L301.6,196.5
		L301.6,196.5C301.6,196.5,301.6,196.5,301.6,196.5z"/>
	<path class="st2" d="M302.1,195.8L302.1,195.8l0.4,0.5l0,0c0.4-0.5,0.6-0.9,0.5-1C303,195.2,302.6,195.4,302.1,195.8z"/>
	<path class="st2" d="M300.8,197.9c0.3-0.2,0.7-0.6,1.1-1l0,0l0,0l-0.1-0.1l0,0c-0.1,0.1-0.3,0.1-0.4,0c-0.1-0.1-0.1-0.2,0-0.3l0,0
		l-0.1-0.1l0,0l-0.1,0.1c-0.4,0.4-0.7,0.8-1,1.1l0,0L300.8,197.9L300.8,197.9z"/>
	<path class="st3" d="M300.4,197.6L300.4,197.6c0,0.1-0.1,0.1-0.1,0.1l0,0l0.1,0.1l0.1-0.1L300.4,197.6z"/>
	<path class="st4" d="M302.1,195.8L302.1,195.8c-0.2,0.2-0.4,0.3-0.6,0.5l0,0l0.1,0.1c0,0,0,0,0,0c0,0,0,0,0,0c0,0-0.1,0.1-0.1,0.2
		c0,0.1,0,0.1,0.1,0.2l0.7-0.7L302.1,195.8z"/>
	<path class="st5" d="M302.2,196.1C302.2,196.1,302.2,196.1,302.2,196.1C302.3,196.1,302.3,196.1,302.2,196.1
		C302.3,196.1,302.3,196.1,302.2,196.1C302.3,196.1,302.3,196.1,302.2,196.1l-0.2,0.2c0,0,0,0,0,0c0,0,0,0,0,0c0,0,0,0,0,0
		c0,0,0,0,0,0c0,0,0,0,0,0c0,0,0,0,0,0c0,0,0,0,0,0c0,0,0,0,0,0c0,0,0,0,0,0c0,0,0,0,0,0c0,0,0,0,0,0c0,0,0,0,0,0c0,0,0,0,0,0
		c0,0,0,0,0,0c0,0,0,0,0,0c0,0,0,0,0,0c0,0,0,0,0,0c0,0,0,0,0,0c0,0,0,0,0,0l0,0c0,0,0,0,0,0c0,0,0,0,0,0c0,0,0,0,0,0c0,0,0,0,0,0
		c0,0,0,0,0,0c0,0,0,0,0,0C302.1,196,302.1,196,302.2,196.1C302.2,196,302.2,196,302.2,196.1C302.2,196,302.2,196,302.2,196.1
		C302.2,196,302.2,196,302.2,196.1C302.2,196.1,302.2,196.1,302.2,196.1C302.2,196.1,302.2,196.1,302.2,196.1
		C302.2,196.1,302.2,196.1,302.2,196.1C302.2,196.1,302.2,196.1,302.2,196.1C302.2,196.1,302.2,196.1,302.2,196.1 M302.1,196.3
		C302.1,196.3,302.1,196.3,302.1,196.3C302.1,196.2,302.1,196.2,302.1,196.3C302.1,196.2,302.1,196.2,302.1,196.3
		C302.1,196.2,302.1,196.2,302.1,196.3C302.1,196.2,302.1,196.2,302.1,196.3C302.1,196.2,302.1,196.2,302.1,196.3
		C302.2,196.2,302.2,196.2,302.1,196.3c0.1-0.1,0.1-0.1,0.1-0.1c0,0,0,0,0,0c0,0,0,0,0,0c0,0,0,0,0,0c0,0,0,0,0,0c0,0,0,0,0,0
		c0,0,0,0,0,0c0,0,0,0,0,0c0,0,0,0,0,0c0,0,0,0,0,0c0,0,0,0,0,0c0,0,0,0,0,0c0,0,0,0,0,0c0,0,0,0,0,0c0,0,0,0,0,0c0,0,0,0,0,0
		c0,0,0,0,0,0c0,0,0,0,0,0C302.1,196.2,302.1,196.2,302.1,196.3C302.1,196.2,302.1,196.2,302.1,196.3
		C302.1,196.2,302.1,196.2,302.1,196.3C302.1,196.2,302.1,196.2,302.1,196.3C302.1,196.2,302.1,196.2,302.1,196.3
		C302.1,196.2,302.1,196.2,302.1,196.3C302.1,196.2,302.1,196.2,302.1,196.3C302.1,196.3,302.1,196.3,302.1,196.3
		C302.1,196.3,302.1,196.3,302.1,196.3C302.1,196.3,302.1,196.3,302.1,196.3C302.1,196.3,302.1,196.3,302.1,196.3z M302.1,196.1
		C302.1,196.1,302.1,196.1,302.1,196.1C302.1,196.1,302.1,196.1,302.1,196.1C302.1,196.1,302.1,196.1,302.1,196.1
		C302.1,196.2,302.1,196.2,302.1,196.1C302.1,196.2,302,196.2,302.1,196.1C302,196.2,302,196.2,302.1,196.1
		C302.1,196.2,302.1,196.2,302.1,196.1C302,196.2,302,196.2,302.1,196.1c0,0.1,0,0.1,0,0.1c0,0,0,0,0,0c0,0,0,0,0,0c0,0,0,0,0,0
		C302.1,196.2,302.1,196.2,302.1,196.1C302.1,196.2,302.1,196.2,302.1,196.1C302.1,196.2,302.1,196.2,302.1,196.1
		C302.1,196.2,302.1,196.2,302.1,196.1C302.1,196.2,302.1,196.2,302.1,196.1C302.1,196.2,302.1,196.2,302.1,196.1
		C302.1,196.2,302.1,196.2,302.1,196.1C302.1,196.1,302.1,196.1,302.1,196.1C302.1,196.1,302.1,196.1,302.1,196.1
		C302.1,196.1,302.1,196.1,302.1,196.1C302.1,196.1,302.1,196.1,302.1,196.1C302.1,196.1,302.1,196.1,302.1,196.1
		C302.1,196.1,302.1,196.1,302.1,196.1C302.1,196.1,302.1,196.1,302.1,196.1C302.1,196.1,302.1,196.1,302.1,196.1
		C302.2,196.1,302.2,196.1,302.1,196.1C302.2,196.1,302.2,196.1,302.1,196.1C302.1,196.1,302.1,196.1,302.1,196.1
		C302.1,196,302.1,196.1,302.1,196.1C302.1,196.1,302.1,196.1,302.1,196.1C302.1,196.1,302.1,196.1,302.1,196.1
		C302.1,196.1,302.1,196.1,302.1,196.1C302.1,196.1,302.1,196.1,302.1,196.1C302.1,196.1,302.1,196.1,302.1,196.1z"/>
	<path class="st6" d="M302.3,196.1C302.3,196.1,302.3,196.1,302.3,196.1C302.3,196.1,302.3,196.2,302.3,196.1
		C302.3,196.2,302.3,196.2,302.3,196.1C302.3,196.2,302.3,196.2,302.3,196.1C302.3,196.2,302.3,196.2,302.3,196.1
		C302.4,196.2,302.4,196.2,302.3,196.1C302.4,196.2,302.4,196.2,302.3,196.1C302.4,196.2,302.4,196.2,302.3,196.1
		c0.1,0.1,0.1,0.1,0.1,0.1c0,0,0,0,0,0c0,0,0,0,0,0c0,0,0,0,0,0c0,0,0,0,0,0c0,0,0,0,0,0c0,0,0,0,0,0c0,0,0,0,0,0c0,0,0,0,0,0
		c0,0,0,0,0,0c0,0,0,0,0,0c0,0,0,0,0,0c0,0,0,0,0,0c0,0,0,0,0,0c0,0,0,0,0,0c0,0,0,0,0,0c0,0,0,0,0,0c0,0,0,0,0,0s0,0,0,0
		c0,0,0,0,0,0c0,0,0,0,0,0c0,0,0,0,0,0c0,0,0,0,0,0c0,0,0,0,0,0c0,0,0,0,0,0c0,0,0,0,0,0c0,0,0,0,0,0c0,0,0,0,0,0c0,0,0,0,0,0
		c0,0,0,0,0,0c0,0,0,0,0,0c0,0,0,0,0,0L302.3,196.1C302.3,196.1,302.3,196.1,302.3,196.1C302.3,196.1,302.3,196.1,302.3,196.1
		C302.3,196.1,302.3,196.1,302.3,196.1C302.3,196.1,302.3,196.1,302.3,196.1C302.3,196.1,302.3,196.1,302.3,196.1
		C302.3,196.1,302.3,196.1,302.3,196.1 M302.1,196.3C302.1,196.3,302.1,196.3,302.1,196.3C302.1,196.3,302.1,196.3,302.1,196.3
		C302.2,196.3,302.2,196.3,302.1,196.3C302.2,196.3,302.2,196.3,302.1,196.3C302.2,196.3,302.2,196.3,302.1,196.3
		C302.2,196.3,302.2,196.2,302.1,196.3c0.1,0,0.1,0,0.1,0c0,0,0,0,0,0c0,0,0,0,0,0c0,0,0,0,0,0c0,0,0,0,0,0c0,0,0,0,0,0c0,0,0,0,0,0
		c0,0,0,0,0,0c0,0,0,0,0,0c0,0,0,0,0,0c0,0,0,0,0,0c0,0,0,0,0,0c0,0,0,0,0,0c0,0,0,0,0,0C302.2,196.2,302.2,196.2,302.1,196.3
		C302.2,196.2,302.2,196.2,302.1,196.3C302.2,196.2,302.2,196.2,302.1,196.3C302.2,196.2,302.2,196.2,302.1,196.3
		C302.2,196.2,302.2,196.2,302.1,196.3C302.2,196.2,302.2,196.2,302.1,196.3C302.2,196.2,302.2,196.2,302.1,196.3
		C302.2,196.3,302.1,196.3,302.1,196.3C302.1,196.3,302.1,196.3,302.1,196.3C302.1,196.3,302.1,196.3,302.1,196.3
		C302.1,196.3,302.1,196.3,302.1,196.3C302.1,196.3,302.1,196.3,302.1,196.3C302.1,196.3,302.1,196.3,302.1,196.3
		C302.1,196.3,302.1,196.3,302.1,196.3C302.1,196.3,302.1,196.3,302.1,196.3z M302.3,196.3C302.3,196.3,302.3,196.3,302.3,196.3
		C302.3,196.3,302.3,196.3,302.3,196.3C302.3,196.3,302.3,196.3,302.3,196.3C302.3,196.3,302.3,196.3,302.3,196.3
		C302.3,196.3,302.2,196.3,302.3,196.3C302.2,196.3,302.2,196.3,302.3,196.3C302.2,196.3,302.2,196.3,302.3,196.3
		c-0.1,0-0.1,0-0.1,0c0,0,0,0,0,0c0,0,0,0,0,0c0,0,0,0,0,0c0,0,0,0,0,0c0,0,0,0,0,0c0,0,0,0,0,0c0,0,0,0,0,0c0,0,0,0,0,0
		c0,0,0,0,0,0C302.2,196.3,302.2,196.3,302.3,196.3C302.2,196.3,302.2,196.3,302.3,196.3C302.2,196.3,302.2,196.3,302.3,196.3
		C302.2,196.3,302.2,196.3,302.3,196.3C302.2,196.3,302.3,196.3,302.3,196.3C302.3,196.3,302.3,196.3,302.3,196.3
		C302.3,196.3,302.3,196.3,302.3,196.3C302.3,196.3,302.3,196.3,302.3,196.3C302.3,196.3,302.3,196.3,302.3,196.3
		C302.3,196.3,302.3,196.3,302.3,196.3C302.3,196.2,302.3,196.2,302.3,196.3C302.3,196.2,302.3,196.2,302.3,196.3
		C302.3,196.2,302.3,196.2,302.3,196.3C302.3,196.2,302.3,196.3,302.3,196.3z"/>
	<path class="st7" d="M302.1,195.8L302.1,195.8l0.2,0.2l0.8-0.8C303,195.2,302.6,195.4,302.1,195.8z"/>
	<path class="st7" d="M301.6,196.5L301.6,196.5L301.6,196.5L301.6,196.5l-0.1,0c-0.4,0.4-0.7,0.8-1,1.1l0,0l0.2,0.2l1-0.9
		C301.5,196.7,301.5,196.6,301.6,196.5z"/>
	<path class="st8" d="M302.6,196.3C302.6,196.3,302.6,196.3,302.6,196.3c0.4-0.5,0.7-1,0.6-1.1c-0.1-0.1-0.6,0.1-1.1,0.6l0,0
		c-0.2,0.2-0.4,0.4-0.6,0.6l-0.1,0.1c-0.5,0.5-0.9,1-1.1,1.3c0,0,0,0,0,0l0.3,0.3c0,0,0,0,0,0c0.3-0.2,0.8-0.6,1.3-1.1l0.1-0.1
		C302.2,196.7,302.4,196.5,302.6,196.3L302.6,196.3z M303.1,195.3c0.1,0.1-0.1,0.5-0.5,1l-0.4-0.4
		C302.7,195.4,303,195.2,303.1,195.3L303.1,195.3z M302,196.9L302,196.9c-0.1-0.1-0.1-0.1-0.1-0.1c-0.1,0.1-0.2,0.1-0.3,0
		c-0.1-0.1-0.1-0.2,0-0.3c0,0,0,0,0,0c0,0,0,0,0,0l-0.1-0.1c0.2-0.2,0.4-0.4,0.6-0.5l0.4,0.4C302.4,196.5,302.2,196.7,302,196.9z
		 M300.6,198l-0.3-0.3c0,0,0-0.1,0.1-0.1l0.3,0.3C300.7,198,300.7,198,300.6,198z M301.9,197c-0.4,0.4-0.8,0.7-1.1,1l-0.3-0.3
		c0.2-0.3,0.6-0.7,1-1.1l0.1-0.1l0.1,0.1c-0.1,0.1-0.1,0.3,0,0.4c0.1,0.1,0.2,0.1,0.3,0L301.9,197L301.9,197z"/>
</g>
<g>
	<path class="st0" d="M301.8,196.6C301.8,196.6,301.8,196.6,301.8,196.6L301.8,196.6L301.8,196.6L301.8,196.6
		C301.8,196.6,301.8,196.6,301.8,196.6L301.8,196.6L301.8,196.6L301.8,196.6z"/>
	<path class="st1" d="M302,196.4C302,196.4,302,196.4,302,196.4C302,196.4,302,196.4,302,196.4C302,196.4,302,196.4,302,196.4
		C302,196.4,302,196.4,302,196.4C302,196.4,302,196.4,302,196.4L302,196.4L302,196.4c0.1,0,0.1,0,0.2,0l0,0l-0.1-0.1l0,0
		C302,196.3,302,196.3,302,196.4L302,196.4L302,196.4C302,196.4,302,196.4,302,196.4z"/>
	<path class="st2" d="M302.1,196.2L302.1,196.2L302.1,196.2L302.1,196.2c0.2,0,0.2-0.1,0.2-0.1C302.2,196.1,302.2,196.2,302.1,196.2
		z"/>
	<path class="st2" d="M301.8,196.6c0.1,0,0.1-0.1,0.2-0.2l0,0l0,0l0,0l0,0c0,0,0,0-0.1,0c0,0,0,0,0-0.1l0,0l0,0l0,0l0,0
		C301.9,196.4,301.8,196.5,301.8,196.6L301.8,196.6L301.8,196.6L301.8,196.6z"/>
	<path class="st3" d="M301.8,196.6L301.8,196.6C301.8,196.6,301.8,196.6,301.8,196.6L301.8,196.6L301.8,196.6L301.8,196.6
		L301.8,196.6z"/>
	<path class="st4" d="M302.1,196.2L302.1,196.2c0,0-0.1,0.1-0.1,0.1l0,0l0,0c0,0,0,0,0,0c0,0,0,0,0,0c0,0,0,0,0,0c0,0,0,0,0,0
		L302.1,196.2L302.1,196.2z"/>
	<path class="st5" d="M302.1,196.3C302.1,196.3,302.1,196.3,302.1,196.3C302.1,196.3,302.1,196.3,302.1,196.3
		C302.1,196.3,302.1,196.3,302.1,196.3C302.1,196.3,302.1,196.3,302.1,196.3L302.1,196.3C302,196.4,302,196.4,302.1,196.3
		C302,196.4,302,196.4,302.1,196.3C302,196.4,302,196.4,302.1,196.3C302,196.4,302,196.4,302.1,196.3
		C302,196.4,302,196.3,302.1,196.3C302,196.3,302,196.3,302.1,196.3C302,196.3,302,196.3,302.1,196.3
		C302,196.3,302,196.3,302.1,196.3C302,196.3,302,196.3,302.1,196.3C302,196.3,302,196.3,302.1,196.3
		C302,196.3,302,196.3,302.1,196.3C302,196.3,302,196.3,302.1,196.3C302,196.3,302,196.3,302.1,196.3
		C302,196.3,302,196.3,302.1,196.3C302,196.3,302,196.3,302.1,196.3C302,196.3,302,196.3,302.1,196.3
		C302,196.3,302,196.3,302.1,196.3C302,196.3,302,196.3,302.1,196.3C302,196.3,302,196.3,302.1,196.3L302.1,196.3
		C302,196.3,302,196.3,302.1,196.3C302,196.3,302,196.3,302.1,196.3C302,196.3,302,196.3,302.1,196.3
		C302,196.3,302,196.3,302.1,196.3C302,196.3,302,196.3,302.1,196.3C302,196.3,302,196.3,302.1,196.3
		C302,196.3,302,196.3,302.1,196.3C302,196.3,302,196.3,302.1,196.3C302,196.3,302,196.3,302.1,196.3
		C302.1,196.3,302.1,196.3,302.1,196.3C302.1,196.3,302.1,196.3,302.1,196.3C302.1,196.3,302.1,196.3,302.1,196.3
		C302.1,196.3,302.1,196.3,302.1,196.3C302.1,196.3,302.1,196.3,302.1,196.3C302.1,196.3,302.1,196.3,302.1,196.3 M302,196.3
		C302,196.3,302,196.3,302,196.3C302,196.3,302,196.3,302,196.3C302,196.3,302,196.3,302,196.3C302,196.3,302,196.3,302,196.3
		C302,196.3,302,196.3,302,196.3C302,196.3,302,196.3,302,196.3C302,196.3,302,196.3,302,196.3C302,196.3,302,196.3,302,196.3
		C302,196.3,302,196.3,302,196.3C302,196.3,302,196.3,302,196.3C302.1,196.3,302.1,196.3,302,196.3
		C302.1,196.3,302.1,196.3,302,196.3C302.1,196.3,302.1,196.3,302,196.3C302,196.3,302,196.3,302,196.3
		C302,196.3,302,196.3,302,196.3C302,196.3,302,196.3,302,196.3C302,196.3,302,196.3,302,196.3C302,196.3,302,196.3,302,196.3
		C302,196.3,302,196.3,302,196.3C302,196.3,302,196.3,302,196.3C302,196.3,302,196.3,302,196.3C302,196.3,302,196.3,302,196.3
		C302,196.3,302,196.3,302,196.3C302,196.3,302,196.3,302,196.3C302,196.3,302,196.3,302,196.3C302,196.3,302,196.3,302,196.3
		C302,196.3,302,196.3,302,196.3C302,196.3,302,196.3,302,196.3C302,196.3,302,196.3,302,196.3C302,196.3,302,196.3,302,196.3
		C302,196.3,302,196.3,302,196.3C302,196.3,302,196.3,302,196.3C302,196.3,302,196.3,302,196.3C302,196.3,302,196.3,302,196.3
		C302,196.3,302,196.3,302,196.3C302,196.3,302,196.3,302,196.3z M302,196.3C302,196.3,302,196.3,302,196.3
		C302,196.3,302,196.3,302,196.3C302,196.3,302,196.3,302,196.3C302,196.3,302,196.3,302,196.3C302,196.3,302,196.3,302,196.3
		C302,196.3,302,196.3,302,196.3C302,196.3,302,196.3,302,196.3C302,196.3,302,196.3,302,196.3C302,196.3,302,196.3,302,196.3
		C302,196.3,302,196.3,302,196.3C302,196.3,302,196.3,302,196.3C302,196.3,302,196.3,302,196.3C302,196.3,302,196.3,302,196.3
		C302,196.3,302,196.3,302,196.3C302,196.3,302,196.3,302,196.3C302,196.3,302,196.3,302,196.3C302,196.3,302,196.3,302,196.3
		C302,196.3,302,196.3,302,196.3C302,196.3,302,196.3,302,196.3C302,196.3,302,196.3,302,196.3C302,196.3,302,196.3,302,196.3
		C302,196.3,302,196.3,302,196.3C302,196.3,302,196.3,302,196.3C302,196.3,302,196.3,302,196.3C302,196.3,302,196.3,302,196.3
		C302,196.3,302,196.3,302,196.3C302,196.3,302,196.3,302,196.3C302,196.3,302,196.3,302,196.3C302,196.3,302,196.3,302,196.3
		C302,196.3,302,196.3,302,196.3C302,196.3,302,196.3,302,196.3C302,196.3,302,196.3,302,196.3C302,196.3,302,196.3,302,196.3
		C302,196.3,302,196.3,302,196.3C302,196.3,302,196.3,302,196.3C302,196.3,302,196.3,302,196.3z"/>
	<path class="st6" d="M302.1,196.3C302.1,196.3,302.1,196.3,302.1,196.3C302.1,196.3,302.1,196.3,302.1,196.3
		C302.1,196.3,302.1,196.3,302.1,196.3C302.1,196.3,302.1,196.3,302.1,196.3C302.1,196.3,302.1,196.3,302.1,196.3
		C302.1,196.3,302.1,196.3,302.1,196.3C302.1,196.3,302.1,196.3,302.1,196.3C302.1,196.3,302.1,196.3,302.1,196.3
		C302.1,196.3,302.1,196.3,302.1,196.3C302.1,196.3,302.1,196.3,302.1,196.3C302.1,196.3,302.1,196.3,302.1,196.3
		C302.1,196.3,302.1,196.3,302.1,196.3C302.1,196.3,302.1,196.3,302.1,196.3C302.1,196.4,302.1,196.4,302.1,196.3
		C302.1,196.4,302.1,196.4,302.1,196.3C302.1,196.4,302.1,196.4,302.1,196.3C302.1,196.4,302.1,196.4,302.1,196.3
		C302.1,196.4,302.1,196.4,302.1,196.3C302.1,196.4,302.1,196.4,302.1,196.3C302.1,196.4,302.1,196.4,302.1,196.3
		C302.1,196.4,302.1,196.4,302.1,196.3C302.1,196.4,302.1,196.4,302.1,196.3C302.1,196.4,302.1,196.4,302.1,196.3
		C302.1,196.4,302.1,196.4,302.1,196.3C302.1,196.4,302.1,196.4,302.1,196.3C302.1,196.4,302.1,196.4,302.1,196.3
		C302.1,196.4,302.1,196.4,302.1,196.3C302.1,196.4,302.1,196.4,302.1,196.3C302.1,196.4,302.1,196.4,302.1,196.3
		C302.1,196.4,302,196.4,302.1,196.3C302,196.4,302,196.4,302.1,196.3C302,196.4,302,196.4,302.1,196.3
		C302,196.4,302,196.4,302.1,196.3C302,196.4,302,196.4,302.1,196.3C302,196.4,302,196.4,302.1,196.3
		C302,196.4,302,196.4,302.1,196.3C302,196.4,302,196.4,302.1,196.3C302,196.4,302,196.4,302.1,196.3
		C302,196.4,302,196.4,302.1,196.3C302,196.4,302,196.4,302.1,196.3L302.1,196.3C302.1,196.3,302.1,196.3,302.1,196.3
		C302.1,196.3,302.1,196.3,302.1,196.3C302.1,196.3,302.1,196.3,302.1,196.3C302.1,196.3,302.1,196.3,302.1,196.3
		C302.1,196.3,302.1,196.3,302.1,196.3C302.1,196.3,302.1,196.3,302.1,196.3 M302,196.4C302,196.4,302,196.3,302,196.4
		C302,196.3,302,196.3,302,196.4C302,196.3,302,196.3,302,196.4C302,196.3,302,196.3,302,196.4C302,196.3,302,196.3,302,196.4
		C302,196.3,302.1,196.3,302,196.4C302.1,196.3,302.1,196.3,302,196.4C302.1,196.3,302.1,196.3,302,196.4
		C302.1,196.3,302.1,196.3,302,196.4C302.1,196.3,302.1,196.3,302,196.4C302.1,196.3,302.1,196.3,302,196.4
		C302.1,196.3,302.1,196.3,302,196.4C302.1,196.3,302.1,196.3,302,196.4C302.1,196.3,302.1,196.3,302,196.4
		C302.1,196.3,302.1,196.3,302,196.4C302.1,196.3,302.1,196.3,302,196.4C302.1,196.3,302.1,196.3,302,196.4
		C302.1,196.3,302.1,196.3,302,196.4C302.1,196.3,302.1,196.3,302,196.4C302.1,196.3,302.1,196.3,302,196.4
		C302.1,196.3,302.1,196.3,302,196.4C302.1,196.3,302.1,196.3,302,196.4C302.1,196.3,302,196.3,302,196.4
		C302,196.3,302,196.3,302,196.4C302,196.3,302,196.3,302,196.4C302,196.3,302,196.3,302,196.4C302,196.3,302,196.3,302,196.4
		C302,196.3,302,196.3,302,196.4C302,196.3,302,196.3,302,196.4C302,196.3,302,196.3,302,196.4C302,196.3,302,196.4,302,196.4
		C302,196.4,302,196.4,302,196.4C302,196.4,302,196.4,302,196.4C302,196.4,302,196.4,302,196.4C302,196.4,302,196.4,302,196.4z
		 M302.1,196.3C302.1,196.3,302.1,196.3,302.1,196.3C302.1,196.3,302.1,196.3,302.1,196.3C302.1,196.3,302.1,196.3,302.1,196.3
		C302.1,196.3,302.1,196.3,302.1,196.3C302.1,196.3,302.1,196.4,302.1,196.3C302.1,196.3,302.1,196.3,302.1,196.3
		C302.1,196.3,302.1,196.4,302.1,196.3C302.1,196.4,302.1,196.4,302.1,196.3C302.1,196.4,302,196.4,302.1,196.3
		C302,196.4,302,196.4,302.1,196.3C302,196.4,302,196.4,302.1,196.3C302,196.4,302,196.4,302.1,196.3
		C302,196.4,302,196.4,302.1,196.3C302,196.4,302,196.4,302.1,196.3C302,196.4,302,196.4,302.1,196.3
		C302,196.4,302.1,196.4,302.1,196.3C302.1,196.4,302.1,196.4,302.1,196.3C302.1,196.4,302.1,196.4,302.1,196.3
		C302.1,196.4,302.1,196.4,302.1,196.3C302.1,196.4,302.1,196.4,302.1,196.3C302.1,196.4,302.1,196.4,302.1,196.3
		C302.1,196.4,302.1,196.4,302.1,196.3C302.1,196.4,302.1,196.4,302.1,196.3C302.1,196.4,302.1,196.4,302.1,196.3
		C302.1,196.3,302.1,196.3,302.1,196.3C302.1,196.3,302.1,196.3,302.1,196.3C302.1,196.3,302.1,196.3,302.1,196.3
		C302.1,196.3,302.1,196.3,302.1,196.3C302.1,196.3,302.1,196.3,302.1,196.3C302.1,196.3,302.1,196.3,302.1,196.3
		C302.1,196.3,302.1,196.3,302.1,196.3z"/>
	<path class="st7" d="M302.1,196.2L302.1,196.2L302.1,196.2l0.2-0.1C302.2,196.1,302.2,196.2,302.1,196.2z"/>
	<path class="st7" d="M302,196.4L302,196.4L302,196.4L302,196.4L302,196.4c-0.1,0.1-0.2,0.1-0.2,0.2l0,0l0,0L302,196.4
		C302,196.4,301.9,196.4,302,196.4z"/>
	<path class="st8" d="M302.1,196.3C302.1,196.3,302.1,196.3,302.1,196.3c0.1-0.1,0.1-0.2,0.1-0.2S302.1,196.2,302.1,196.3
		L302.1,196.3c-0.1-0.1-0.2,0-0.2,0l0,0c-0.1,0.1-0.2,0.2-0.2,0.2c0,0,0,0,0,0l0.1,0.1c0,0,0,0,0,0c0.1,0,0.1-0.1,0.2-0.2l0,0
		C302.1,196.4,302.1,196.4,302.1,196.3L302.1,196.3z M302.2,196.1c0,0,0,0.1-0.1,0.2l-0.1-0.1C302.2,196.2,302.2,196.1,302.2,196.1
		L302.2,196.1z M302,196.4L302,196.4C302,196.4,302,196.4,302,196.4C302,196.4,302,196.4,302,196.4C302,196.4,302,196.4,302,196.4
		C302,196.4,302,196.4,302,196.4C302,196.3,302,196.3,302,196.4L302,196.4c-0.1-0.1,0-0.2,0-0.2L302,196.4
		C302.1,196.4,302.1,196.4,302,196.4z M301.8,196.6L301.8,196.6C301.8,196.6,301.8,196.6,301.8,196.6L301.8,196.6
		C301.8,196.6,301.8,196.6,301.8,196.6z M302,196.4c-0.1,0.1-0.1,0.1-0.2,0.2l-0.1-0.1C301.8,196.5,301.9,196.4,302,196.4L302,196.4
		L302,196.4C301.9,196.4,301.9,196.4,302,196.4C302,196.4,302,196.4,302,196.4L302,196.4L302,196.4z"/>
</g>
<g>
	<path class="st0" d="M302,196.4C302,196.4,302,196.4,302,196.4L302,196.4L302,196.4L302,196.4C302,196.4,302,196.4,302,196.4
		L302,196.4L302,196.4L302,196.4z"/>
	<path class="st1" d="M302,196.3C302,196.3,302,196.3,302,196.3C302,196.3,302,196.3,302,196.3C302,196.3,302,196.3,302,196.3
		C302,196.3,302,196.3,302,196.3C302,196.3,302,196.3,302,196.3L302,196.3L302,196.3C302.1,196.3,302.1,196.3,302,196.3L302,196.3
		L302,196.3L302,196.3C302,196.3,302,196.3,302,196.3L302,196.3L302,196.3C302,196.3,302,196.3,302,196.3z"/>
	<path class="st2" d="M302.1,196.3L302.1,196.3L302.1,196.3L302.1,196.3C302.1,196.3,302.1,196.3,302.1,196.3
		C302.1,196.3,302.1,196.3,302.1,196.3z"/>
	<path class="st2" d="M302,196.4C302,196.4,302,196.4,302,196.4L302,196.4L302,196.4L302,196.4L302,196.4
		C302,196.3,302,196.3,302,196.4C302,196.3,302,196.3,302,196.4L302,196.4L302,196.4L302,196.4L302,196.4
		C302,196.3,302,196.4,302,196.4L302,196.4L302,196.4L302,196.4z"/>
	<path class="st3" d="M302,196.4L302,196.4C302,196.4,302,196.4,302,196.4L302,196.4L302,196.4L302,196.4L302,196.4z"/>
	<path class="st4" d="M302.1,196.3L302.1,196.3C302,196.3,302,196.3,302.1,196.3L302.1,196.3L302.1,196.3
		C302,196.3,302,196.3,302.1,196.3C302,196.3,302,196.3,302.1,196.3C302,196.3,302,196.3,302.1,196.3
		C302,196.3,302,196.3,302.1,196.3L302.1,196.3L302.1,196.3z"/>
	<path class="st5" d="M302.1,196.3C302.1,196.3,302.1,196.3,302.1,196.3C302.1,196.3,302.1,196.3,302.1,196.3
		C302.1,196.3,302.1,196.3,302.1,196.3C302.1,196.3,302.1,196.3,302.1,196.3L302.1,196.3C302,196.3,302,196.3,302.1,196.3
		C302,196.3,302,196.3,302.1,196.3C302,196.3,302,196.3,302.1,196.3C302,196.3,302,196.3,302.1,196.3
		C302,196.3,302,196.3,302.1,196.3C302,196.3,302,196.3,302.1,196.3C302,196.3,302,196.3,302.1,196.3
		C302,196.3,302,196.3,302.1,196.3C302,196.3,302,196.3,302.1,196.3C302,196.3,302,196.3,302.1,196.3
		C302,196.3,302,196.3,302.1,196.3C302,196.3,302,196.3,302.1,196.3C302,196.3,302,196.3,302.1,196.3
		C302,196.3,302,196.3,302.1,196.3C302,196.3,302,196.3,302.1,196.3C302,196.3,302,196.3,302.1,196.3
		C302,196.3,302,196.3,302.1,196.3C302,196.3,302,196.3,302.1,196.3C302,196.3,302,196.3,302.1,196.3L302.1,196.3
		C302,196.3,302.1,196.3,302.1,196.3C302,196.3,302.1,196.3,302.1,196.3C302.1,196.3,302.1,196.3,302.1,196.3
		C302.1,196.3,302.1,196.3,302.1,196.3C302.1,196.3,302.1,196.3,302.1,196.3C302.1,196.3,302.1,196.3,302.1,196.3
		C302.1,196.3,302.1,196.3,302.1,196.3C302.1,196.3,302.1,196.3,302.1,196.3C302.1,196.3,302.1,196.3,302.1,196.3
		C302.1,196.3,302.1,196.3,302.1,196.3C302.1,196.3,302.1,196.3,302.1,196.3C302.1,196.3,302.1,196.3,302.1,196.3
		C302.1,196.3,302.1,196.3,302.1,196.3C302.1,196.3,302.1,196.3,302.1,196.3C302.1,196.3,302.1,196.3,302.1,196.3 M302.1,196.3
		C302.1,196.3,302.1,196.3,302.1,196.3C302.1,196.3,302.1,196.3,302.1,196.3C302.1,196.3,302.1,196.3,302.1,196.3
		C302.1,196.3,302.1,196.3,302.1,196.3C302.1,196.3,302.1,196.3,302.1,196.3C302.1,196.3,302.1,196.3,302.1,196.3
		C302.1,196.3,302.1,196.3,302.1,196.3C302.1,196.3,302.1,196.3,302.1,196.3C302.1,196.3,302.1,196.3,302.1,196.3
		C302.1,196.3,302.1,196.3,302.1,196.3C302.1,196.3,302.1,196.3,302.1,196.3C302.1,196.3,302.1,196.3,302.1,196.3
		C302.1,196.3,302.1,196.3,302.1,196.3C302.1,196.3,302.1,196.3,302.1,196.3C302.1,196.3,302.1,196.3,302.1,196.3
		C302.1,196.3,302.1,196.3,302.1,196.3C302.1,196.3,302.1,196.3,302.1,196.3C302.1,196.3,302.1,196.3,302.1,196.3
		C302.1,196.3,302.1,196.3,302.1,196.3C302.1,196.3,302.1,196.3,302.1,196.3C302.1,196.3,302.1,196.3,302.1,196.3
		C302.1,196.3,302.1,196.3,302.1,196.3C302.1,196.3,302.1,196.3,302.1,196.3C302.1,196.3,302.1,196.3,302.1,196.3
		C302.1,196.3,302.1,196.3,302.1,196.3C302.1,196.3,302.1,196.3,302.1,196.3C302.1,196.3,302.1,196.3,302.1,196.3
		C302.1,196.3,302.1,196.3,302.1,196.3C302.1,196.3,302.1,196.3,302.1,196.3C302.1,196.3,302.1,196.3,302.1,196.3
		C302.1,196.3,302.1,196.3,302.1,196.3C302.1,196.3,302.1,196.3,302.1,196.3C302.1,196.3,302.1,196.3,302.1,196.3
		C302.1,196.3,302.1,196.3,302.1,196.3C302.1,196.3,302.1,196.3,302.1,196.3C302.1,196.3,302.1,196.3,302.1,196.3z M302.1,196.3
		C302.1,196.3,302.1,196.3,302.1,196.3C302.1,196.3,302.1,196.3,302.1,196.3C302.1,196.3,302.1,196.3,302.1,196.3
		C302.1,196.3,302.1,196.3,302.1,196.3C302.1,196.3,302,196.3,302.1,196.3C302,196.3,302,196.3,302.1,196.3
		C302,196.3,302,196.3,302.1,196.3C302,196.3,302,196.3,302.1,196.3C302,196.3,302,196.3,302.1,196.3
		C302,196.3,302,196.3,302.1,196.3C302,196.3,302,196.3,302.1,196.3C302,196.3,302.1,196.3,302.1,196.3
		C302.1,196.3,302.1,196.3,302.1,196.3C302.1,196.3,302.1,196.3,302.1,196.3C302.1,196.3,302.1,196.3,302.1,196.3
		C302.1,196.3,302.1,196.3,302.1,196.3C302.1,196.3,302.1,196.3,302.1,196.3C302.1,196.3,302.1,196.3,302.1,196.3
		C302.1,196.3,302.1,196.3,302.1,196.3C302.1,196.3,302.1,196.3,302.1,196.3C302.1,196.3,302.1,196.3,302.1,196.3
		C302.1,196.3,302.1,196.3,302.1,196.3C302.1,196.3,302.1,196.3,302.1,196.3C302.1,196.3,302.1,196.3,302.1,196.3
		C302.1,196.3,302.1,196.3,302.1,196.3C302.1,196.3,302.1,196.3,302.1,196.3C302.1,196.3,302.1,196.3,302.1,196.3
		C302.1,196.3,302.1,196.3,302.1,196.3C302.1,196.3,302.1,196.3,302.1,196.3C302.1,196.3,302.1,196.3,302.1,196.3
		C302.1,196.3,302.1,196.3,302.1,196.3C302.1,196.3,302.1,196.3,302.1,196.3C302.1,196.3,302.1,196.3,302.1,196.3
		C302.1,196.3,302.1,196.3,302.1,196.3C302.1,196.3,302.1,196.3,302.1,196.3C302.1,196.3,302.1,196.3,302.1,196.3z"/>
	<path class="st6" d="M302.1,196.3C302.1,196.3,302.1,196.3,302.1,196.3C302.1,196.3,302.1,196.3,302.1,196.3
		C302.1,196.3,302.1,196.3,302.1,196.3C302.1,196.3,302.1,196.3,302.1,196.3C302.1,196.3,302.1,196.3,302.1,196.3
		C302.1,196.3,302.1,196.3,302.1,196.3C302.1,196.3,302.1,196.3,302.1,196.3C302.1,196.3,302.1,196.3,302.1,196.3
		C302.1,196.3,302.1,196.3,302.1,196.3C302.1,196.3,302.1,196.3,302.1,196.3C302.1,196.3,302.1,196.3,302.1,196.3
		C302.1,196.3,302.1,196.3,302.1,196.3C302.1,196.3,302.1,196.3,302.1,196.3C302.1,196.3,302.1,196.3,302.1,196.3
		C302.1,196.3,302.1,196.3,302.1,196.3C302.1,196.3,302.1,196.3,302.1,196.3C302.1,196.3,302.1,196.3,302.1,196.3
		C302.1,196.3,302.1,196.3,302.1,196.3C302.1,196.3,302.1,196.3,302.1,196.3C302.1,196.3,302.1,196.3,302.1,196.3
		C302.1,196.3,302.1,196.3,302.1,196.3C302.1,196.3,302.1,196.3,302.1,196.3C302.1,196.3,302.1,196.3,302.1,196.3
		C302.1,196.3,302.1,196.3,302.1,196.3C302.1,196.3,302.1,196.3,302.1,196.3C302.1,196.3,302.1,196.3,302.1,196.3
		C302.1,196.3,302.1,196.3,302.1,196.3C302.1,196.3,302.1,196.3,302.1,196.3C302.1,196.3,302.1,196.3,302.1,196.3
		C302.1,196.3,302.1,196.3,302.1,196.3C302.1,196.3,302.1,196.3,302.1,196.3C302.1,196.3,302.1,196.3,302.1,196.3
		C302.1,196.3,302.1,196.3,302.1,196.3C302.1,196.3,302.1,196.3,302.1,196.3C302.1,196.3,302.1,196.3,302.1,196.3
		C302.1,196.3,302.1,196.3,302.1,196.3C302.1,196.3,302.1,196.3,302.1,196.3C302.1,196.3,302.1,196.3,302.1,196.3
		C302,196.3,302,196.3,302.1,196.3C302,196.3,302,196.3,302.1,196.3L302.1,196.3C302.1,196.3,302.1,196.3,302.1,196.3
		C302.1,196.3,302.1,196.3,302.1,196.3C302.1,196.3,302.1,196.3,302.1,196.3C302.1,196.3,302.1,196.3,302.1,196.3
		C302.1,196.3,302.1,196.3,302.1,196.3C302.1,196.3,302.1,196.3,302.1,196.3 M302.1,196.3C302.1,196.3,302.1,196.3,302.1,196.3
		C302.1,196.3,302.1,196.3,302.1,196.3C302.1,196.3,302.1,196.3,302.1,196.3C302.1,196.3,302.1,196.3,302.1,196.3
		C302.1,196.3,302.1,196.3,302.1,196.3C302.1,196.3,302.1,196.3,302.1,196.3C302.1,196.3,302.1,196.3,302.1,196.3
		C302.1,196.3,302.1,196.3,302.1,196.3C302.1,196.3,302.1,196.3,302.1,196.3C302.1,196.3,302.1,196.3,302.1,196.3
		C302.1,196.3,302.1,196.3,302.1,196.3C302.1,196.3,302.1,196.3,302.1,196.3C302.1,196.3,302.1,196.3,302.1,196.3
		C302.1,196.3,302.1,196.3,302.1,196.3C302.1,196.3,302.1,196.3,302.1,196.3C302.1,196.3,302.1,196.3,302.1,196.3
		C302.1,196.3,302.1,196.3,302.1,196.3C302.1,196.3,302.1,196.3,302.1,196.3C302.1,196.3,302.1,196.3,302.1,196.3
		C302.1,196.3,302.1,196.3,302.1,196.3C302.1,196.3,302.1,196.3,302.1,196.3C302.1,196.3,302.1,196.3,302.1,196.3
		C302.1,196.3,302.1,196.3,302.1,196.3C302.1,196.3,302.1,196.3,302.1,196.3C302.1,196.3,302.1,196.3,302.1,196.3
		C302.1,196.3,302.1,196.3,302.1,196.3C302.1,196.3,302.1,196.3,302.1,196.3C302.1,196.3,302.1,196.3,302.1,196.3
		C302.1,196.3,302.1,196.3,302.1,196.3C302.1,196.3,302.1,196.3,302.1,196.3C302.1,196.3,302.1,196.3,302.1,196.3
		C302.1,196.3,302.1,196.3,302.1,196.3C302.1,196.3,302.1,196.3,302.1,196.3C302.1,196.3,302.1,196.3,302.1,196.3
		C302.1,196.3,302.1,196.3,302.1,196.3z M302.1,196.3C302.1,196.3,302.1,196.3,302.1,196.3C302.1,196.3,302.1,196.3,302.1,196.3
		C302.1,196.3,302.1,196.3,302.1,196.3C302.1,196.3,302.1,196.3,302.1,196.3C302.1,196.3,302.1,196.3,302.1,196.3
		C302.1,196.3,302.1,196.3,302.1,196.3C302.1,196.3,302.1,196.3,302.1,196.3C302.1,196.3,302.1,196.3,302.1,196.3
		C302.1,196.3,302.1,196.3,302.1,196.3C302.1,196.3,302.1,196.3,302.1,196.3C302.1,196.3,302.1,196.3,302.1,196.3
		C302.1,196.3,302.1,196.3,302.1,196.3C302.1,196.3,302.1,196.3,302.1,196.3C302.1,196.3,302.1,196.3,302.1,196.3
		C302.1,196.3,302.1,196.3,302.1,196.3C302.1,196.3,302.1,196.3,302.1,196.3C302.1,196.3,302.1,196.3,302.1,196.3
		C302.1,196.3,302.1,196.3,302.1,196.3C302.1,196.3,302.1,196.3,302.1,196.3C302.1,196.3,302.1,196.3,302.1,196.3
		C302.1,196.3,302.1,196.3,302.1,196.3C302.1,196.3,302.1,196.3,302.1,196.3C302.1,196.3,302.1,196.3,302.1,196.3
		C302.1,196.3,302.1,196.3,302.1,196.3C302.1,196.3,302.1,196.3,302.1,196.3C302.1,196.3,302.1,196.3,302.1,196.3
		C302.1,196.3,302.1,196.3,302.1,196.3C302.1,196.3,302.1,196.3,302.1,196.3C302.1,196.3,302.1,196.3,302.1,196.3
		C302.1,196.3,302.1,196.3,302.1,196.3C302.1,196.3,302.1,196.3,302.1,196.3z"/>
	<path class="st7" d="M302.1,196.3L302.1,196.3L302.1,196.3L302.1,196.3C302.1,196.3,302.1,196.3,302.1,196.3z"/>
	<path class="st7" d="M302,196.3L302,196.3L302,196.3L302,196.3L302,196.3C302,196.3,302,196.4,302,196.3L302,196.3L302,196.3
		L302,196.3C302,196.3,302,196.3,302,196.3z"/>
	<path class="st8" d="M302.1,196.3C302.1,196.3,302.1,196.3,302.1,196.3C302.1,196.3,302.1,196.3,302.1,196.3
		C302.1,196.3,302.1,196.3,302.1,196.3L302.1,196.3C302,196.3,302,196.3,302.1,196.3L302.1,196.3C302,196.3,302,196.4,302.1,196.3
		C302,196.4,302,196.4,302.1,196.3L302.1,196.3C302,196.4,302,196.4,302.1,196.3C302,196.4,302,196.4,302.1,196.3L302.1,196.3
		C302.1,196.3,302.1,196.3,302.1,196.3L302.1,196.3z M302.1,196.3C302.1,196.3,302.1,196.3,302.1,196.3L302.1,196.3
		C302.1,196.3,302.1,196.3,302.1,196.3L302.1,196.3z M302,196.3L302,196.3C302,196.3,302,196.3,302,196.3
		C302,196.3,302,196.3,302,196.3C302,196.3,302,196.3,302,196.3C302,196.3,302,196.3,302,196.3C302,196.3,302,196.3,302,196.3
		L302,196.3C302,196.3,302,196.3,302,196.3L302,196.3C302.1,196.3,302.1,196.3,302,196.3z M302,196.4L302,196.4
		C302,196.4,302,196.4,302,196.4L302,196.4C302,196.4,302,196.4,302,196.4z M302,196.3C302,196.4,302,196.4,302,196.3L302,196.3
		C302,196.4,302,196.3,302,196.3L302,196.3L302,196.3C302,196.3,302,196.3,302,196.3C302,196.3,302,196.3,302,196.3L302,196.3
		L302,196.3z"/>
</g>
<g>
	<path class="st0" d="M302,196.3C302,196.3,302,196.3,302,196.3L302,196.3L302,196.3L302,196.3C302,196.3,302,196.3,302,196.3
		L302,196.3L302,196.3L302,196.3z"/>
	<path class="st1" d="M302,196.3C302,196.3,302,196.3,302,196.3C302,196.3,302,196.3,302,196.3C302,196.3,302,196.3,302,196.3
		C302,196.3,302,196.3,302,196.3C302,196.3,302,196.3,302,196.3L302,196.3L302,196.3C302.1,196.3,302.1,196.3,302,196.3L302,196.3
		L302,196.3L302,196.3C302,196.3,302,196.3,302,196.3L302,196.3L302,196.3C302,196.3,302,196.3,302,196.3z"/>
	<path class="st2" d="M302.1,196.3L302.1,196.3L302.1,196.3L302.1,196.3C302.1,196.3,302.1,196.3,302.1,196.3
		C302.1,196.3,302.1,196.3,302.1,196.3z"/>
	<path class="st2" d="M302,196.3C302,196.3,302,196.3,302,196.3L302,196.3L302,196.3L302,196.3L302,196.3
		C302,196.3,302,196.3,302,196.3C302,196.3,302,196.3,302,196.3L302,196.3L302,196.3L302,196.3L302,196.3
		C302,196.3,302,196.3,302,196.3L302,196.3L302,196.3L302,196.3z"/>
	<path class="st3" d="M302,196.3L302,196.3C302,196.3,302,196.3,302,196.3L302,196.3L302,196.3L302,196.3L302,196.3z"/>
	<path class="st4" d="M302.1,196.3L302.1,196.3C302,196.3,302,196.3,302.1,196.3L302.1,196.3L302.1,196.3
		C302,196.3,302,196.3,302.1,196.3L302.1,196.3C302,196.3,302,196.3,302.1,196.3C302,196.3,302,196.3,302.1,196.3L302.1,196.3
		L302.1,196.3z"/>
	<path class="st5" d="M302.1,196.3C302.1,196.3,302.1,196.3,302.1,196.3C302.1,196.3,302.1,196.3,302.1,196.3
		C302.1,196.3,302.1,196.3,302.1,196.3C302.1,196.3,302.1,196.3,302.1,196.3L302.1,196.3C302,196.3,302,196.3,302.1,196.3
		C302,196.3,302,196.3,302.1,196.3C302,196.3,302,196.3,302.1,196.3C302,196.3,302,196.3,302.1,196.3
		C302,196.3,302,196.3,302.1,196.3C302,196.3,302,196.3,302.1,196.3C302,196.3,302,196.3,302.1,196.3
		C302,196.3,302,196.3,302.1,196.3C302,196.3,302,196.3,302.1,196.3C302,196.3,302,196.3,302.1,196.3
		C302,196.3,302,196.3,302.1,196.3C302,196.3,302,196.3,302.1,196.3C302,196.3,302,196.3,302.1,196.3
		C302,196.3,302,196.3,302.1,196.3C302,196.3,302,196.3,302.1,196.3C302,196.3,302,196.3,302.1,196.3
		C302,196.3,302,196.3,302.1,196.3C302,196.3,302,196.3,302.1,196.3C302,196.3,302,196.3,302.1,196.3L302.1,196.3
		C302,196.3,302,196.3,302.1,196.3C302,196.3,302,196.3,302.1,196.3C302,196.3,302,196.3,302.1,196.3
		C302,196.3,302,196.3,302.1,196.3C302,196.3,302,196.3,302.1,196.3C302,196.3,302,196.3,302.1,196.3
		C302,196.3,302,196.3,302.1,196.3C302,196.3,302,196.3,302.1,196.3C302,196.3,302,196.3,302.1,196.3
		C302.1,196.3,302.1,196.3,302.1,196.3C302.1,196.3,302.1,196.3,302.1,196.3C302.1,196.3,302.1,196.3,302.1,196.3
		C302.1,196.3,302.1,196.3,302.1,196.3C302.1,196.3,302.1,196.3,302.1,196.3C302.1,196.3,302.1,196.3,302.1,196.3 M302,196.3
		C302,196.3,302,196.3,302,196.3C302,196.3,302,196.3,302,196.3C302,196.3,302,196.3,302,196.3C302,196.3,302,196.3,302,196.3
		C302,196.3,302,196.3,302,196.3C302,196.3,302,196.3,302,196.3C302,196.3,302,196.3,302,196.3C302,196.3,302,196.3,302,196.3
		C302,196.3,302,196.3,302,196.3C302,196.3,302,196.3,302,196.3C302.1,196.3,302.1,196.3,302,196.3
		C302.1,196.3,302.1,196.3,302,196.3C302.1,196.3,302.1,196.3,302,196.3C302.1,196.3,302,196.3,302,196.3
		C302,196.3,302,196.3,302,196.3C302,196.3,302,196.3,302,196.3C302,196.3,302,196.3,302,196.3C302,196.3,302,196.3,302,196.3
		C302,196.3,302,196.3,302,196.3C302,196.3,302,196.3,302,196.3C302,196.3,302,196.3,302,196.3C302,196.3,302,196.3,302,196.3
		C302,196.3,302,196.3,302,196.3C302,196.3,302,196.3,302,196.3C302,196.3,302,196.3,302,196.3C302,196.3,302,196.3,302,196.3
		C302,196.3,302,196.3,302,196.3C302,196.3,302,196.3,302,196.3C302,196.3,302,196.3,302,196.3C302,196.3,302,196.3,302,196.3
		C302,196.3,302,196.3,302,196.3C302,196.3,302,196.3,302,196.3C302,196.3,302,196.3,302,196.3C302,196.3,302,196.3,302,196.3
		C302,196.3,302,196.3,302,196.3C302,196.3,302,196.3,302,196.3z M302,196.3C302,196.3,302,196.3,302,196.3
		C302,196.3,302,196.3,302,196.3C302,196.3,302,196.3,302,196.3C302,196.3,302,196.3,302,196.3C302,196.3,302,196.3,302,196.3
		C302,196.3,302,196.3,302,196.3C302,196.3,302,196.3,302,196.3C302,196.3,302,196.3,302,196.3C302,196.3,302,196.3,302,196.3
		C302,196.3,302,196.3,302,196.3C302,196.3,302,196.3,302,196.3C302,196.3,302,196.3,302,196.3C302,196.3,302,196.3,302,196.3
		C302,196.3,302,196.3,302,196.3C302,196.3,302,196.3,302,196.3C302,196.3,302,196.3,302,196.3C302,196.3,302,196.3,302,196.3
		C302,196.3,302,196.3,302,196.3C302,196.3,302,196.3,302,196.3C302,196.3,302,196.3,302,196.3C302,196.3,302,196.3,302,196.3
		C302,196.3,302,196.3,302,196.3C302,196.3,302,196.3,302,196.3C302,196.3,302,196.3,302,196.3C302,196.3,302,196.3,302,196.3
		C302,196.3,302,196.3,302,196.3C302,196.3,302,196.3,302,196.3C302,196.3,302,196.3,302,196.3C302,196.3,302,196.3,302,196.3
		C302,196.3,302,196.3,302,196.3C302,196.3,302,196.3,302,196.3C302,196.3,302,196.3,302,196.3C302,196.3,302,196.3,302,196.3
		C302,196.3,302,196.3,302,196.3C302,196.3,302,196.3,302,196.3C302,196.3,302,196.3,302,196.3z"/>
	<path class="st6" d="M302.1,196.3C302.1,196.3,302.1,196.3,302.1,196.3C302.1,196.3,302.1,196.3,302.1,196.3
		C302.1,196.3,302.1,196.3,302.1,196.3C302.1,196.3,302.1,196.3,302.1,196.3C302.1,196.3,302.1,196.3,302.1,196.3
		C302.1,196.3,302.1,196.3,302.1,196.3C302.1,196.3,302.1,196.3,302.1,196.3C302.1,196.3,302.1,196.3,302.1,196.3
		C302.1,196.3,302.1,196.3,302.1,196.3C302.1,196.3,302.1,196.3,302.1,196.3C302.1,196.3,302.1,196.3,302.1,196.3
		C302.1,196.3,302.1,196.3,302.1,196.3C302.1,196.3,302.1,196.3,302.1,196.3C302.1,196.3,302.1,196.3,302.1,196.3
		C302.1,196.3,302.1,196.3,302.1,196.3C302.1,196.3,302.1,196.3,302.1,196.3C302.1,196.3,302.1,196.3,302.1,196.3
		C302.1,196.3,302.1,196.3,302.1,196.3C302.1,196.3,302.1,196.3,302.1,196.3C302.1,196.3,302.1,196.3,302.1,196.3
		C302.1,196.3,302.1,196.3,302.1,196.3C302.1,196.3,302.1,196.3,302.1,196.3C302.1,196.3,302.1,196.3,302.1,196.3
		C302.1,196.3,302.1,196.3,302.1,196.3C302.1,196.3,302.1,196.3,302.1,196.3C302.1,196.3,302.1,196.3,302.1,196.3
		C302.1,196.3,302.1,196.3,302.1,196.3C302.1,196.3,302.1,196.3,302.1,196.3C302.1,196.3,302.1,196.3,302.1,196.3
		C302.1,196.3,302,196.3,302.1,196.3C302,196.3,302,196.3,302.1,196.3C302,196.3,302,196.3,302.1,196.3
		C302,196.3,302,196.3,302.1,196.3C302,196.3,302,196.3,302.1,196.3C302,196.3,302,196.3,302.1,196.3
		C302,196.3,302,196.3,302.1,196.3C302,196.3,302,196.3,302.1,196.3C302,196.3,302,196.3,302.1,196.3
		C302,196.3,302,196.3,302.1,196.3C302,196.3,302,196.3,302.1,196.3L302.1,196.3C302.1,196.3,302.1,196.3,302.1,196.3
		C302.1,196.3,302.1,196.3,302.1,196.3C302.1,196.3,302.1,196.3,302.1,196.3C302.1,196.3,302.1,196.3,302.1,196.3
		C302.1,196.3,302.1,196.3,302.1,196.3C302.1,196.3,302.1,196.3,302.1,196.3 M302,196.3C302,196.3,302,196.3,302,196.3
		C302,196.3,302,196.3,302,196.3C302,196.3,302,196.3,302,196.3C302,196.3,302,196.3,302,196.3C302,196.3,302,196.3,302,196.3
		C302.1,196.3,302.1,196.3,302,196.3C302.1,196.3,302.1,196.3,302,196.3C302.1,196.3,302.1,196.3,302,196.3
		C302.1,196.3,302.1,196.3,302,196.3C302.1,196.3,302.1,196.3,302,196.3C302.1,196.3,302.1,196.3,302,196.3
		C302.1,196.3,302.1,196.3,302,196.3C302.1,196.3,302.1,196.3,302,196.3C302.1,196.3,302.1,196.3,302,196.3
		C302.1,196.3,302.1,196.3,302,196.3C302.1,196.3,302.1,196.3,302,196.3C302.1,196.3,302.1,196.3,302,196.3
		C302.1,196.3,302.1,196.3,302,196.3C302.1,196.3,302.1,196.3,302,196.3C302.1,196.3,302.1,196.3,302,196.3
		C302.1,196.3,302.1,196.3,302,196.3C302.1,196.3,302.1,196.3,302,196.3C302.1,196.3,302.1,196.3,302,196.3
		C302,196.3,302,196.3,302,196.3C302,196.3,302,196.3,302,196.3C302,196.3,302,196.3,302,196.3C302,196.3,302,196.3,302,196.3
		C302,196.3,302,196.3,302,196.3C302,196.3,302,196.3,302,196.3C302,196.3,302,196.3,302,196.3C302,196.3,302,196.3,302,196.3
		C302,196.3,302,196.3,302,196.3C302,196.3,302,196.3,302,196.3C302,196.3,302,196.3,302,196.3C302,196.3,302,196.3,302,196.3z
		 M302.1,196.3C302.1,196.3,302.1,196.3,302.1,196.3C302.1,196.3,302.1,196.3,302.1,196.3C302.1,196.3,302.1,196.3,302.1,196.3
		C302.1,196.3,302.1,196.3,302.1,196.3C302.1,196.3,302.1,196.3,302.1,196.3C302.1,196.3,302.1,196.3,302.1,196.3
		C302.1,196.3,302.1,196.3,302.1,196.3C302.1,196.3,302.1,196.3,302.1,196.3C302.1,196.3,302,196.3,302.1,196.3
		C302,196.3,302,196.3,302.1,196.3C302,196.3,302,196.3,302.1,196.3C302,196.3,302,196.3,302.1,196.3
		C302,196.3,302,196.3,302.1,196.3C302,196.3,302,196.3,302.1,196.3C302,196.3,302,196.3,302.1,196.3
		C302.1,196.3,302.1,196.3,302.1,196.3C302.1,196.3,302.1,196.3,302.1,196.3C302.1,196.3,302.1,196.3,302.1,196.3
		C302.1,196.3,302.1,196.3,302.1,196.3C302.1,196.3,302.1,196.3,302.1,196.3C302.1,196.3,302.1,196.3,302.1,196.3
		C302.1,196.3,302.1,196.3,302.1,196.3C302.1,196.3,302.1,196.3,302.1,196.3C302.1,196.3,302.1,196.3,302.1,196.3
		C302.1,196.3,302.1,196.3,302.1,196.3C302.1,196.3,302.1,196.3,302.1,196.3C302.1,196.3,302.1,196.3,302.1,196.3
		C302.1,196.3,302.1,196.3,302.1,196.3C302.1,196.3,302.1,196.3,302.1,196.3C302.1,196.3,302.1,196.3,302.1,196.3
		C302.1,196.3,302.1,196.3,302.1,196.3z"/>
	<path class="st7" d="M302.1,196.3L302.1,196.3L302.1,196.3L302.1,196.3C302.1,196.3,302.1,196.3,302.1,196.3z"/>
	<path class="st7" d="M302,196.3L302,196.3L302,196.3L302,196.3L302,196.3C302,196.3,302,196.3,302,196.3L302,196.3L302,196.3
		L302,196.3C302,196.3,302,196.3,302,196.3z"/>
	<path class="st8" d="M302.1,196.3C302.1,196.3,302.1,196.3,302.1,196.3C302.1,196.3,302.1,196.3,302.1,196.3
		C302.1,196.3,302.1,196.3,302.1,196.3L302.1,196.3C302,196.3,302,196.3,302.1,196.3L302.1,196.3C302,196.3,302,196.3,302.1,196.3
		C302,196.3,302,196.3,302.1,196.3L302.1,196.3C302,196.3,302,196.3,302.1,196.3C302,196.3,302,196.3,302.1,196.3L302.1,196.3
		C302.1,196.3,302.1,196.3,302.1,196.3L302.1,196.3z M302.1,196.3C302.1,196.3,302.1,196.3,302.1,196.3L302.1,196.3
		C302.1,196.3,302.1,196.3,302.1,196.3L302.1,196.3z M302,196.3L302,196.3C302,196.3,302,196.3,302,196.3
		C302,196.3,302,196.3,302,196.3C302,196.3,302,196.3,302,196.3C302,196.3,302,196.3,302,196.3L302,196.3L302,196.3
		C302,196.3,302,196.3,302,196.3L302,196.3C302.1,196.3,302.1,196.3,302,196.3z M302,196.3L302,196.3C302,196.3,302,196.3,302,196.3
		L302,196.3C302,196.3,302,196.3,302,196.3z M302,196.3C302,196.3,302,196.3,302,196.3L302,196.3C302,196.3,302,196.3,302,196.3
		L302,196.3L302,196.3C302,196.3,302,196.3,302,196.3C302,196.3,302,196.3,302,196.3L302,196.3L302,196.3z"/>
</g>
<g>
	<path class="st0" d="M302,196.3C302,196.3,302,196.3,302,196.3L302,196.3L302,196.3L302,196.3C302,196.3,302,196.3,302,196.3
		L302,196.3L302,196.3L302,196.3z"/>
	<path class="st1" d="M302,196.3C302,196.3,302,196.3,302,196.3C302,196.3,302,196.3,302,196.3C302,196.3,302,196.3,302,196.3
		C302,196.3,302,196.3,302,196.3C302,196.3,302,196.3,302,196.3L302,196.3L302,196.3C302.1,196.3,302.1,196.3,302,196.3L302,196.3
		L302,196.3L302,196.3C302,196.3,302,196.3,302,196.3L302,196.3L302,196.3C302,196.3,302,196.3,302,196.3z"/>
	<path class="st2" d="M302.1,196.3L302.1,196.3L302.1,196.3L302.1,196.3C302.1,196.3,302.1,196.3,302.1,196.3
		C302.1,196.3,302.1,196.3,302.1,196.3z"/>
	<path class="st2" d="M302,196.3C302,196.3,302,196.3,302,196.3L302,196.3L302,196.3L302,196.3L302,196.3
		C302,196.3,302,196.3,302,196.3C302,196.3,302,196.3,302,196.3L302,196.3L302,196.3L302,196.3L302,196.3
		C302,196.3,302,196.3,302,196.3L302,196.3L302,196.3L302,196.3z"/>
	<path class="st3" d="M302,196.3L302,196.3C302,196.3,302,196.3,302,196.3L302,196.3L302,196.3L302,196.3L302,196.3z"/>
	<path class="st4" d="M302.1,196.3L302.1,196.3C302,196.3,302,196.3,302.1,196.3L302.1,196.3L302.1,196.3
		C302,196.3,302,196.3,302.1,196.3L302.1,196.3C302,196.3,302,196.3,302.1,196.3C302,196.3,302,196.3,302.1,196.3L302.1,196.3
		L302.1,196.3z"/>
	<path class="st5" d="M302.1,196.3C302.1,196.3,302.1,196.3,302.1,196.3C302.1,196.3,302.1,196.3,302.1,196.3
		C302.1,196.3,302.1,196.3,302.1,196.3C302.1,196.3,302.1,196.3,302.1,196.3L302.1,196.3C302.1,196.3,302,196.3,302.1,196.3
		C302,196.3,302,196.3,302.1,196.3C302,196.3,302,196.3,302.1,196.3C302,196.3,302,196.3,302.1,196.3
		C302,196.3,302,196.3,302.1,196.3C302,196.3,302,196.3,302.1,196.3C302,196.3,302,196.3,302.1,196.3
		C302,196.3,302,196.3,302.1,196.3C302,196.3,302,196.3,302.1,196.3C302,196.3,302,196.3,302.1,196.3
		C302,196.3,302,196.3,302.1,196.3C302,196.3,302,196.3,302.1,196.3C302,196.3,302,196.3,302.1,196.3
		C302,196.3,302,196.3,302.1,196.3C302,196.3,302,196.3,302.1,196.3C302,196.3,302,196.3,302.1,196.3
		C302,196.3,302,196.3,302.1,196.3C302.1,196.3,302.1,196.3,302.1,196.3C302.1,196.3,302.1,196.3,302.1,196.3L302.1,196.3
		C302.1,196.3,302.1,196.3,302.1,196.3C302.1,196.3,302.1,196.3,302.1,196.3C302.1,196.3,302.1,196.3,302.1,196.3
		C302.1,196.3,302.1,196.3,302.1,196.3C302.1,196.3,302.1,196.3,302.1,196.3C302.1,196.3,302.1,196.3,302.1,196.3
		C302.1,196.3,302.1,196.3,302.1,196.3C302.1,196.3,302.1,196.3,302.1,196.3C302.1,196.3,302.1,196.3,302.1,196.3
		C302.1,196.3,302.1,196.3,302.1,196.3C302.1,196.3,302.1,196.3,302.1,196.3C302.1,196.3,302.1,196.3,302.1,196.3
		C302.1,196.3,302.1,196.3,302.1,196.3C302.1,196.3,302.1,196.3,302.1,196.3C302.1,196.3,302.1,196.3,302.1,196.3 M302.1,196.3
		C302.1,196.3,302.1,196.3,302.1,196.3C302.1,196.3,302.1,196.3,302.1,196.3C302.1,196.3,302.1,196.3,302.1,196.3
		C302.1,196.3,302.1,196.3,302.1,196.3C302.1,196.3,302.1,196.3,302.1,196.3C302.1,196.3,302.1,196.3,302.1,196.3
		C302.1,196.3,302.1,196.3,302.1,196.3C302.1,196.3,302.1,196.3,302.1,196.3C302.1,196.3,302.1,196.3,302.1,196.3
		C302.1,196.3,302.1,196.3,302.1,196.3C302.1,196.3,302.1,196.3,302.1,196.3C302.1,196.3,302.1,196.3,302.1,196.3
		C302.1,196.3,302.1,196.3,302.1,196.3C302.1,196.3,302.1,196.3,302.1,196.3C302.1,196.3,302.1,196.3,302.1,196.3
		C302.1,196.3,302.1,196.3,302.1,196.3C302.1,196.3,302.1,196.3,302.1,196.3C302.1,196.3,302.1,196.3,302.1,196.3
		C302.1,196.3,302.1,196.3,302.1,196.3C302.1,196.3,302.1,196.3,302.1,196.3C302.1,196.3,302.1,196.3,302.1,196.3
		C302.1,196.3,302.1,196.3,302.1,196.3C302.1,196.3,302.1,196.3,302.1,196.3C302.1,196.3,302.1,196.3,302.1,196.3
		C302.1,196.3,302.1,196.3,302.1,196.3C302.1,196.3,302.1,196.3,302.1,196.3C302.1,196.3,302.1,196.3,302.1,196.3
		C302.1,196.3,302.1,196.3,302.1,196.3C302.1,196.3,302.1,196.3,302.1,196.3C302.1,196.3,302.1,196.3,302.1,196.3
		C302.1,196.3,302.1,196.3,302.1,196.3C302.1,196.3,302.1,196.3,302.1,196.3C302.1,196.3,302.1,196.3,302.1,196.3
		S302.1,196.3,302.1,196.3S302.1,196.3,302.1,196.3S302.1,196.3,302.1,196.3z M302.1,196.3C302.1,196.3,302.1,196.3,302.1,196.3
		C302.1,196.3,302.1,196.3,302.1,196.3C302.1,196.3,302.1,196.3,302.1,196.3C302.1,196.3,302.1,196.3,302.1,196.3
		C302.1,196.3,302.1,196.3,302.1,196.3C302.1,196.3,302.1,196.3,302.1,196.3C302.1,196.3,302.1,196.3,302.1,196.3
		C302.1,196.3,302.1,196.3,302.1,196.3C302.1,196.3,302.1,196.3,302.1,196.3C302.1,196.3,302.1,196.3,302.1,196.3
		C302.1,196.3,302.1,196.3,302.1,196.3C302.1,196.3,302.1,196.3,302.1,196.3C302.1,196.3,302.1,196.3,302.1,196.3
		C302.1,196.3,302.1,196.3,302.1,196.3C302.1,196.3,302.1,196.3,302.1,196.3C302.1,196.3,302.1,196.3,302.1,196.3
		C302.1,196.3,302.1,196.3,302.1,196.3C302.1,196.3,302.1,196.3,302.1,196.3C302.1,196.3,302.1,196.3,302.1,196.3
		C302.1,196.3,302.1,196.3,302.1,196.3C302.1,196.3,302.1,196.3,302.1,196.3C302.1,196.3,302.1,196.3,302.1,196.3
		C302.1,196.3,302.1,196.3,302.1,196.3C302.1,196.3,302.1,196.3,302.1,196.3C302.1,196.3,302.1,196.3,302.1,196.3
		C302.1,196.3,302.1,196.3,302.1,196.3C302.1,196.3,302.1,196.3,302.1,196.3C302.1,196.3,302.1,196.3,302.1,196.3
		C302.1,196.3,302.1,196.3,302.1,196.3C302.1,196.3,302.1,196.3,302.1,196.3C302.1,196.3,302.1,196.3,302.1,196.3
		C302.1,196.3,302.1,196.3,302.1,196.3C302.1,196.3,302.1,196.3,302.1,196.3C302.1,196.3,302.1,196.3,302.1,196.3
		C302.1,196.3,302.1,196.3,302.1,196.3C302.1,196.3,302.1,196.3,302.1,196.3z"/>
	<path class="st6" d="M302.1,196.3C302.1,196.3,302.1,196.3,302.1,196.3C302.1,196.3,302.1,196.3,302.1,196.3
		C302.1,196.3,302.1,196.3,302.1,196.3C302.1,196.3,302.1,196.3,302.1,196.3C302.1,196.3,302.1,196.3,302.1,196.3
		C302.1,196.3,302.1,196.3,302.1,196.3C302.1,196.3,302.1,196.3,302.1,196.3C302.1,196.3,302.1,196.3,302.1,196.3
		C302.1,196.3,302.1,196.3,302.1,196.3C302.1,196.3,302.1,196.3,302.1,196.3C302.1,196.3,302.1,196.3,302.1,196.3
		C302.1,196.3,302.1,196.3,302.1,196.3C302.1,196.3,302.1,196.3,302.1,196.3C302.1,196.3,302.1,196.3,302.1,196.3
		C302.1,196.3,302.1,196.3,302.1,196.3C302.1,196.3,302.1,196.3,302.1,196.3C302.1,196.3,302.1,196.3,302.1,196.3
		C302.1,196.3,302.1,196.3,302.1,196.3C302.1,196.3,302.1,196.3,302.1,196.3C302.1,196.3,302.1,196.3,302.1,196.3
		C302.1,196.3,302.1,196.3,302.1,196.3C302.1,196.3,302.1,196.3,302.1,196.3C302.1,196.3,302.1,196.3,302.1,196.3
		C302.1,196.3,302.1,196.3,302.1,196.3C302.1,196.3,302.1,196.3,302.1,196.3C302.1,196.3,302.1,196.3,302.1,196.3
		C302.1,196.3,302.1,196.3,302.1,196.3C302.1,196.3,302.1,196.3,302.1,196.3C302.1,196.3,302.1,196.3,302.1,196.3
		C302.1,196.3,302.1,196.3,302.1,196.3C302.1,196.3,302.1,196.3,302.1,196.3C302.1,196.3,302.1,196.3,302.1,196.3
		C302.1,196.3,302.1,196.3,302.1,196.3C302.1,196.3,302.1,196.3,302.1,196.3C302.1,196.3,302.1,196.3,302.1,196.3
		C302.1,196.3,302.1,196.3,302.1,196.3C302.1,196.3,302.1,196.3,302.1,196.3C302.1,196.3,302.1,196.3,302.1,196.3
		C302.1,196.3,302.1,196.3,302.1,196.3C302.1,196.3,302.1,196.3,302.1,196.3L302.1,196.3L302.1,196.3
		C302.1,196.3,302.1,196.3,302.1,196.3C302.1,196.3,302.1,196.3,302.1,196.3C302.1,196.3,302.1,196.3,302.1,196.3L302.1,196.3
		C302.1,196.3,302.1,196.3,302.1,196.3 M302.1,196.3C302.1,196.3,302.1,196.3,302.1,196.3C302.1,196.3,302.1,196.3,302.1,196.3
		C302.1,196.3,302.1,196.3,302.1,196.3C302.1,196.3,302.1,196.3,302.1,196.3C302.1,196.3,302.1,196.3,302.1,196.3
		C302.1,196.3,302.1,196.3,302.1,196.3C302.1,196.3,302.1,196.3,302.1,196.3C302.1,196.3,302.1,196.3,302.1,196.3
		C302.1,196.3,302.1,196.3,302.1,196.3C302.1,196.3,302.1,196.3,302.1,196.3C302.1,196.3,302.1,196.3,302.1,196.3
		C302.1,196.3,302.1,196.3,302.1,196.3C302.1,196.3,302.1,196.3,302.1,196.3C302.1,196.3,302.1,196.3,302.1,196.3
		C302.1,196.3,302.1,196.3,302.1,196.3C302.1,196.3,302.1,196.3,302.1,196.3C302.1,196.3,302.1,196.3,302.1,196.3
		C302.1,196.3,302.1,196.3,302.1,196.3C302.1,196.3,302.1,196.3,302.1,196.3C302.1,196.3,302.1,196.3,302.1,196.3
		C302.1,196.3,302.1,196.3,302.1,196.3C302.1,196.3,302.1,196.3,302.1,196.3C302.1,196.3,302.1,196.3,302.1,196.3
		C302.1,196.3,302.1,196.3,302.1,196.3C302.1,196.3,302.1,196.3,302.1,196.3C302.1,196.3,302.1,196.3,302.1,196.3
		C302.1,196.3,302.1,196.3,302.1,196.3C302.1,196.3,302.1,196.3,302.1,196.3C302.1,196.3,302.1,196.3,302.1,196.3
		C302.1,196.3,302.1,196.3,302.1,196.3C302.1,196.3,302.1,196.3,302.1,196.3C302.1,196.3,302.1,196.3,302.1,196.3
		S302.1,196.3,302.1,196.3C302.1,196.3,302.1,196.3,302.1,196.3C302.1,196.3,302.1,196.3,302.1,196.3z M302.1,196.3
		C302.1,196.3,302.1,196.3,302.1,196.3S302.1,196.3,302.1,196.3S302.1,196.3,302.1,196.3C302.1,196.3,302.1,196.3,302.1,196.3
		C302.1,196.3,302.1,196.3,302.1,196.3C302.1,196.3,302.1,196.3,302.1,196.3C302.1,196.3,302.1,196.3,302.1,196.3
		C302.1,196.3,302.1,196.3,302.1,196.3C302.1,196.3,302.1,196.3,302.1,196.3C302.1,196.3,302.1,196.3,302.1,196.3
		C302.1,196.3,302.1,196.3,302.1,196.3C302.1,196.3,302.1,196.3,302.1,196.3C302.1,196.3,302.1,196.3,302.1,196.3
		C302.1,196.3,302.1,196.3,302.1,196.3C302.1,196.3,302.1,196.3,302.1,196.3C302.1,196.3,302.1,196.3,302.1,196.3
		C302.1,196.3,302.1,196.3,302.1,196.3C302.1,196.3,302.1,196.3,302.1,196.3C302.1,196.3,302.1,196.3,302.1,196.3
		C302.1,196.3,302.1,196.3,302.1,196.3C302.1,196.3,302.1,196.3,302.1,196.3C302.1,196.3,302.1,196.3,302.1,196.3
		C302.1,196.3,302.1,196.3,302.1,196.3C302.1,196.3,302.1,196.3,302.1,196.3C302.1,196.3,302.1,196.3,302.1,196.3
		C302.1,196.3,302.1,196.3,302.1,196.3C302.1,196.3,302.1,196.3,302.1,196.3C302.1,196.3,302.1,196.3,302.1,196.3
		C302.1,196.3,302.1,196.3,302.1,196.3C302.1,196.3,302.1,196.3,302.1,196.3C302.1,196.3,302.1,196.3,302.1,196.3z"/>
	<path class="st7" d="M302.1,196.3L302.1,196.3L302.1,196.3L302.1,196.3C302.1,196.3,302.1,196.3,302.1,196.3z"/>
	<path class="st7" d="M302,196.3L302,196.3L302,196.3L302,196.3L302,196.3C302,196.3,302,196.3,302,196.3L302,196.3L302,196.3
		L302,196.3C302,196.3,302,196.3,302,196.3z"/>
	<path class="st8" d="M302.1,196.3L302.1,196.3C302.1,196.3,302.1,196.3,302.1,196.3C302.1,196.3,302.1,196.3,302.1,196.3
		L302.1,196.3C302,196.3,302,196.3,302.1,196.3L302.1,196.3C302,196.3,302,196.3,302.1,196.3C302,196.3,302,196.3,302.1,196.3
		L302.1,196.3C302,196.3,302,196.3,302.1,196.3C302,196.3,302,196.3,302.1,196.3L302.1,196.3C302.1,196.3,302.1,196.3,302.1,196.3
		L302.1,196.3z M302.1,196.3C302.1,196.3,302.1,196.3,302.1,196.3L302.1,196.3C302.1,196.3,302.1,196.3,302.1,196.3L302.1,196.3z
		 M302,196.3L302,196.3C302,196.3,302,196.3,302,196.3C302,196.3,302,196.3,302,196.3C302,196.3,302,196.3,302,196.3
		C302,196.3,302,196.3,302,196.3L302,196.3L302,196.3C302,196.3,302,196.3,302,196.3L302,196.3C302.1,196.3,302.1,196.3,302,196.3z
		 M302,196.3L302,196.3C302,196.3,302,196.3,302,196.3L302,196.3C302,196.3,302,196.3,302,196.3z M302,196.3
		C302,196.3,302,196.3,302,196.3L302,196.3C302,196.3,302,196.3,302,196.3L302,196.3L302,196.3C302,196.3,302,196.3,302,196.3
		C302,196.3,302,196.3,302,196.3L302,196.3L302,196.3z"/>
</g>
</svg>
